%FSLAX25Y25*%
%MOIN*%
G70*
G01*
G75*
G04 Layer_Color=65535*
%ADD10R,0.21654X0.07874*%
%ADD11R,0.22047X0.22047*%
%ADD12R,0.07874X0.04724*%
%ADD13R,0.05906X0.01181*%
%ADD14R,0.01181X0.05906*%
%ADD15R,0.03937X0.04331*%
%ADD16R,0.04331X0.03937*%
%ADD17R,0.04724X0.04724*%
%ADD18R,0.02756X0.02756*%
%ADD19R,0.04724X0.04724*%
%ADD20R,0.06614X0.05984*%
%ADD21R,0.05906X0.05118*%
%ADD22C,0.02756*%
%ADD23C,0.04724*%
%ADD24C,0.01000*%
%ADD25C,0.01181*%
%ADD26C,0.03937*%
%ADD27R,0.07874X0.07874*%
%ADD28C,0.07874*%
%ADD29R,0.05906X0.05906*%
%ADD30C,0.05906*%
%ADD31C,0.05000*%
%ADD32C,0.19685*%
%ADD33C,0.07874*%
%ADD34C,0.01969*%
%ADD35C,0.00394*%
D24*
X261811Y10236D02*
Y16234D01*
X264810D01*
X265810Y15235D01*
Y13235D01*
X264810Y12236D01*
X261811D01*
X271808Y10236D02*
X267809D01*
X271808Y14235D01*
Y15235D01*
X270808Y16234D01*
X268809D01*
X267809Y15235D01*
X191732Y150394D02*
Y156392D01*
X194731D01*
X195731Y155392D01*
Y153393D01*
X194731Y152393D01*
X191732D01*
X197730Y150394D02*
X199730D01*
X198730D01*
Y156392D01*
X197730Y155392D01*
X92126Y49213D02*
Y51180D01*
X94094D01*
Y49213D01*
X92126D01*
X214567Y98518D02*
Y92520D01*
X217566D01*
X218566Y93519D01*
Y97518D01*
X217566Y98518D01*
X214567D01*
X223564Y92520D02*
Y98518D01*
X220565Y95519D01*
X224564D01*
X84260Y139111D02*
Y138111D01*
X86259Y136112D01*
X88259Y138111D01*
Y139111D01*
X86259Y136112D02*
Y133113D01*
X90258D02*
X92257D01*
X91258D01*
Y139111D01*
X90258Y138111D01*
X109449Y121352D02*
Y116354D01*
X110449Y115354D01*
X112448D01*
X113447Y116354D01*
Y121352D01*
X115447Y115354D02*
X117446D01*
X116447D01*
Y121352D01*
X115447Y120353D01*
X214567Y93701D02*
Y99699D01*
X217566D01*
X218566Y98699D01*
Y96700D01*
X217566Y95700D01*
X214567D01*
X216566D02*
X218566Y93701D01*
X223564D02*
Y99699D01*
X220565Y96700D01*
X224564D01*
X38976Y5118D02*
Y11116D01*
X41975D01*
X42975Y10116D01*
Y8117D01*
X41975Y7118D01*
X38976D01*
X40976D02*
X42975Y5118D01*
X44974Y10116D02*
X45974Y11116D01*
X47973D01*
X48973Y10116D01*
Y9117D01*
X47973Y8117D01*
X46974D01*
X47973D01*
X48973Y7118D01*
Y6118D01*
X47973Y5118D01*
X45974D01*
X44974Y6118D01*
X56693Y79921D02*
Y85919D01*
X59692D01*
X60692Y84920D01*
Y82920D01*
X59692Y81921D01*
X56693D01*
X58692D02*
X60692Y79921D01*
X66690D02*
X62691D01*
X66690Y83920D01*
Y84920D01*
X65690Y85919D01*
X63691D01*
X62691Y84920D01*
X56299Y96063D02*
Y102061D01*
X59298D01*
X60298Y101061D01*
Y99062D01*
X59298Y98062D01*
X56299D01*
X58299D02*
X60298Y96063D01*
X66296D02*
X62297D01*
X66296Y100062D01*
Y101061D01*
X65296Y102061D01*
X63297D01*
X62297Y101061D01*
X56299Y110236D02*
Y116234D01*
X59298D01*
X60298Y115235D01*
Y113235D01*
X59298Y112236D01*
X56299D01*
X58299D02*
X60298Y110236D01*
X66296D02*
X62297D01*
X66296Y114235D01*
Y115235D01*
X65296Y116234D01*
X63297D01*
X62297Y115235D01*
X56299Y126378D02*
Y132376D01*
X59298D01*
X60298Y131376D01*
Y129377D01*
X59298Y128377D01*
X56299D01*
X58299D02*
X60298Y126378D01*
X66296D02*
X62297D01*
X66296Y130377D01*
Y131376D01*
X65296Y132376D01*
X63297D01*
X62297Y131376D01*
X150849Y49699D02*
X146850D01*
Y46700D01*
X148850D01*
X146850D01*
Y43701D01*
X152848Y49699D02*
Y43701D01*
X155848D01*
X156847Y44701D01*
Y45700D01*
X155848Y46700D01*
X152848D01*
X155848D01*
X156847Y47699D01*
Y48699D01*
X155848Y49699D01*
X152848D01*
X158846Y43701D02*
X160846D01*
X159846D01*
Y49699D01*
X158846Y48699D01*
X211719Y56693D02*
X217717D01*
Y59692D01*
X216717Y60692D01*
X212718D01*
X211719Y59692D01*
Y56693D01*
X212718Y62691D02*
X211719Y63691D01*
Y65690D01*
X212718Y66690D01*
X213718D01*
X214718Y65690D01*
Y64690D01*
Y65690D01*
X215717Y66690D01*
X216717D01*
X217717Y65690D01*
Y63691D01*
X216717Y62691D01*
X168898Y159935D02*
Y153937D01*
X171897D01*
X172896Y154937D01*
Y158935D01*
X171897Y159935D01*
X168898D01*
X178894Y153937D02*
X174896D01*
X178894Y157936D01*
Y158935D01*
X177895Y159935D01*
X175895D01*
X174896Y158935D01*
X5512Y86707D02*
Y80709D01*
X9510D01*
X15509Y86707D02*
X11510D01*
Y80709D01*
X15509D01*
X11510Y83708D02*
X13509D01*
X17508Y86707D02*
Y80709D01*
X20507D01*
X21507Y81708D01*
Y85707D01*
X20507Y86707D01*
X17508D01*
X23506Y85707D02*
X24506Y86707D01*
X26505D01*
X27505Y85707D01*
Y84707D01*
X26505Y83708D01*
X25505D01*
X26505D01*
X27505Y82708D01*
Y81708D01*
X26505Y80709D01*
X24506D01*
X23506Y81708D01*
X5512Y102455D02*
Y96457D01*
X9510D01*
X15509Y102455D02*
X11510D01*
Y96457D01*
X15509D01*
X11510Y99456D02*
X13509D01*
X17508Y102455D02*
Y96457D01*
X20507D01*
X21507Y97456D01*
Y101455D01*
X20507Y102455D01*
X17508D01*
X27505Y96457D02*
X23506D01*
X27505Y100455D01*
Y101455D01*
X26505Y102455D01*
X24506D01*
X23506Y101455D01*
X7480Y113872D02*
Y107874D01*
X11479D01*
X17477Y113872D02*
X13478D01*
Y107874D01*
X17477D01*
X13478Y110873D02*
X15478D01*
X19476Y113872D02*
Y107874D01*
X22476D01*
X23475Y108874D01*
Y112872D01*
X22476Y113872D01*
X19476D01*
X25475Y107874D02*
X27474D01*
X26474D01*
Y113872D01*
X25475Y112872D01*
X5512Y131195D02*
Y125197D01*
X9510D01*
X15509Y131195D02*
X11510D01*
Y125197D01*
X15509D01*
X11510Y128196D02*
X13509D01*
X17508Y131195D02*
Y125197D01*
X20507D01*
X21507Y126197D01*
Y130195D01*
X20507Y131195D01*
X17508D01*
X23506Y130195D02*
X24506Y131195D01*
X26505D01*
X27505Y130195D01*
Y126197D01*
X26505Y125197D01*
X24506D01*
X23506Y126197D01*
Y130195D01*
X172109Y71534D02*
X171109Y72534D01*
X169110D01*
X168110Y71534D01*
Y67535D01*
X169110Y66535D01*
X171109D01*
X172109Y67535D01*
X174108Y66535D02*
X176108D01*
X175108D01*
Y72534D01*
X174108Y71534D01*
X183105Y72534D02*
X179107D01*
Y69534D01*
X181106Y70534D01*
X182106D01*
X183105Y69534D01*
Y67535D01*
X182106Y66535D01*
X180106D01*
X179107Y67535D01*
X161356Y5238D02*
X162355Y4238D01*
X164355D01*
X165354Y5238D01*
Y9236D01*
X164355Y10236D01*
X162355D01*
X161356Y9236D01*
X159356Y10236D02*
X157357D01*
X158357D01*
Y4238D01*
X159356Y5238D01*
X151359Y10236D02*
Y4238D01*
X154358Y7237D01*
X150359D01*
X179860Y4844D02*
X180859Y3844D01*
X182859D01*
X183858Y4844D01*
Y8843D01*
X182859Y9843D01*
X180859D01*
X179860Y8843D01*
X177860Y9843D02*
X175861D01*
X176860D01*
Y3844D01*
X177860Y4844D01*
X172862D02*
X171862Y3844D01*
X169863D01*
X168863Y4844D01*
Y5844D01*
X169863Y6843D01*
X170862D01*
X169863D01*
X168863Y7843D01*
Y8843D01*
X169863Y9843D01*
X171862D01*
X172862Y8843D01*
X189038Y40431D02*
X188038Y41431D01*
X186039D01*
X185039Y40431D01*
Y36433D01*
X186039Y35433D01*
X188038D01*
X189038Y36433D01*
X191037Y35433D02*
X193037D01*
X192037D01*
Y41431D01*
X191037Y40431D01*
X200034Y35433D02*
X196036D01*
X200034Y39432D01*
Y40431D01*
X199035Y41431D01*
X197036D01*
X196036Y40431D01*
X190277Y67778D02*
X189278Y66779D01*
Y64779D01*
X190277Y63779D01*
X194276D01*
X195276Y64779D01*
Y66779D01*
X194276Y67778D01*
X195276Y69778D02*
Y71777D01*
Y70777D01*
X189278D01*
X190277Y69778D01*
X195276Y74776D02*
Y76775D01*
Y75776D01*
X189278D01*
X190277Y74776D01*
X78000Y81661D02*
X77001Y82660D01*
X75001D01*
X74002Y81661D01*
Y77662D01*
X75001Y76662D01*
X77001D01*
X78000Y77662D01*
X80000Y76662D02*
X81999D01*
X80999D01*
Y82660D01*
X80000Y81661D01*
X84998D02*
X85998Y82660D01*
X87997D01*
X88997Y81661D01*
Y77662D01*
X87997Y76662D01*
X85998D01*
X84998Y77662D01*
Y81661D01*
X44944Y73109D02*
X43944Y74108D01*
X41945D01*
X40945Y73109D01*
Y69110D01*
X41945Y68110D01*
X43944D01*
X44944Y69110D01*
X46943D02*
X47943Y68110D01*
X49942D01*
X50942Y69110D01*
Y73109D01*
X49942Y74108D01*
X47943D01*
X46943Y73109D01*
Y72109D01*
X47943Y71109D01*
X50942D01*
X102093Y152909D02*
X101094Y153909D01*
X99094D01*
X98094Y152909D01*
Y148911D01*
X99094Y147911D01*
X101094D01*
X102093Y148911D01*
X104093Y152909D02*
X105092Y153909D01*
X107092D01*
X108091Y152909D01*
Y151910D01*
X107092Y150910D01*
X108091Y149910D01*
Y148911D01*
X107092Y147911D01*
X105092D01*
X104093Y148911D01*
Y149910D01*
X105092Y150910D01*
X104093Y151910D01*
Y152909D01*
X105092Y150910D02*
X107092D01*
X120556Y152141D02*
X119556Y153141D01*
X117557D01*
X116558Y152141D01*
Y148142D01*
X117557Y147143D01*
X119556D01*
X120556Y148142D01*
X122556Y153141D02*
X126554D01*
Y152141D01*
X122556Y148142D01*
Y147143D01*
X157187Y74586D02*
X156187Y75586D01*
X154188D01*
X153188Y74586D01*
Y70587D01*
X154188Y69587D01*
X156187D01*
X157187Y70587D01*
X163185Y75586D02*
X161186Y74586D01*
X159186Y72587D01*
Y70587D01*
X160186Y69587D01*
X162185D01*
X163185Y70587D01*
Y71587D01*
X162185Y72587D01*
X159186D01*
X155180Y84132D02*
X154180Y85132D01*
X152181D01*
X151181Y84132D01*
Y80134D01*
X152181Y79134D01*
X154180D01*
X155180Y80134D01*
X160178Y79134D02*
Y85132D01*
X157179Y82133D01*
X161178D01*
X190038Y109781D02*
X191037Y110781D01*
Y112780D01*
X190038Y113779D01*
X186039D01*
X185039Y112780D01*
Y110781D01*
X186039Y109781D01*
X185039Y103783D02*
Y107782D01*
X189038Y103783D01*
X190038D01*
X191037Y104782D01*
Y106782D01*
X190038Y107782D01*
X176046Y82164D02*
X175046Y83163D01*
X173047D01*
X172047Y82164D01*
Y78165D01*
X173047Y77165D01*
X175046D01*
X176046Y78165D01*
X178045Y77165D02*
X180045D01*
X179045D01*
Y83163D01*
X178045Y82164D01*
X164294Y135979D02*
X163294Y136979D01*
X161295D01*
X160295Y135979D01*
Y131981D01*
X161295Y130981D01*
X163294D01*
X164294Y131981D01*
X166293Y135979D02*
X167293Y136979D01*
X169292D01*
X170292Y135979D01*
Y134980D01*
X169292Y133980D01*
X168293D01*
X169292D01*
X170292Y132981D01*
Y131981D01*
X169292Y130981D01*
X167293D01*
X166293Y131981D01*
X145395Y125652D02*
X144396Y124653D01*
Y122653D01*
X145395Y121653D01*
X149394D01*
X150394Y122653D01*
Y124653D01*
X149394Y125652D01*
X144396Y131650D02*
Y127652D01*
X147395D01*
X146395Y129651D01*
Y130651D01*
X147395Y131650D01*
X149394D01*
X150394Y130651D01*
Y128651D01*
X149394Y127652D01*
D34*
X243898Y5906D02*
Y53150D01*
X277362D01*
X243898Y5906D02*
X277362D01*
Y53150D01*
X228937Y112598D02*
Y159843D01*
X195472Y112598D02*
X228937D01*
X195472Y159843D02*
X228937D01*
X195472Y112598D02*
Y159843D01*
X90945Y104724D02*
X136221D01*
X90945D02*
Y110236D01*
X136221Y104724D02*
Y110236D01*
Y123622D02*
Y129134D01*
X90945Y123622D02*
Y129134D01*
X136221D01*
X205512Y4724D02*
X211024D01*
Y37008D01*
X205512D02*
X211024D01*
D35*
X219488Y89370D02*
X220276D01*
X58465Y8268D02*
X59252D01*
X48819Y127756D02*
Y128543D01*
Y112402D02*
Y113189D01*
X49213Y98228D02*
Y99016D01*
X49606Y82480D02*
Y83268D01*
X39714Y82037D02*
X40452Y82775D01*
X40551Y82775D02*
X41289Y82037D01*
X40108Y97391D02*
X40846Y98129D01*
X40944Y98129D02*
X41682Y97391D01*
X40501Y112352D02*
X41240Y113090D01*
X41338Y113090D02*
X42076Y112352D01*
X40501Y127312D02*
X41240Y128050D01*
X41338Y128050D02*
X42076Y127312D01*
X173327Y46063D02*
X174311D01*
X173327Y43898D02*
X174311D01*
X219045Y103593D02*
X219783Y102854D01*
X219045Y102018D02*
X219783Y102756D01*
X221752Y73130D02*
Y76870D01*
X220522Y75738D02*
X221654Y76870D01*
X221752Y76870D02*
X222884Y75738D01*
X186516Y147539D02*
Y151279D01*
X186614Y147539D02*
X187746Y148671D01*
X185384D02*
X186516Y147539D01*
X175984Y59252D02*
Y60039D01*
X172047Y59252D02*
Y60039D01*
X156299Y23425D02*
Y24213D01*
X160236Y23425D02*
Y24213D01*
X171358Y23622D02*
Y24114D01*
X176673Y23622D02*
Y24114D01*
X191043Y49213D02*
Y49705D01*
X196358Y49213D02*
Y49705D01*
X193012Y84252D02*
Y84744D01*
X198327Y84252D02*
Y84744D01*
X77165Y67520D02*
Y68307D01*
X81102Y67520D02*
Y68307D01*
X60728Y68110D02*
Y68602D01*
X66043Y68110D02*
Y68602D01*
X101181Y138779D02*
Y139567D01*
X105118Y138779D02*
Y139567D01*
X119685Y137992D02*
Y138779D01*
X123622Y137992D02*
Y138779D01*
X160236Y60433D02*
Y61221D01*
X156299Y60433D02*
Y61221D01*
X155709Y110236D02*
X156496D01*
X155709Y106299D02*
X156496D01*
X156102Y94882D02*
X156890D01*
X156102Y90945D02*
X156890D01*
X167323Y121850D02*
Y122638D01*
X163386Y121850D02*
Y122638D01*
X175787Y106693D02*
X176575D01*
X175787Y110630D02*
X176575D01*
X176181Y89764D02*
X176969D01*
X176181Y93701D02*
X176969D01*
M02*
