<?xml version="1.0" encoding="utf-8"?>
<!-- Generator: Adobe Illustrator 19.2.1, SVG Export Plug-In . SVG Version: 6.00 Build 0)  -->
<svg version="1.1" id="Layer_1" xmlns="http://www.w3.org/2000/svg" xmlns:xlink="http://www.w3.org/1999/xlink" x="0px" y="0px"
	 viewBox="0 0 283.5 283.5" style="enable-background:new 0 0 283.5 283.5;" xml:space="preserve">
<style type="text/css">
	.st0{fill:none;stroke:#BE1622;stroke-width:0.1;stroke-miterlimit:10;}
	.st1{fill:#010202;}
</style>
<g>
	<g>
		<path class="st0" d="M21.6,108.4L16.1,2.8h-2.8L7.9,108.4c-2.7,2.1-4.5,5.3-4.5,9c0,6.3,5.1,11.3,11.3,11.3
			c6.3,0,11.3-5.1,11.3-11.3C26.1,113.7,24.3,110.5,21.6,108.4z M14.7,124.4c-3.8,0-6.9-3.1-6.9-6.9c0-3.8,3.1-6.9,6.9-6.9
			c3.8,0,6.9,3.1,6.9,6.9C21.7,121.3,18.6,124.4,14.7,124.4z"/>
		<polygon id="polygon7" class="st1" points="16.1,100.9 18,99 16.1,99 		"/>
		<g>
			<polygon id="polygon5" class="st1" points="9.5,104.3 13.3,104.3 13.3,106.3 15.3,106.3 15.3,102.8 11.4,102.8 15.3,99 13.3,99 
				9.5,102.8 			"/>
			<polygon id="polygon9" class="st1" points="18,100.9 16.1,102.8 16.1,104.7 18,104.7 18,102.8 19.9,100.9 19.9,99 18,99 			"/>
		</g>
		<polygon id="polygon11" class="st1" points="19.9,102.8 18,104.7 19.9,104.7 		"/>
	</g>
	<rect x="13.3" y="2.8" class="st1" width="2.8" height="91.7"/>
</g>
<g>
	<g>
		<path class="st0" d="M23.5,23.1l5.4,105.6h2.8l5.4-105.6c2.7-2.1,4.5-5.3,4.5-9c0-6.3-5.1-11.3-11.3-11.3C24,2.8,19,7.9,19,14.1
			C19,17.8,20.7,21.1,23.5,23.1z M30.3,7.2c3.8,0,6.9,3.1,6.9,6.9c0,3.8-3.1,6.9-6.9,6.9c-3.8,0-6.9-3.1-6.9-6.9
			C23.3,10.3,26.5,7.2,30.3,7.2z"/>
		<polygon id="polygon7_1_" class="st1" points="28.9,30.7 27,32.6 28.9,32.6 		"/>
		<g>
			<polygon id="polygon5_1_" class="st1" points="35.5,27.2 31.7,27.2 31.7,25.3 29.7,25.3 29.7,28.8 33.6,28.8 29.7,32.6 
				31.7,32.6 35.5,28.8 			"/>
			<polygon id="polygon9_1_" class="st1" points="27,30.7 28.9,28.8 28.9,26.8 27,26.8 27,28.8 25.1,30.7 25.1,32.6 27,32.6 			"/>
		</g>
		<polygon id="polygon11_1_" class="st1" points="25.1,28.8 27,26.8 25.1,26.8 		"/>
	</g>
	
		<rect x="28.9" y="37" transform="matrix(-1 8.982180e-11 -8.982180e-11 -1 60.635 165.805)" class="st1" width="2.8" height="91.7"/>
</g>
<g>
	<g>
		<path class="st0" d="M53.7,108.4L48.2,2.8h-2.8L40,108.4c-2.7,2.1-4.5,5.3-4.5,9c0,6.3,5.1,11.3,11.3,11.3
			c6.3,0,11.3-5.1,11.3-11.3C58.2,113.7,56.4,110.5,53.7,108.4z M46.8,124.4c-3.8,0-6.9-3.1-6.9-6.9c0-3.8,3.1-6.9,6.9-6.9
			c3.8,0,6.9,3.1,6.9,6.9C53.8,121.3,50.7,124.4,46.8,124.4z"/>
		<polygon id="polygon7_3_" class="st1" points="48.2,100.9 50.1,99 48.2,99 		"/>
		<g>
			<polygon id="polygon5_3_" class="st1" points="41.6,104.3 45.5,104.3 45.5,106.3 47.4,106.3 47.4,102.8 43.5,102.8 47.4,99 
				45.5,99 41.6,102.8 			"/>
			<polygon id="polygon9_3_" class="st1" points="50.1,100.9 48.2,102.8 48.2,104.7 50.1,104.7 50.1,102.8 52,100.9 52,99 50.1,99 
							"/>
		</g>
		<polygon id="polygon11_3_" class="st1" points="52,102.8 50.1,104.7 52,104.7 		"/>
	</g>
	<rect x="45.4" y="2.8" class="st1" width="2.8" height="91.7"/>
</g>
<g>
	<g>
		<path class="st0" d="M55.6,23.1L61,128.8h2.8l5.4-105.6c2.7-2.1,4.5-5.3,4.5-9c0-6.3-5.1-11.3-11.3-11.3
			c-6.3,0-11.3,5.1-11.3,11.3C51.1,17.8,52.8,21.1,55.6,23.1z M62.4,7.2c3.8,0,6.9,3.1,6.9,6.9c0,3.8-3.1,6.9-6.9,6.9
			c-3.8,0-6.9-3.1-6.9-6.9C55.5,10.3,58.6,7.2,62.4,7.2z"/>
		<polygon id="polygon7_2_" class="st1" points="61,30.7 59.1,32.6 61,32.6 		"/>
		<g>
			<polygon id="polygon5_2_" class="st1" points="67.6,27.2 63.8,27.2 63.8,25.3 61.9,25.3 61.9,28.8 65.7,28.8 61.9,32.6 
				63.8,32.6 67.6,28.8 			"/>
			<polygon id="polygon9_2_" class="st1" points="59.1,30.7 61,28.8 61,26.8 59.1,26.8 59.1,28.8 57.2,30.7 57.2,32.6 59.1,32.6 			
				"/>
		</g>
		<polygon id="polygon11_2_" class="st1" points="57.2,28.8 59.1,26.8 57.2,26.8 		"/>
	</g>
	
		<rect x="61" y="37" transform="matrix(-1 8.982180e-11 -8.982180e-11 -1 124.8529 165.805)" class="st1" width="2.8" height="91.7"/>
</g>
<g>
	<g>
		<path class="st0" d="M85.8,108.4L80.4,2.8h-2.8l-5.4,105.6c-2.7,2.1-4.5,5.3-4.5,9c0,6.3,5.1,11.3,11.3,11.3
			c6.3,0,11.3-5.1,11.3-11.3C90.3,113.7,88.5,110.5,85.8,108.4z M78.9,124.4c-3.8,0-6.9-3.1-6.9-6.9c0-3.8,3.1-6.9,6.9-6.9
			c3.8,0,6.9,3.1,6.9,6.9C85.9,121.3,82.8,124.4,78.9,124.4z"/>
		<polygon id="polygon7_5_" class="st1" points="80.3,100.9 82.2,99 80.3,99 		"/>
		<g>
			<polygon id="polygon5_5_" class="st1" points="73.7,104.3 77.6,104.3 77.6,106.3 79.5,106.3 79.5,102.8 75.7,102.8 79.5,99 
				77.6,99 73.7,102.8 			"/>
			<polygon id="polygon9_5_" class="st1" points="82.2,100.9 80.3,102.8 80.3,104.7 82.2,104.7 82.2,102.8 84.1,100.9 84.1,99 
				82.2,99 			"/>
		</g>
		<polygon id="polygon11_5_" class="st1" points="84.1,102.8 82.2,104.7 84.1,104.7 		"/>
	</g>
	<rect x="77.5" y="2.8" class="st1" width="2.8" height="91.7"/>
</g>
<g>
	<g>
		<path class="st0" d="M87.7,23.1l5.4,105.6h2.8l5.4-105.6c2.7-2.1,4.5-5.3,4.5-9c0-6.3-5.1-11.3-11.3-11.3
			c-6.3,0-11.3,5.1-11.3,11.3C83.2,17.8,84.9,21.1,87.7,23.1z M94.5,7.2c3.8,0,6.9,3.1,6.9,6.9c0,3.8-3.1,6.9-6.9,6.9
			c-3.8,0-6.9-3.1-6.9-6.9C87.6,10.3,90.7,7.2,94.5,7.2z"/>
		<polygon id="polygon7_4_" class="st1" points="93.1,30.7 91.2,32.6 93.1,32.6 		"/>
		<g>
			<polygon id="polygon5_4_" class="st1" points="99.7,27.2 95.9,27.2 95.9,25.3 94,25.3 94,28.8 97.8,28.8 94,32.6 95.9,32.6 
				99.7,28.8 			"/>
			<polygon id="polygon9_4_" class="st1" points="91.2,30.7 93.1,28.8 93.1,26.8 91.2,26.8 91.2,28.8 89.3,30.7 89.3,32.6 
				91.2,32.6 			"/>
		</g>
		<polygon id="polygon11_4_" class="st1" points="89.3,28.8 91.2,26.8 89.3,26.8 		"/>
	</g>
	
		<rect x="93.1" y="37" transform="matrix(-1 8.982180e-11 -8.982180e-11 -1 189.0709 165.805)" class="st1" width="2.8" height="91.7"/>
</g>
</svg>
