<?xml version="1.0" encoding="utf-8"?>
<!-- Generator: Adobe Illustrator 19.2.1, SVG Export Plug-In . SVG Version: 6.00 Build 0)  -->
<svg version="1.1" id="Layer_1" xmlns="http://www.w3.org/2000/svg" xmlns:xlink="http://www.w3.org/1999/xlink" x="0px" y="0px"
	 viewBox="0 0 850.4 850.4" style="enable-background:new 0 0 850.4 850.4;" xml:space="preserve">
<style type="text/css">
	.st0{fill:none;stroke:#E30613;stroke-width:0.1;}
	.st1{fill:#9D9D9C;}
	.st2{font-family:'HelveticaNeue-Bold';}
	.st3{font-size:12px;}
	.st4{font-family:'ComicSansMS-Bold';}
	.st5{font-family:'HelveticaNeue-BoldItalic';}
	.st6{fill:#878787;}
	.st7{font-size:13px;}
	.st8{fill:none;stroke:#E30613;stroke-width:1.000000e-02;}
</style>
<g transform="translate(22.5000185, 22.5000185) ">
	<polygon class="st0" points="-9.1,-8.5 -9.1,476.2 759.1,476.2 759.1,-8.5 	"/>
</g>
<circle class="st0" cx="493.4" cy="376.7" r="21.5"/>
<path class="st1" d="M767.5,14H27.6H13.4v484.7h14.2h739.8h14.2V14H767.5z M767.5,484.5H27.6V28.2h739.8V484.5z"/>
<g>
	<text transform="matrix(1 0 0 1 35.1665 402.8335)"><tspan x="0" y="0" class="st2 st3">BADG</tspan><tspan x="34.7" y="0" class="st4 st3"> </tspan><tspan x="39.9" y="0" class="st2 st3">OTRON </tspan><tspan x="86.8" y="0" class="st5 st3">by</tspan><tspan x="0" y="14.4" class="st2 st3">amordret</tspan><tspan x="0" y="28.8" class="st2 st3">asarasy</tspan><tspan x="0" y="43.2" class="st2 st3">rbarbero</tspan><tspan x="0" y="57.6" class="st2 st3">thvocans</tspan><tspan x="0" y="72" class="st5 st3">terrible design by </tspan><tspan x="102.9" y="72" class="st2 st3">hsabouri</tspan></text>
	<polygon points="73.5,397.8 71.7,396 70.9,396.7 72.7,398.6 70.9,400.4 71.7,401.2 73.5,399.4 74.3,398.6 	"/>
</g>
<g>
	<g>
		<polygon id="polygon7_3_" class="st6" points="698.8,392 728.6,362.3 698.8,362.3 		"/>
		<g>
			<polygon id="polygon5_3_" class="st6" points="595.6,445.2 656.6,445.2 656.6,476.4 686.3,476.4 686.3,421.7 625.3,421.7 
				686.3,362.3 656.6,362.3 595.6,421.7 			"/>
			<polygon id="polygon9_3_" class="st6" points="728.6,392 698.8,421.7 698.8,451.4 728.6,451.4 728.6,421.7 758.3,392 
				758.3,362.3 728.6,362.3 			"/>
		</g>
		<polygon id="polygon11_3_" class="st6" points="758.3,421.7 728.6,451.4 758.3,451.4 		"/>
	</g>
	<text transform="matrix(1 0 0 1 698.5527 476.4404)" class="st6 st5 st7">LABELEC</text>
</g>
<rect x="13.4" y="14" class="st8" width="768.2" height="484.7"/>
</svg>
