<?xml version="1.0" encoding="utf-8"?>
<!-- Generator: Adobe Illustrator 19.2.1, SVG Export Plug-In . SVG Version: 6.00 Build 0)  -->
<svg version="1.1" id="Layer_1" xmlns="http://www.w3.org/2000/svg" xmlns:xlink="http://www.w3.org/1999/xlink" x="0px" y="0px"
	 viewBox="0 0 850.4 1133.9" style="enable-background:new 0 0 850.4 1133.9;" xml:space="preserve">
<style type="text/css">
	.st0{fill:none;stroke:#E52620;stroke-width:0.1;}
	.st1{fill:#010202;}
	.st2{font-family:'MyriadPro-Regular';}
	.st3{font-size:12px;}
	.st4{fill:none;stroke:#BE1823;stroke-width:0.1;stroke-miterlimit:10;}
	.st5{fill:none;stroke:#E30613;stroke-width:0.1;stroke-miterlimit:10;}
</style>
<polyline class="st0" points="15.8,499.7 784,499.7 784,15 "/>
<polyline class="st0" points="15.8,499.7 15.8,783.2 784,783.2 784,499.7 "/>
<path class="st0" d="M769.8,15H30H15.8v484.7H30h739.8H784V15H769.8z M769.8,485.6H30V29.2h739.8V485.6z"/>
<rect x="30" y="29.2" class="st0" width="467.7" height="283.5"/>
<text transform="matrix(1 0 0 1 20.4331 497.9872)" class="st1 st2 st3">CACHE</text>
<text transform="matrix(1 0 0 1 35.4331 43.2706)" class="st1 st2 st3">COTE</text>
<text transform="matrix(1 0 0 1 20.4326 515.4725)" class="st1 st2 st3">COTE</text>
<g>
	
		<rect x="15.8" y="783.2" transform="matrix(-1 8.979383e-11 -8.979383e-11 -1 445.4803 1743.5433)" class="st4" width="413.9" height="177.2"/>
	<text transform="matrix(4.489659e-11 1 -1 4.489659e-11 412.3789 793.0001)" class="st1 st2 st3">LCD SUPPORT</text>
</g>
<g>
	<rect x="429.7" y="782.3" class="st5" width="297.6" height="178.9"/>
	<text transform="matrix(1 0 0 1 434.6646 796.6327)" class="st2 st3">FOND 1 vm</text>
</g>
<rect x="330.5" y="960.4" transform="matrix(-1 8.979160e-11 -8.979160e-11 -1 975.5589 2042.5985)" class="st5" width="314.6" height="121.9"/>
<rect x="15.8" y="960.4" transform="matrix(-1 8.979160e-11 -8.979160e-11 -1 346.2677 2042.5985)" class="st5" width="314.6" height="121.9"/>
<text transform="matrix(4.489659e-11 1 -1 4.489659e-11 630.9307 964.5222)" class="st2 st3">COTE vm</text>
<text transform="matrix(4.489659e-11 1 -1 4.489659e-11 316.2852 965.9886)" class="st2 st3">COTE vm</text>
</svg>
