%FSLAX25Y25*%
%MOIN*%
G70*
G01*
G75*
G04 Layer_Color=16711935*
%ADD10R,0.04331X0.03937*%
%ADD11R,0.03937X0.04331*%
%ADD12R,0.05906X0.05118*%
%ADD13R,0.05118X0.05906*%
%ADD14R,0.06614X0.05984*%
%ADD15R,0.05984X0.06614*%
%ADD16R,0.04724X0.04724*%
%ADD17R,0.02756X0.02756*%
%ADD18R,0.04724X0.04724*%
%ADD19R,0.05906X0.01181*%
%ADD20R,0.01181X0.05906*%
%ADD21R,0.22047X0.22047*%
%ADD22R,0.07874X0.04724*%
%ADD23R,0.21654X0.07874*%
%ADD24C,0.01000*%
%ADD25C,0.01969*%
%ADD26C,0.02756*%
%ADD27C,0.03937*%
%ADD28C,0.07874*%
%ADD29R,0.07874X0.07874*%
%ADD30R,0.05906X0.05906*%
%ADD31C,0.05906*%
%ADD32C,0.05000*%
%ADD33C,0.11811*%
%ADD34C,0.00394*%
%ADD35C,0.00787*%
%ADD36R,0.05131X0.04737*%
%ADD37R,0.04737X0.05131*%
%ADD38R,0.06706X0.05918*%
%ADD39R,0.05918X0.06706*%
%ADD40R,0.07414X0.06784*%
%ADD41R,0.06784X0.07414*%
%ADD42R,0.05524X0.05524*%
%ADD43R,0.03556X0.03556*%
%ADD44R,0.05524X0.05524*%
%ADD45R,0.06706X0.01981*%
%ADD46R,0.01981X0.06706*%
%ADD47R,0.22847X0.22847*%
%ADD48R,0.08674X0.05524*%
%ADD49R,0.22453X0.08674*%
%ADD50C,0.08674*%
%ADD51R,0.08674X0.08674*%
%ADD52R,0.06706X0.06706*%
%ADD53C,0.00800*%
%ADD54C,0.06706*%
%ADD55C,0.05800*%
D50*
X201575Y150394D02*
D03*
X164961D02*
D03*
D51*
X215354Y130709D02*
D03*
X178740D02*
D03*
D52*
X95669Y19685D02*
D03*
X115354D02*
D03*
X135039D02*
D03*
D53*
X32283Y7638D02*
D03*
Y47638D02*
D03*
D54*
X57323Y15157D02*
D03*
Y25157D02*
D03*
X67323Y20157D02*
D03*
Y30158D02*
D03*
X57323Y35157D02*
D03*
X67323Y40157D02*
D03*
D55*
X61811Y137402D02*
D03*
X172835Y62598D02*
D03*
X200000Y21260D02*
D03*
X48425Y62205D02*
D03*
X116591Y31157D02*
D03*
X162992Y48819D02*
D03*
X126378Y104331D02*
D03*
X105118Y107480D02*
D03*
X109449Y123228D02*
D03*
X116535Y122835D02*
D03*
M02*
