%FSLAX25Y25*%
%MOIN*%
G70*
G01*
G75*
G04 Layer_Physical_Order=2*
G04 Layer_Color=16711680*
%ADD10R,0.04331X0.03937*%
%ADD11R,0.03937X0.04331*%
%ADD12R,0.05906X0.05118*%
%ADD13R,0.05118X0.05906*%
%ADD14R,0.06614X0.05984*%
%ADD15R,0.05984X0.06614*%
%ADD16R,0.04724X0.04724*%
%ADD17R,0.02756X0.02756*%
%ADD18R,0.04724X0.04724*%
%ADD19R,0.05906X0.01181*%
%ADD20R,0.01181X0.05906*%
%ADD21R,0.22047X0.22047*%
%ADD22R,0.07874X0.04724*%
%ADD23R,0.21654X0.07874*%
%ADD24C,0.01000*%
%ADD25C,0.01969*%
%ADD26C,0.02756*%
%ADD27C,0.03937*%
%ADD28C,0.07874*%
%ADD29R,0.07874X0.07874*%
%ADD30R,0.05906X0.05906*%
%ADD31C,0.05906*%
%ADD32C,0.05000*%
%ADD33C,0.11811*%
G36*
X209449Y157480D02*
Y17189D01*
X208987Y16997D01*
X203150Y22835D01*
X203136D01*
X203057Y23025D01*
X202496Y23756D01*
X201765Y24317D01*
X200914Y24670D01*
X200500Y24724D01*
Y21260D01*
X199500D01*
Y24724D01*
X199086Y24670D01*
X198235Y24317D01*
X197504Y23756D01*
X196943Y23025D01*
X196864Y22835D01*
X141592D01*
X141401Y23297D01*
X163701Y45596D01*
X163850Y45616D01*
X164650Y45947D01*
X165337Y46474D01*
X165864Y47161D01*
X166195Y47961D01*
X166308Y48819D01*
X166195Y49677D01*
X165864Y50477D01*
X165337Y51164D01*
X164650Y51690D01*
X163850Y52022D01*
X162992Y52135D01*
X162134Y52022D01*
X161334Y51690D01*
X160647Y51164D01*
X160121Y50477D01*
X159789Y49677D01*
X159770Y49527D01*
X133667Y23425D01*
X131299D01*
Y22835D01*
X119307D01*
Y23638D01*
X115854D01*
Y19685D01*
X114854D01*
Y23638D01*
X111402D01*
Y22835D01*
X99409D01*
Y23425D01*
X91929D01*
Y22835D01*
X72441D01*
X69107Y26168D01*
X69205Y26659D01*
X69316Y26705D01*
X70142Y27338D01*
X70776Y28164D01*
X71174Y29126D01*
X71244Y29658D01*
X67323D01*
Y30158D01*
X66823D01*
Y34078D01*
X66291Y34008D01*
X65329Y33610D01*
X64504Y32977D01*
X63870Y32151D01*
X63824Y32040D01*
X63334Y31942D01*
X60982Y34294D01*
X61095Y35157D01*
X60967Y36134D01*
X60590Y37044D01*
X59990Y37825D01*
X59209Y38425D01*
X58299Y38801D01*
X57323Y38930D01*
X56459Y38816D01*
X40157Y55118D01*
Y143307D01*
X54331D01*
X70079Y159055D01*
X209449Y157480D01*
D02*
G37*
%LPC*%
G36*
X176299Y62098D02*
X173335D01*
Y59134D01*
X173748Y59188D01*
X174600Y59541D01*
X175331Y60102D01*
X175892Y60833D01*
X176245Y61685D01*
X176299Y62098D01*
D02*
G37*
G36*
X172335D02*
X169370D01*
X169425Y61685D01*
X169777Y60833D01*
X170338Y60102D01*
X171070Y59541D01*
X171921Y59188D01*
X172335Y59134D01*
Y62098D01*
D02*
G37*
G36*
X51890Y61705D02*
X48925D01*
Y58740D01*
X49339Y58795D01*
X50190Y59148D01*
X50921Y59708D01*
X51482Y60440D01*
X51835Y61291D01*
X51890Y61705D01*
D02*
G37*
G36*
X47925Y65669D02*
X47512Y65615D01*
X46660Y65262D01*
X45929Y64701D01*
X45368Y63970D01*
X45015Y63118D01*
X44961Y62705D01*
X47925D01*
Y65669D01*
D02*
G37*
G36*
X173335Y66063D02*
Y63098D01*
X176299D01*
X176245Y63512D01*
X175892Y64363D01*
X175331Y65095D01*
X174600Y65656D01*
X173748Y66008D01*
X173335Y66063D01*
D02*
G37*
G36*
X172335D02*
X171921Y66008D01*
X171070Y65656D01*
X170338Y65095D01*
X169777Y64363D01*
X169425Y63512D01*
X169370Y63098D01*
X172335D01*
Y66063D01*
D02*
G37*
G36*
X48925Y65669D02*
Y62705D01*
X51890D01*
X51835Y63118D01*
X51482Y63970D01*
X50921Y64701D01*
X50190Y65262D01*
X49339Y65615D01*
X48925Y65669D01*
D02*
G37*
G36*
X67823Y34078D02*
Y30658D01*
X71244D01*
X71174Y31189D01*
X70776Y32151D01*
X70142Y32977D01*
X69316Y33610D01*
X68355Y34008D01*
X67823Y34078D01*
D02*
G37*
G36*
X120055Y30658D02*
X117091D01*
Y27693D01*
X117504Y27748D01*
X118356Y28100D01*
X119087Y28661D01*
X119648Y29392D01*
X120001Y30244D01*
X120055Y30658D01*
D02*
G37*
G36*
X116091D02*
X113126D01*
X113181Y30244D01*
X113533Y29392D01*
X114094Y28661D01*
X114825Y28100D01*
X115677Y27748D01*
X116091Y27693D01*
Y30658D01*
D02*
G37*
G36*
Y34622D02*
X115677Y34567D01*
X114825Y34215D01*
X114094Y33654D01*
X113533Y32923D01*
X113181Y32071D01*
X113126Y31657D01*
X116091D01*
Y34622D01*
D02*
G37*
G36*
X47925Y61705D02*
X44961D01*
X45015Y61291D01*
X45368Y60440D01*
X45929Y59708D01*
X46660Y59148D01*
X47512Y58795D01*
X47925Y58740D01*
Y61705D01*
D02*
G37*
G36*
X67323Y43930D02*
X66347Y43801D01*
X65437Y43424D01*
X64655Y42825D01*
X64056Y42044D01*
X63679Y41134D01*
X63550Y40157D01*
X63679Y39181D01*
X64056Y38271D01*
X64655Y37490D01*
X65437Y36891D01*
X66347Y36514D01*
X67323Y36385D01*
X68299Y36514D01*
X69209Y36891D01*
X69990Y37490D01*
X70590Y38271D01*
X70967Y39181D01*
X71095Y40157D01*
X70967Y41134D01*
X70590Y42044D01*
X69990Y42825D01*
X69209Y43424D01*
X68299Y43801D01*
X67323Y43930D01*
D02*
G37*
G36*
X117091Y34622D02*
Y31657D01*
X120055D01*
X120001Y32071D01*
X119648Y32923D01*
X119087Y33654D01*
X118356Y34215D01*
X117504Y34567D01*
X117091Y34622D01*
D02*
G37*
G36*
X206489Y149894D02*
X202075D01*
Y145480D01*
X202864Y145584D01*
X204065Y146081D01*
X205096Y146873D01*
X205887Y147904D01*
X206385Y149105D01*
X206489Y149894D01*
D02*
G37*
G36*
X201075D02*
X196661D01*
X196765Y149105D01*
X197262Y147904D01*
X198054Y146873D01*
X199085Y146081D01*
X200286Y145584D01*
X201075Y145480D01*
Y149894D01*
D02*
G37*
G36*
X169874D02*
X165461D01*
Y145480D01*
X166250Y145584D01*
X167450Y146081D01*
X168482Y146873D01*
X169273Y147904D01*
X169771Y149105D01*
X169874Y149894D01*
D02*
G37*
G36*
X164461Y155307D02*
X163672Y155204D01*
X162471Y154706D01*
X161440Y153915D01*
X160648Y152884D01*
X160151Y151682D01*
X160047Y150894D01*
X164461D01*
Y155307D01*
D02*
G37*
G36*
X202075D02*
Y150894D01*
X206489D01*
X206385Y151682D01*
X205887Y152884D01*
X205096Y153915D01*
X204065Y154706D01*
X202864Y155204D01*
X202075Y155307D01*
D02*
G37*
G36*
X201075D02*
X200286Y155204D01*
X199085Y154706D01*
X198054Y153915D01*
X197262Y152884D01*
X196765Y151682D01*
X196661Y150894D01*
X201075D01*
Y155307D01*
D02*
G37*
G36*
X165461D02*
Y150894D01*
X169874D01*
X169771Y151682D01*
X169273Y152884D01*
X168482Y153915D01*
X167450Y154706D01*
X166250Y155204D01*
X165461Y155307D01*
D02*
G37*
G36*
X164461Y149894D02*
X160047D01*
X160151Y149105D01*
X160648Y147904D01*
X161440Y146873D01*
X162471Y146081D01*
X163672Y145584D01*
X164461Y145480D01*
Y149894D01*
D02*
G37*
G36*
X183465Y135433D02*
X174016D01*
Y125984D01*
X183465D01*
Y135433D01*
D02*
G37*
G36*
X109449Y126544D02*
X108591Y126431D01*
X107791Y126100D01*
X107104Y125573D01*
X106577Y124886D01*
X106246Y124086D01*
X106133Y123228D01*
X106246Y122370D01*
X106389Y122025D01*
X104190Y119826D01*
X103905Y119400D01*
X103805Y118898D01*
Y110495D01*
X103460Y110352D01*
X102773Y109825D01*
X102247Y109138D01*
X101915Y108338D01*
X101802Y107480D01*
X101915Y106622D01*
X102247Y105822D01*
X102773Y105136D01*
X103460Y104609D01*
X104260Y104278D01*
X105118Y104165D01*
X105976Y104278D01*
X106776Y104609D01*
X107463Y105136D01*
X107990Y105822D01*
X108321Y106622D01*
X108434Y107480D01*
X108321Y108338D01*
X107990Y109138D01*
X107463Y109825D01*
X106776Y110352D01*
X106431Y110495D01*
Y118354D01*
X108245Y120169D01*
X108591Y120026D01*
X109449Y119913D01*
X110307Y120026D01*
X111107Y120357D01*
X111793Y120884D01*
X112320Y121571D01*
X112652Y122370D01*
X112765Y123228D01*
X112652Y124086D01*
X112320Y124886D01*
X111793Y125573D01*
X111107Y126100D01*
X110307Y126431D01*
X109449Y126544D01*
D02*
G37*
G36*
X116535Y126150D02*
X115677Y126037D01*
X114877Y125706D01*
X114191Y125179D01*
X113664Y124493D01*
X113333Y123693D01*
X113220Y122835D01*
X113333Y121976D01*
X113664Y121177D01*
X114191Y120490D01*
X114877Y119963D01*
X115223Y119820D01*
Y114173D01*
X115323Y113671D01*
X115607Y113245D01*
X123318Y105534D01*
X123175Y105189D01*
X123062Y104331D01*
X123175Y103472D01*
X123506Y102673D01*
X124033Y101986D01*
X124720Y101459D01*
X125520Y101128D01*
X126378Y101015D01*
X127236Y101128D01*
X128036Y101459D01*
X128723Y101986D01*
X129250Y102673D01*
X129581Y103472D01*
X129694Y104331D01*
X129581Y105189D01*
X129250Y105989D01*
X128723Y106675D01*
X128036Y107202D01*
X127236Y107534D01*
X126378Y107647D01*
X125520Y107534D01*
X125174Y107390D01*
X117848Y114717D01*
Y119820D01*
X118193Y119963D01*
X118880Y120490D01*
X119407Y121177D01*
X119738Y121976D01*
X119851Y122835D01*
X119738Y123693D01*
X119407Y124493D01*
X118880Y125179D01*
X118193Y125706D01*
X117394Y126037D01*
X116535Y126150D01*
D02*
G37*
G36*
X61311Y136902D02*
X58347D01*
X58401Y136488D01*
X58754Y135636D01*
X59315Y134905D01*
X60046Y134344D01*
X60897Y133992D01*
X61311Y133937D01*
Y136902D01*
D02*
G37*
G36*
X62311Y140866D02*
Y137902D01*
X65275D01*
X65221Y138315D01*
X64868Y139167D01*
X64307Y139898D01*
X63576Y140459D01*
X62725Y140812D01*
X62311Y140866D01*
D02*
G37*
G36*
X61311D02*
X60897Y140812D01*
X60046Y140459D01*
X59315Y139898D01*
X58754Y139167D01*
X58401Y138315D01*
X58347Y137902D01*
X61311D01*
Y140866D01*
D02*
G37*
G36*
X65275Y136902D02*
X62311D01*
Y133937D01*
X62725Y133992D01*
X63576Y134344D01*
X64307Y134905D01*
X64868Y135636D01*
X65221Y136488D01*
X65275Y136902D01*
D02*
G37*
%LPD*%
D24*
X105118Y107480D02*
Y118898D01*
X109449Y123228D01*
X116535Y114173D02*
Y122835D01*
Y114173D02*
X126378Y104331D01*
D25*
X135039Y19685D02*
Y20866D01*
D27*
X162992Y48819D01*
D28*
X201575Y150394D02*
D03*
X164961D02*
D03*
D29*
X215354Y130709D02*
D03*
X178740D02*
D03*
D30*
X95669Y19685D02*
D03*
X115354D02*
D03*
X135039D02*
D03*
D31*
X57323Y15157D02*
D03*
Y25157D02*
D03*
X67323Y20157D02*
D03*
Y30158D02*
D03*
X57323Y35157D02*
D03*
X67323Y40157D02*
D03*
D32*
X61811Y137402D02*
D03*
X172835Y62598D02*
D03*
X200000Y21260D02*
D03*
X48425Y62205D02*
D03*
X116591Y31157D02*
D03*
X162992Y48819D02*
D03*
X126378Y104331D02*
D03*
X105118Y107480D02*
D03*
X109449Y123228D02*
D03*
X116535Y122835D02*
D03*
D33*
X164961Y150394D02*
X201575D01*
X74803D02*
X164961D01*
X61811Y137402D02*
X74803Y150394D01*
X61811Y75590D02*
Y137402D01*
X48425Y62205D02*
X61811Y75590D01*
X48425Y62205D02*
X85543D01*
X116591Y31157D01*
X200000Y148819D02*
X201575Y150394D01*
X198031Y87795D02*
X200000D01*
X172835Y62598D02*
X198031Y87795D01*
X200000Y21260D02*
Y87795D01*
Y148819D01*
M02*
