M48
;Layer_Color=9474304
;FILE_FORMAT=4:4
METRIC,LZ
;TYPE=PLATED
T1F00S00C0.6000
T2F00S00C0.7110
T3F00S00C0.7112
T4F00S00C0.7620
T5F00S00C0.8000
T6F00S00C0.9000
T7F00S00C1.0000
T8F00S00C1.3000
T9F00S00C1.6000
T10F00S00C4.0000
;TYPE=NON_PLATED
T11F00S00C3.2500
%
T01
X0009437Y0045686
Y0048226
Y0050766
T02
X0041187Y0054957
T03
X001566Y0022699
X0026963Y002181
X0031154Y0018889
X0032551Y0017238
X0031662Y001038
X0036488Y0005808
X0037123Y0022826
X0038901Y0021175
X0056554Y0043654
X0054141Y0053306
X0044997Y0053052
X0042965Y0054195
X0036234Y0052671
X0034583Y0047972
X0036488Y00438
X0035091Y0040479
X00361Y00371868
X0034964Y0032605
X0037123Y0032351
X003471Y0027017
X0032805Y0026382
X0032691Y0028554
X0031027Y0030471
X0029376Y0028922
X0028995Y003324
X0026963Y003959
X003277Y00428
X0040679Y0047718
X0047918Y0038447
X0042711Y00263
X0023153Y0027525
X00182Y0037558
X0016295Y0042384
X0016168Y0044289
X0016803Y0046575
X001312Y0034383
X0034075Y0063593
X0009437Y0054449
X0008802Y0039082
X0008421Y0076674
X0015914Y0073118
X0014263Y0070705
X0020359Y0073499
X0023407Y0072991
X0021629Y0068038
X0032424Y0068673
T04
X0047542Y0003268
X0050082
X0048812Y0005808
X0046272
X0051352
X0052622Y0003268
T05
X0053379Y0058767
X0048379
X0029757Y0056735
Y0061735
X0018501Y0061561
X0013501
T06
X0003214Y0015206
Y0017746
Y0020286
Y0022826
Y0025366
Y0027906
Y0030446
Y0032986
Y0035526
Y0038066
Y0040606
Y0043146
Y0045686
Y0048226
Y0050766
Y0053306
X0003595Y0062069
Y0064609
X0006135
Y0062069
Y0067149
Y0069689
Y0072229
X0003595
Y0069689
Y0067149
T07
X0051093Y0067657
Y0072737
T08
X006265Y0013428
Y0018508
Y0023588
Y0028668
Y0033748
Y0038828
Y0043908
Y0048988
Y0054068
Y0059148
Y0064228
Y0069308
T09
X0038346Y0069891
X0043346Y0066791
Y0072991
T10
X0004055Y0004363
X0064476Y0004363
X0004055Y00785
X0064476Y00785
T11
X0044362Y0012158
X0054522
M30
