M48
;Layer_Color=9474304
;FILE_FORMAT=2:5
INCH,LZ
;TYPE=PLATED
T1F00S00C0.02800
T2F00S00C0.03543
T3F00S00C0.04331
T4F00S00C0.13780
%
T01
X0094882Y0027559
X0115354Y0032677
X0164173Y0044488
X0196457Y0004331
X0146063Y0092913
X0101181Y0105118
X0165748Y0141339
T02
X0051968Y0016929
Y0026929
Y0036929
X0061968Y0041929
Y0031929
Y0021929
T03
X0094488Y0019685
X0114173
X0133858
X0264567Y0024409
X0250787Y0044094
X0222047Y0121653
X0208268Y0141339
T04
X0026929Y0009409
Y0046929
M30
