<?xml version="1.0" encoding="utf-8"?>
<!-- Generator: Adobe Illustrator 19.2.1, SVG Export Plug-In . SVG Version: 6.00 Build 0)  -->
<svg version="1.1" id="Layer_1" xmlns="http://www.w3.org/2000/svg" xmlns:xlink="http://www.w3.org/1999/xlink" x="0px" y="0px"
	 viewBox="0 0 566.9 566.9" style="enable-background:new 0 0 566.9 566.9;" xml:space="preserve">
<style type="text/css">
	.st0{fill:none;stroke:#E30613;stroke-width:0.1;stroke-miterlimit:10;}
	.st1{font-family:'MyriadPro-Regular';}
	.st2{font-size:12px;}
</style>
<rect x="222.5" y="103.3" transform="matrix(4.489546e-11 1 -1 4.489546e-11 544.0836 -215.6023)" class="st0" width="314.6" height="121.9"/>
<rect x="344.4" y="103.3" transform="matrix(4.489546e-11 1 -1 4.489546e-11 665.9733 -337.4921)" class="st0" width="314.6" height="121.9"/>
<rect x="139.8" y="202.8" transform="matrix(-1 1.237733e-10 -1.237733e-10 -1 458.6947 527.4734)" class="st0" width="179.1" height="121.9"/>
<polygon class="st0" points="46.3,381.9 139.8,381.9 139.8,202.8 17.9,202.8 17.9,373.4 46.3,373.4 "/>
<rect x="4.3" y="6.9" class="st0" width="314.6" height="195.9"/>
<rect x="139.8" y="324.7" class="st0" width="297.6" height="178.9"/>
<circle class="st0" cx="23" cy="25.6" r="4.5"/>
<circle class="st0" cx="300.2" cy="25.6" r="4.5"/>
<circle class="st0" cx="23" cy="184.1" r="4.5"/>
<circle class="st0" cx="300.2" cy="184.1" r="4.5"/>
<text transform="matrix(1 0 0 1 12.6162 46.6441)" class="st1 st2">FOND 2</text>
<text transform="matrix(1 0 0 1 22.9606 216.5665)" class="st1 st2">COTE TROU ELEC</text>
<text transform="matrix(4.489659e-11 -1 1 4.489659e-11 152.2887 319.0103)" class="st1 st2">COTE</text>
<text transform="matrix(1 0 0 1 323.0659 21.0899)" class="st1 st2">COTE</text>
<text transform="matrix(1 0 0 1 446.4221 21.0898)" class="st1 st2">COTE</text>
<text transform="matrix(1 0 0 1 144.7919 338.9757)" class="st1 st2">FOND 1</text>
</svg>
