<?xml version="1.0" encoding="utf-8"?>
<!-- Generator: Adobe Illustrator 19.2.1, SVG Export Plug-In . SVG Version: 6.00 Build 0)  -->
<svg version="1.1" id="Layer_1" xmlns="http://www.w3.org/2000/svg" xmlns:xlink="http://www.w3.org/1999/xlink" x="0px" y="0px"
	 viewBox="0 0 1872.9 1005.4" style="enable-background:new 0 0 1872.9 1005.4;" xml:space="preserve">
<style type="text/css">
	.st0{fill:none;stroke:#FF0000;stroke-width:0.1;}
	.st1{fill:none;stroke:#BD1622;stroke-width:0.1;stroke-miterlimit:10;}
	.st2{font-family:'MyriadPro-Regular';}
	.st3{font-size:12px;}
</style>
<polyline class="st0" points="17.8,503 786,503 786,18.3 "/>
<polyline class="st0" points="786,18.3 1554.2,18.3 1554.2,503 786,503 "/>
<polyline class="st0" points="17.8,503 17.8,786.5 786,786.5 786,503 "/>
<polyline class="st0" points="786,786.5 1554.2,786.5 1554.2,503 "/>
<path class="st0" d="M771.8,18.3H32H17.8V503H32h739.8H786V18.3H771.8z M771.8,488.9H32V32.5h739.8V488.9z"/>
<rect x="1554.2" y="18.3" class="st0" width="283.5" height="467.7"/>
<rect x="32" y="32.5" class="st0" width="467.7" height="283.5"/>
<rect x="1435.8" y="604.4" transform="matrix(4.489724e-11 1 -1 4.489724e-11 2335.7373 -949.806)" class="st1" width="413.9" height="177.2"/>
<text transform="matrix(1 0 0 1 1564 503.3279)" class="st2 st3">LCD SUPPORT</text>
<text transform="matrix(1 0 0 1 22.4331 501.3072)" class="st2 st3">CACHE</text>
<text transform="matrix(1 0 0 1 37.4331 46.5907)" class="st2 st3">COTE</text>
<text transform="matrix(1 0 0 1 1559.4331 32.4934)" class="st2 st3">COTE</text>
<text transform="matrix(1 0 0 1 791.1655 518.7926)" class="st2 st3">COTE</text>
<text transform="matrix(1 0 0 1 22.4326 518.7925)" class="st2 st3">COTE</text>
<text transform="matrix(1 0 0 1 791.1655 32.4932)" class="st2 st3">FOND</text>
</svg>
