%FSLAX25Y25*%
%MOIN*%
G70*
G01*
G75*
G04 Layer_Color=65535*
%ADD10R,0.04331X0.03937*%
%ADD11R,0.03937X0.04331*%
%ADD12R,0.05906X0.05118*%
%ADD13R,0.05118X0.05906*%
%ADD14R,0.06614X0.05984*%
%ADD15R,0.05984X0.06614*%
%ADD16R,0.04724X0.04724*%
%ADD17R,0.02756X0.02756*%
%ADD18R,0.04724X0.04724*%
%ADD19R,0.05906X0.01181*%
%ADD20R,0.01181X0.05906*%
%ADD21R,0.22047X0.22047*%
%ADD22R,0.07874X0.04724*%
%ADD23R,0.21654X0.07874*%
%ADD24C,0.01000*%
%ADD25C,0.01969*%
%ADD26C,0.02756*%
%ADD27C,0.03937*%
%ADD28C,0.07874*%
%ADD29R,0.07874X0.07874*%
%ADD30R,0.05906X0.05906*%
%ADD31C,0.05906*%
%ADD32C,0.05000*%
%ADD33C,0.11811*%
%ADD34C,0.00394*%
%ADD35C,0.00787*%
D24*
X153937Y2362D02*
Y8360D01*
X156936D01*
X157936Y7361D01*
Y5361D01*
X156936Y4361D01*
X153937D01*
X155936D02*
X157936Y2362D01*
X159935D02*
X161934D01*
X160935D01*
Y8360D01*
X159935Y7361D01*
X83866Y150528D02*
Y149528D01*
X85865Y147529D01*
X87865Y149528D01*
Y150528D01*
X85865Y147529D02*
Y144530D01*
X89864D02*
X91864D01*
X90864D01*
Y150528D01*
X89864Y149528D01*
X110630Y112297D02*
Y107299D01*
X111630Y106299D01*
X113629D01*
X114629Y107299D01*
Y112297D01*
X116628Y106299D02*
X118627D01*
X117628D01*
Y112297D01*
X116628Y111298D01*
X56693Y79921D02*
Y85919D01*
X59692D01*
X60692Y84920D01*
Y82920D01*
X59692Y81921D01*
X56693D01*
X58692D02*
X60692Y79921D01*
X66690D02*
X62691D01*
X66690Y83920D01*
Y84920D01*
X65690Y85919D01*
X63691D01*
X62691Y84920D01*
X56299Y96063D02*
Y102061D01*
X59298D01*
X60298Y101061D01*
Y99062D01*
X59298Y98062D01*
X56299D01*
X58299D02*
X60298Y96063D01*
X66296D02*
X62297D01*
X66296Y100062D01*
Y101061D01*
X65296Y102061D01*
X63297D01*
X62297Y101061D01*
X56299Y110236D02*
Y116234D01*
X59298D01*
X60298Y115235D01*
Y113235D01*
X59298Y112236D01*
X56299D01*
X58299D02*
X60298Y110236D01*
X66296D02*
X62297D01*
X66296Y114235D01*
Y115235D01*
X65296Y116234D01*
X63297D01*
X62297Y115235D01*
X56299Y126378D02*
Y132376D01*
X59298D01*
X60298Y131376D01*
Y129377D01*
X59298Y128377D01*
X56299D01*
X58299D02*
X60298Y126378D01*
X66296D02*
X62297D01*
X66296Y130377D01*
Y131376D01*
X65296Y132376D01*
X63297D01*
X62297Y131376D01*
X175984Y116535D02*
Y122534D01*
X178983D01*
X179983Y121534D01*
Y119535D01*
X178983Y118535D01*
X175984D01*
X185981Y116535D02*
X181982D01*
X185981Y120534D01*
Y121534D01*
X184981Y122534D01*
X182982D01*
X181982Y121534D01*
X205118Y162992D02*
Y168990D01*
X208117D01*
X209117Y167991D01*
Y165991D01*
X208117Y164991D01*
X205118D01*
X211116Y162992D02*
X213116D01*
X212116D01*
Y168990D01*
X211116Y167991D01*
X5512Y86707D02*
Y80709D01*
X9510D01*
X15509Y86707D02*
X11510D01*
Y80709D01*
X15509D01*
X11510Y83708D02*
X13509D01*
X17508Y86707D02*
Y80709D01*
X20507D01*
X21507Y81708D01*
Y85707D01*
X20507Y86707D01*
X17508D01*
X23506Y85707D02*
X24506Y86707D01*
X26505D01*
X27505Y85707D01*
Y84707D01*
X26505Y83708D01*
X25505D01*
X26505D01*
X27505Y82708D01*
Y81708D01*
X26505Y80709D01*
X24506D01*
X23506Y81708D01*
X5512Y102455D02*
Y96457D01*
X9510D01*
X15509Y102455D02*
X11510D01*
Y96457D01*
X15509D01*
X11510Y99456D02*
X13509D01*
X17508Y102455D02*
Y96457D01*
X20507D01*
X21507Y97456D01*
Y101455D01*
X20507Y102455D01*
X17508D01*
X27505Y96457D02*
X23506D01*
X27505Y100455D01*
Y101455D01*
X26505Y102455D01*
X24506D01*
X23506Y101455D01*
X7480Y113872D02*
Y107874D01*
X11479D01*
X17477Y113872D02*
X13478D01*
Y107874D01*
X17477D01*
X13478Y110873D02*
X15478D01*
X19476Y113872D02*
Y107874D01*
X22476D01*
X23475Y108874D01*
Y112872D01*
X22476Y113872D01*
X19476D01*
X25475Y107874D02*
X27474D01*
X26474D01*
Y113872D01*
X25475Y112872D01*
X5512Y131195D02*
Y125197D01*
X9510D01*
X15509Y131195D02*
X11510D01*
Y125197D01*
X15509D01*
X11510Y128196D02*
X13509D01*
X17508Y131195D02*
Y125197D01*
X20507D01*
X21507Y126197D01*
Y130195D01*
X20507Y131195D01*
X17508D01*
X23506Y130195D02*
X24506Y131195D01*
X26505D01*
X27505Y130195D01*
Y126197D01*
X26505Y125197D01*
X24506D01*
X23506Y126197D01*
Y130195D01*
X92126Y49213D02*
Y51180D01*
X94094D01*
Y49213D01*
X92126D01*
D25*
X228150Y112205D02*
Y159449D01*
X194685Y112205D02*
X228150D01*
X194685Y159449D02*
X228150D01*
X194685Y112205D02*
Y159449D01*
X191535Y112205D02*
Y159449D01*
X158071Y112205D02*
X191535D01*
X158071Y159449D02*
X191535D01*
X158071Y112205D02*
Y159449D01*
X81102Y3937D02*
X81102Y3937D01*
X107480D01*
Y-15354D02*
Y3937D01*
Y-15354D02*
X108268D01*
X108661Y-15748D01*
Y-37795D02*
Y-15748D01*
Y-37795D02*
X126772D01*
Y-15354D01*
X128347D01*
Y3543D01*
X148425D01*
X81102Y3937D02*
Y40945D01*
X148031D01*
X148425Y40551D01*
Y3543D02*
Y40551D01*
X199606Y51968D02*
X205118D01*
Y84252D01*
X199606D02*
X205118D01*
X90551Y140551D02*
X135827D01*
X90551Y135039D02*
Y140551D01*
X135827Y135039D02*
Y140551D01*
Y116142D02*
Y121653D01*
X90551Y116142D02*
Y121653D01*
Y116142D02*
X135827D01*
D34*
X155512Y82874D02*
Y83661D01*
X159449Y82874D02*
Y83661D01*
X151772Y75590D02*
X152559D01*
X151772Y71653D02*
X152559D01*
X148819Y82874D02*
Y83661D01*
X152756Y82874D02*
Y83661D01*
X164764Y71653D02*
X165551D01*
X164764Y75590D02*
X165551D01*
X162205Y82874D02*
Y83661D01*
X166142Y82874D02*
Y83661D01*
X146457Y58071D02*
Y58858D01*
X150394Y58071D02*
Y58858D01*
X73721Y71653D02*
Y72047D01*
X79035Y71653D02*
Y72047D01*
X85827Y71457D02*
Y72244D01*
X81890Y71457D02*
Y72244D01*
X180709Y97146D02*
X181102D01*
X180709Y91831D02*
X181102D01*
X192421Y38976D02*
Y39370D01*
X187106Y38976D02*
Y39370D01*
X171358Y23622D02*
Y24016D01*
X176673Y23622D02*
Y24016D01*
X160236Y23425D02*
Y24213D01*
X156299Y23425D02*
Y24213D01*
X154724Y58071D02*
Y58858D01*
X158661Y58071D02*
Y58858D01*
X224311Y96358D02*
Y100098D01*
X224409Y96358D02*
X225541Y97490D01*
X223179D02*
X224311Y96358D01*
X177264Y106201D02*
X181004D01*
X179872Y107431D02*
X181004Y106299D01*
X179872Y105069D02*
X181004Y106201D01*
X219833Y42175D02*
X220571Y41437D01*
X219833Y40600D02*
X220571Y41339D01*
X172244Y38681D02*
Y39665D01*
X174409Y38681D02*
Y39665D01*
X40501Y127312D02*
X41240Y128050D01*
X41338Y128050D02*
X42076Y127312D01*
X40501Y112352D02*
X41240Y113090D01*
X41338Y113090D02*
X42076Y112352D01*
X40108Y97391D02*
X40846Y98129D01*
X40944Y98129D02*
X41682Y97391D01*
X39714Y82037D02*
X40452Y82775D01*
X40551Y82775D02*
X41289Y82037D01*
X49606Y82480D02*
Y83268D01*
X49213Y98228D02*
Y99016D01*
X48819Y112402D02*
Y113189D01*
Y127756D02*
Y128543D01*
X78347Y53347D02*
Y54134D01*
X212008Y30315D02*
X212795D01*
X123228Y149409D02*
Y150197D01*
X119291Y149409D02*
Y150197D01*
X104724D02*
Y150984D01*
X100787Y150197D02*
Y150984D01*
D35*
X203150Y46062D02*
Y42126D01*
X205118D01*
X205773Y42782D01*
Y45406D01*
X205118Y46062D01*
X203150D01*
X209053Y42126D02*
Y46062D01*
X207085Y44094D01*
X209709D01*
X220866Y28740D02*
Y32676D01*
X222834D01*
X223490Y32020D01*
Y30708D01*
X222834Y30052D01*
X220866D01*
X222178D02*
X223490Y28740D01*
X226770D02*
Y32676D01*
X224802Y30708D01*
X227426D01*
X87008Y50394D02*
X83072D01*
Y52362D01*
X83728Y53017D01*
X85040D01*
X85696Y52362D01*
Y50394D01*
Y51706D02*
X87008Y53017D01*
X83728Y54329D02*
X83072Y54985D01*
Y56297D01*
X83728Y56953D01*
X84384D01*
X85040Y56297D01*
Y55641D01*
Y56297D01*
X85696Y56953D01*
X86352D01*
X87008Y56297D01*
Y54985D01*
X86352Y54329D01*
X164962Y36876D02*
Y34252D01*
X166930D01*
Y35564D01*
Y34252D01*
X168898D01*
X164962Y38188D02*
X168898D01*
Y40156D01*
X168242Y40811D01*
X167586D01*
X166930Y40156D01*
Y38188D01*
Y40156D01*
X166274Y40811D01*
X165618D01*
X164962Y40156D01*
Y38188D01*
X168898Y42123D02*
Y43435D01*
Y42779D01*
X164962D01*
X165618Y42123D01*
X192126Y106298D02*
Y102362D01*
X194094D01*
X194750Y103018D01*
Y105642D01*
X194094Y106298D01*
X192126D01*
X196062Y105642D02*
X196718Y106298D01*
X198030D01*
X198686Y105642D01*
Y104986D01*
X198030Y104330D01*
X197374D01*
X198030D01*
X198686Y103674D01*
Y103018D01*
X198030Y102362D01*
X196718D01*
X196062Y103018D01*
X206693Y106692D02*
Y102756D01*
X208661D01*
X209317Y103412D01*
Y106036D01*
X208661Y106692D01*
X206693D01*
X213252Y102756D02*
X210629D01*
X213252Y105380D01*
Y106036D01*
X212597Y106692D01*
X211285D01*
X210629Y106036D01*
X165091Y60762D02*
X165747Y61418D01*
Y62730D01*
X165091Y63386D01*
X162467D01*
X161811Y62730D01*
Y61418D01*
X162467Y60762D01*
X161811Y59450D02*
Y58138D01*
Y58794D01*
X165747D01*
X165091Y59450D01*
X165747Y53547D02*
Y56170D01*
X163779D01*
X164435Y54858D01*
Y54202D01*
X163779Y53547D01*
X162467D01*
X161811Y54202D01*
Y55514D01*
X162467Y56170D01*
X156955Y15878D02*
X156299Y16534D01*
X154987D01*
X154331Y15878D01*
Y13254D01*
X154987Y12598D01*
X156299D01*
X156955Y13254D01*
X158266Y12598D02*
X159578D01*
X158922D01*
Y16534D01*
X158266Y15878D01*
X163514Y12598D02*
Y16534D01*
X161546Y14566D01*
X164170D01*
X183988Y24542D02*
X184644Y25197D01*
Y26509D01*
X183988Y27165D01*
X181365D01*
X180709Y26509D01*
Y25197D01*
X181365Y24542D01*
X180709Y23230D02*
Y21918D01*
Y22574D01*
X184644D01*
X183988Y23230D01*
Y19950D02*
X184644Y19294D01*
Y17982D01*
X183988Y17326D01*
X183333D01*
X182676Y17982D01*
Y18638D01*
Y17982D01*
X182021Y17326D01*
X181365D01*
X180709Y17982D01*
Y19294D01*
X181365Y19950D01*
X180185Y37269D02*
X179529Y36614D01*
Y35302D01*
X180185Y34646D01*
X182809D01*
X183465Y35302D01*
Y36614D01*
X182809Y37269D01*
X183465Y38581D02*
Y39893D01*
Y39237D01*
X179529D01*
X180185Y38581D01*
X183465Y44485D02*
Y41861D01*
X180841Y44485D01*
X180185D01*
X179529Y43829D01*
Y42517D01*
X180185Y41861D01*
X193962Y95406D02*
X193306Y96062D01*
X191995D01*
X191339Y95406D01*
Y92782D01*
X191995Y92126D01*
X193306D01*
X193962Y92782D01*
X195274Y92126D02*
X196586D01*
X195930D01*
Y96062D01*
X195274Y95406D01*
X198554Y92126D02*
X199866D01*
X199210D01*
Y96062D01*
X198554Y95406D01*
X82941Y81758D02*
X82285Y81102D01*
Y79790D01*
X82941Y79134D01*
X85565D01*
X86221Y79790D01*
Y81102D01*
X85565Y81758D01*
X86221Y83070D02*
Y84382D01*
Y83726D01*
X82285D01*
X82941Y83070D01*
Y86349D02*
X82285Y87005D01*
Y88317D01*
X82941Y88973D01*
X85565D01*
X86221Y88317D01*
Y87005D01*
X85565Y86349D01*
X82941D01*
X74673Y84120D02*
X74017Y83464D01*
Y82152D01*
X74673Y81496D01*
X77297D01*
X77953Y82152D01*
Y83464D01*
X77297Y84120D01*
Y85432D02*
X77953Y86088D01*
Y87400D01*
X77297Y88056D01*
X74673D01*
X74017Y87400D01*
Y86088D01*
X74673Y85432D01*
X75329D01*
X75985Y86088D01*
Y88056D01*
X110366Y152101D02*
X111022Y152757D01*
Y154069D01*
X110366Y154724D01*
X107743D01*
X107087Y154069D01*
Y152757D01*
X107743Y152101D01*
X110366Y150789D02*
X111022Y150133D01*
Y148821D01*
X110366Y148165D01*
X109710D01*
X109055Y148821D01*
X108398Y148165D01*
X107743D01*
X107087Y148821D01*
Y150133D01*
X107743Y150789D01*
X108398D01*
X109055Y150133D01*
X109710Y150789D01*
X110366D01*
X109055Y150133D02*
Y148821D01*
X129264Y151313D02*
X129920Y151969D01*
Y153281D01*
X129264Y153937D01*
X126640D01*
X125984Y153281D01*
Y151969D01*
X126640Y151313D01*
X129920Y150001D02*
Y147377D01*
X129264D01*
X126640Y150001D01*
X125984D01*
X147506Y49343D02*
X146850Y49999D01*
X145538D01*
X144882Y49343D01*
Y46719D01*
X145538Y46063D01*
X146850D01*
X147506Y46719D01*
X151442Y49999D02*
X150129Y49343D01*
X148818Y48031D01*
Y46719D01*
X149474Y46063D01*
X150786D01*
X151442Y46719D01*
Y47375D01*
X150786Y48031D01*
X148818D01*
X163647Y69028D02*
X162991Y69684D01*
X161680D01*
X161024Y69028D01*
Y66404D01*
X161680Y65748D01*
X162991D01*
X163647Y66404D01*
X166927Y65748D02*
Y69684D01*
X164959Y67716D01*
X167583D01*
X151049Y69028D02*
X150393Y69684D01*
X149081D01*
X148425Y69028D01*
Y66404D01*
X149081Y65748D01*
X150393D01*
X151049Y66404D01*
X154985Y65748D02*
X152361D01*
X154985Y68372D01*
Y69028D01*
X154329Y69684D01*
X153017D01*
X152361Y69028D01*
X156169Y93569D02*
X155513Y92913D01*
Y91601D01*
X156169Y90945D01*
X158793D01*
X159449Y91601D01*
Y92913D01*
X158793Y93569D01*
X159449Y94881D02*
Y96193D01*
Y95537D01*
X155513D01*
X156169Y94881D01*
X149870Y93175D02*
X149214Y92519D01*
Y91207D01*
X149870Y90551D01*
X152494D01*
X153150Y91207D01*
Y92519D01*
X152494Y93175D01*
X149870Y94487D02*
X149214Y95143D01*
Y96455D01*
X149870Y97111D01*
X150526D01*
X151182Y96455D01*
Y95799D01*
Y96455D01*
X151838Y97111D01*
X152494D01*
X153150Y96455D01*
Y95143D01*
X152494Y94487D01*
X162862Y93569D02*
X162206Y92913D01*
Y91601D01*
X162862Y90945D01*
X165486D01*
X166142Y91601D01*
Y92913D01*
X165486Y93569D01*
X162206Y97504D02*
Y94881D01*
X164174D01*
X163518Y96193D01*
Y96848D01*
X164174Y97504D01*
X165486D01*
X166142Y96848D01*
Y95537D01*
X165486Y94881D01*
M02*
