%FSLAX25Y25*%
%MOIN*%
G70*
G01*
G75*
G04 Layer_Physical_Order=1*
G04 Layer_Color=255*
%ADD10R,0.04331X0.03937*%
%ADD11R,0.03937X0.04331*%
%ADD12R,0.05906X0.05118*%
%ADD13R,0.05118X0.05906*%
%ADD14R,0.06614X0.05984*%
%ADD15R,0.05984X0.06614*%
%ADD16R,0.04724X0.04724*%
%ADD17R,0.02756X0.02756*%
%ADD18R,0.04724X0.04724*%
%ADD19R,0.05906X0.01181*%
%ADD20R,0.01181X0.05906*%
%ADD21R,0.22047X0.22047*%
%ADD22R,0.07874X0.04724*%
%ADD23R,0.21654X0.07874*%
%ADD24C,0.01000*%
%ADD25C,0.01969*%
%ADD26C,0.02756*%
%ADD27C,0.03937*%
%ADD28C,0.07874*%
%ADD29R,0.07874X0.07874*%
%ADD30R,0.05906X0.05906*%
%ADD31C,0.05906*%
%ADD32C,0.05000*%
G36*
X133858Y57087D02*
X100260D01*
X100068Y57549D01*
X100394Y57874D01*
Y90945D01*
X133858D01*
Y57087D01*
D02*
G37*
D10*
X157480Y79921D02*
D03*
Y86614D02*
D03*
X150787Y79921D02*
D03*
Y86614D02*
D03*
X164173Y79921D02*
D03*
Y86614D02*
D03*
X148425Y55118D02*
D03*
Y61811D02*
D03*
X83858Y75197D02*
D03*
Y68504D02*
D03*
X158268Y27165D02*
D03*
Y20472D02*
D03*
X156693Y55118D02*
D03*
Y61811D02*
D03*
X49606Y79528D02*
D03*
Y86221D02*
D03*
X49213Y95276D02*
D03*
Y101969D02*
D03*
X48819Y109449D02*
D03*
Y116142D02*
D03*
Y124803D02*
D03*
Y131496D02*
D03*
X78347Y50394D02*
D03*
Y57087D02*
D03*
X121260Y153150D02*
D03*
Y146457D02*
D03*
X102756Y153937D02*
D03*
Y147244D02*
D03*
D11*
X148819Y73622D02*
D03*
X155512D02*
D03*
X168504D02*
D03*
X161811D02*
D03*
X215748Y30315D02*
D03*
X209055D02*
D03*
D12*
X76378Y75590D02*
D03*
Y68110D02*
D03*
X189764Y35433D02*
D03*
Y42913D02*
D03*
X174016Y27559D02*
D03*
Y20079D02*
D03*
D13*
X184646Y94488D02*
D03*
X177165D02*
D03*
D14*
X222441Y105118D02*
D03*
Y91535D02*
D03*
D15*
X172244Y104331D02*
D03*
X185827D02*
D03*
D16*
X224410Y41339D02*
D03*
X216142D02*
D03*
D17*
X173228Y36220D02*
D03*
Y42126D02*
D03*
D18*
X41338Y131889D02*
D03*
Y123621D02*
D03*
Y116928D02*
D03*
Y108661D02*
D03*
X40944Y101968D02*
D03*
Y93700D02*
D03*
X40551Y86613D02*
D03*
Y78346D02*
D03*
D19*
X94606Y59173D02*
D03*
Y61142D02*
D03*
Y63110D02*
D03*
Y65079D02*
D03*
Y67047D02*
D03*
Y69016D02*
D03*
Y70984D02*
D03*
Y72953D02*
D03*
Y74921D02*
D03*
Y76890D02*
D03*
Y78858D02*
D03*
Y80827D02*
D03*
Y82795D02*
D03*
Y84764D02*
D03*
Y86732D02*
D03*
Y88701D02*
D03*
X139106Y59339D02*
D03*
Y61307D02*
D03*
Y63276D02*
D03*
Y65244D02*
D03*
Y67213D02*
D03*
Y69181D02*
D03*
Y71150D02*
D03*
Y73118D02*
D03*
Y75087D02*
D03*
Y77055D02*
D03*
Y79024D02*
D03*
Y80992D02*
D03*
Y82961D02*
D03*
Y84929D02*
D03*
Y86898D02*
D03*
Y88866D02*
D03*
D20*
X102106Y95866D02*
D03*
X104075D02*
D03*
X106043D02*
D03*
X108012D02*
D03*
X109980D02*
D03*
X111949D02*
D03*
X113917D02*
D03*
X115886D02*
D03*
X117854D02*
D03*
X119823D02*
D03*
X121791D02*
D03*
X123760D02*
D03*
X125728D02*
D03*
X127697D02*
D03*
X129665D02*
D03*
X131634D02*
D03*
X102079Y52173D02*
D03*
X104047D02*
D03*
X106016D02*
D03*
X107984D02*
D03*
X109953D02*
D03*
X111921D02*
D03*
X113890D02*
D03*
X115858D02*
D03*
X117827D02*
D03*
X119795D02*
D03*
X121764D02*
D03*
X123732D02*
D03*
X125701D02*
D03*
X127669D02*
D03*
X129638D02*
D03*
X131606D02*
D03*
D21*
X190551Y68110D02*
D03*
D22*
X218898Y58268D02*
D03*
Y75984D02*
D03*
D23*
X131496Y128347D02*
D03*
X94095D02*
D03*
D24*
X117764Y95957D02*
X117854Y95866D01*
X119823D02*
X119913Y95957D01*
X117854Y95866D02*
X117945Y95957D01*
X26772Y121653D02*
X26772D01*
X115886Y95866D02*
X115976Y95957D01*
X117736Y52083D02*
X117827Y52173D01*
X139106Y65244D02*
X139197Y65153D01*
X124806Y77055D02*
X139106D01*
X127697Y95866D02*
X127787Y95776D01*
X121791Y82815D02*
Y95866D01*
X139106Y77055D02*
X139197Y76965D01*
X145476D01*
X139106Y63276D02*
X139197Y63185D01*
X117764Y95957D02*
Y104283D01*
X142913Y9843D02*
Y40866D01*
X131606Y52173D02*
X142913Y40866D01*
X113799Y52083D02*
X113890Y52173D01*
X41338Y131889D02*
Y133284D01*
X40371Y134251D02*
X41338Y133284D01*
X39369Y134251D02*
X40371D01*
X42864D01*
X40550Y86614D02*
X40551Y86613D01*
X49606Y86221D02*
X61811D01*
X63268Y84764D01*
X94606D01*
X49213Y101969D02*
X52756D01*
X67992Y86732D01*
X94606D01*
X48819Y116142D02*
X76260Y88701D01*
X94606D01*
X40551Y78346D02*
X48424D01*
X49606Y79528D01*
X40944Y93700D02*
X47637D01*
X49213Y95276D01*
X41338Y108661D02*
X48031D01*
X48819Y109449D01*
X41338Y123621D02*
X47637D01*
X48819Y124803D01*
X78347Y57087D02*
X83465D01*
X89370Y62992D01*
Y72347D01*
X89976Y72953D01*
X94606D01*
X83858Y75012D02*
Y75197D01*
X94516Y75012D02*
X94606Y74921D01*
X76772Y75197D02*
X83858D01*
X76378Y75590D02*
X76772Y75197D01*
X83858Y75012D02*
X94516D01*
X94606Y72953D02*
X118886D01*
X119795Y52173D02*
Y72044D01*
Y80819D02*
X121791Y82815D01*
X119795Y72044D02*
Y80819D01*
Y72044D02*
X124806Y77055D01*
X127787Y80036D01*
Y95776D01*
X145476Y76965D02*
X148819Y73622D01*
X144095Y59449D02*
X148425Y55118D01*
X144095Y59449D02*
Y62598D01*
X143417Y63276D02*
X144095Y62598D01*
X139106Y63276D02*
X143417D01*
X113890Y48535D02*
Y52173D01*
X112598Y47244D02*
X113890Y48535D01*
X81496Y47244D02*
X112598D01*
X78347Y50394D02*
X81496Y47244D01*
X127669Y16646D02*
Y52173D01*
X129638Y12315D02*
Y52173D01*
X57323Y24161D02*
Y25157D01*
X67323Y40157D02*
X68110D01*
X78347Y50394D01*
X140551Y7480D02*
X142913Y9843D01*
X74003Y7480D02*
X140551D01*
X57323Y24161D02*
X74003Y7480D01*
X127953Y10630D02*
X129638Y12315D01*
X76850Y10630D02*
X127953D01*
X67323Y20157D02*
X76850Y10630D01*
X124409Y13386D02*
X127669Y16646D01*
X101969Y13386D02*
X124409D01*
X95669Y19685D02*
X101969Y13386D01*
X117827Y32394D02*
Y52173D01*
X106043Y95866D02*
Y99468D01*
X104331Y101181D02*
X106043Y99468D01*
X79134Y101181D02*
X104331D01*
X48819Y131496D02*
X79134Y101181D01*
X139106Y75087D02*
X142502D01*
X143966Y73622D01*
Y66270D02*
Y73622D01*
X139106Y65244D02*
X144772D01*
X144882Y65354D01*
X143966Y66270D02*
X144882Y65354D01*
X148425Y61811D01*
X145476Y76965D02*
X148433Y79921D01*
X150787D01*
X115886Y95866D02*
Y100256D01*
X113173Y102969D02*
X115886Y100256D01*
X82071Y102969D02*
X113173D01*
X61811Y123228D02*
X82071Y102969D01*
X131496Y128347D02*
Y136221D01*
X121260Y146457D02*
X131496Y136221D01*
X94095Y138583D02*
X102756Y147244D01*
X94095Y127953D02*
Y128347D01*
Y138583D01*
X117291Y104756D02*
X117764Y104283D01*
X107843Y104756D02*
X117291D01*
X105118Y107480D02*
X107843Y104756D01*
X119823Y95866D02*
Y99350D01*
X124803Y104331D01*
X126378D01*
X98819Y123228D02*
X109449D01*
X94095Y127953D02*
X98819Y123228D01*
X116535Y122835D02*
X125984D01*
X131496Y128347D01*
X61811Y123228D02*
Y130315D01*
D25*
X26772Y121653D02*
Y126378D01*
X37508Y137114D01*
X40371Y134251D01*
X31497Y116928D02*
X41338D01*
X26772Y121653D02*
X31497Y116928D01*
X35040Y101968D02*
X40944D01*
X26772Y110236D02*
X35040Y101968D01*
X26772Y110236D02*
Y121653D01*
X34646Y86614D02*
X40550D01*
X26772Y94488D02*
X34646Y86614D01*
X26772Y71653D02*
Y94488D01*
Y110236D01*
X150787Y79921D02*
X157480D01*
X164173D01*
X155512Y73622D02*
X161811D01*
X169685Y42126D02*
X173228D01*
X148425Y55118D02*
X156693D01*
X148425Y61811D02*
X149213Y62598D01*
X155512Y62992D02*
X155905Y62598D01*
X156693Y61811D01*
X57323Y35157D02*
Y43071D01*
X71339Y57087D01*
X78347D01*
X115354Y19685D02*
Y29921D01*
X36220Y62205D02*
X48425D01*
X26772Y71653D02*
X36220Y62205D01*
X48425D02*
X70472D01*
X76378Y68110D01*
X115354Y29921D02*
X116591Y31157D01*
X117827Y32394D01*
X76378Y68110D02*
X83465D01*
X164173Y79921D02*
X168504Y75590D01*
X147638Y89764D02*
X150787Y86614D01*
X156693Y55118D02*
X169685Y42126D01*
X62205Y137402D02*
X78740Y153937D01*
X120472D02*
X120866Y153543D01*
X143307D02*
X147638Y149213D01*
X78740Y153937D02*
X102756D01*
X120472D01*
X120866Y153543D02*
X143307D01*
X190551Y57480D02*
Y68110D01*
X144882Y109843D02*
X147638Y107087D01*
X117323Y109843D02*
X144882D01*
X114567Y112598D02*
X117323Y109843D01*
X79527Y112598D02*
X114567D01*
X61811Y130315D02*
X79527Y112598D01*
X147638Y89764D02*
Y107087D01*
X61811Y137114D02*
Y137402D01*
Y130315D02*
Y137114D01*
X145276Y115748D02*
X147638Y113386D01*
X84252Y115748D02*
X145276D01*
X62598Y137402D02*
X84252Y115748D01*
X147638Y107087D02*
Y113386D01*
Y149213D01*
X61811Y137402D02*
X62205D01*
X62598D01*
X37508Y137114D02*
X61811D01*
D26*
X155118Y27165D02*
X158268D01*
X146850Y18898D02*
X155118Y27165D01*
X146850Y7480D02*
Y18898D01*
X143307Y3937D02*
X146850Y7480D01*
X185827Y95669D02*
Y104331D01*
X184646Y94488D02*
X185827Y95669D01*
X184646Y94488D02*
X205118D01*
X208071Y91535D01*
X222441D01*
Y85433D02*
Y91535D01*
X218898Y81890D02*
X222441Y85433D01*
X218898Y75984D02*
Y81890D01*
X215748Y30315D02*
Y40945D01*
X204331Y30315D02*
X209055D01*
X199213Y35433D02*
X204331Y30315D01*
X189764Y35433D02*
X199213D01*
X135937Y56189D02*
X158268Y33858D01*
Y27165D02*
Y33858D01*
X119795Y72044D02*
X135257Y56583D01*
X174016Y27559D02*
Y32283D01*
X173228Y33071D02*
X174016Y32283D01*
X173228Y33071D02*
Y36220D01*
X49213Y3937D02*
X143307D01*
X46850Y6299D02*
X49213Y3937D01*
X46850Y6299D02*
Y24685D01*
X57323Y35157D01*
X158268Y27165D02*
X174262D01*
X209055Y30315D02*
Y66142D01*
X218898Y75984D01*
D27*
X215354Y130709D02*
X222441Y123622D01*
Y105118D02*
Y123622D01*
X172244Y124213D02*
X178740Y130709D01*
X172244Y104331D02*
Y124213D01*
X224410Y41339D02*
Y52756D01*
X218898Y58268D02*
X224410Y52756D01*
Y25197D02*
Y41339D01*
X220472Y21260D02*
X224410Y25197D01*
X200000Y21260D02*
X220472D01*
X188189Y20079D02*
X189370Y21260D01*
X174016Y20079D02*
X188189D01*
X158661D02*
X174016D01*
X158268Y20472D02*
X158661Y20079D01*
X155512Y68898D02*
Y73622D01*
Y62992D02*
Y68898D01*
X150787Y86614D02*
X157480D01*
X164173D01*
X169291D01*
X149213Y62598D02*
X155905D01*
X149213D02*
X155512Y68898D01*
X172835Y62598D02*
Y63779D01*
X175197Y66142D01*
Y92520D01*
X169291Y86614D02*
X175197Y92520D01*
X177165Y94488D01*
X155905Y62598D02*
X172835D01*
X177559Y44488D02*
X190551Y57480D01*
X177559Y31102D02*
Y44488D01*
X174016Y27559D02*
X177559Y31102D01*
X184055Y39134D02*
X185670Y40748D01*
X184055Y29724D02*
Y39134D01*
Y29724D02*
X192520Y21260D01*
X189370D02*
X192520D01*
X200000D01*
X185670Y40748D02*
X187598D01*
X189764Y42913D01*
D28*
X201575Y150394D02*
D03*
X164961D02*
D03*
D29*
X215354Y130709D02*
D03*
X178740D02*
D03*
D30*
X95669Y19685D02*
D03*
X115354D02*
D03*
X135039D02*
D03*
D31*
X57323Y15157D02*
D03*
Y25157D02*
D03*
X67323Y20157D02*
D03*
Y30158D02*
D03*
X57323Y35157D02*
D03*
X67323Y40157D02*
D03*
D32*
X61811Y137402D02*
D03*
X172835Y62598D02*
D03*
X200000Y21260D02*
D03*
X48425Y62205D02*
D03*
X116591Y31157D02*
D03*
X162992Y48819D02*
D03*
X126378Y104331D02*
D03*
X105118Y107480D02*
D03*
X109449Y123228D02*
D03*
X116535Y122835D02*
D03*
M02*
