%FSLAX44Y44*%
%MOMM*%
G71*
G01*
G75*
G04 Layer_Physical_Order=1*
G04 Layer_Color=255*
%ADD10R,1.4000X0.6500*%
%ADD11R,1.7800X0.4200*%
%ADD12R,1.0000X1.1000*%
%ADD13R,1.1000X1.0000*%
%ADD14R,0.3000X1.4000*%
%ADD15R,1.1000X1.9000*%
%ADD16R,0.6000X1.4000*%
%ADD17R,1.4500X0.5500*%
%ADD18R,0.5500X1.4500*%
%ADD19R,1.7000X0.6500*%
%ADD20R,0.8000X0.8000*%
%ADD21R,3.5000X2.6000*%
%ADD22C,1.0000*%
%ADD23C,0.2540*%
%ADD24C,0.3000*%
%ADD25C,0.7000*%
%ADD26C,0.4000*%
%ADD27C,0.5000*%
%ADD28C,0.6000*%
%ADD29C,4.0000*%
%ADD30R,1.5000X1.5000*%
%ADD31C,1.5000*%
%ADD32C,2.5000*%
%ADD33C,1.5240*%
%ADD34C,1.9000*%
%ADD35C,1.6000*%
%ADD36C,1.2700*%
G36*
X318164Y168297D02*
X318216Y168169D01*
X319555Y166425D01*
X320430Y165753D01*
Y164760D01*
Y126101D01*
X319040D01*
X317213Y125860D01*
X315510Y125155D01*
X314048Y124032D01*
X307916Y117900D01*
X305840D01*
Y130840D01*
X302174D01*
Y138020D01*
X306140D01*
Y161020D01*
X301974D01*
Y164760D01*
X301721Y166036D01*
X300998Y167118D01*
X296909Y171207D01*
X297395Y172380D01*
X314080D01*
X318164Y168297D01*
D02*
G37*
G36*
X295306Y163379D02*
Y161020D01*
X291140D01*
Y138020D01*
X295506D01*
Y130840D01*
X291840D01*
Y115840D01*
X296559D01*
X297085Y114570D01*
X293848Y111333D01*
X292726Y109870D01*
X292020Y108167D01*
X291780Y106340D01*
X292020Y104513D01*
X292726Y102810D01*
X293848Y101348D01*
X295310Y100226D01*
X297013Y99520D01*
X298840Y99280D01*
X300667Y99520D01*
X302370Y100226D01*
X303833Y101348D01*
X306265Y103780D01*
X310840D01*
X312668Y104020D01*
X314370Y104726D01*
X315833Y105848D01*
X319257Y109272D01*
X320430Y108786D01*
Y102530D01*
X316620Y98720D01*
X312810Y94910D01*
X259470D01*
Y171110D01*
X260740Y172380D01*
X270306D01*
Y161020D01*
X266140D01*
Y138020D01*
X270306D01*
Y132110D01*
X266440D01*
Y117110D01*
X280440D01*
Y132110D01*
X276974D01*
Y138020D01*
X281140D01*
Y161020D01*
X276974D01*
Y172380D01*
X286305D01*
X295306Y163379D01*
D02*
G37*
G36*
X395360Y444160D02*
Y442890D01*
Y367960D01*
X396630Y366690D01*
X389010Y359070D01*
X312810D01*
X306460Y365420D01*
Y449240D01*
X390280D01*
X395360Y444160D01*
D02*
G37*
G36*
X145000Y357082D02*
Y295205D01*
X119000D01*
Y358000D01*
X144150D01*
X145000Y357082D01*
D02*
G37*
D10*
X205210Y696810D02*
D03*
Y706310D02*
D03*
Y715810D02*
D03*
X173710Y706310D02*
D03*
Y696810D02*
D03*
Y715810D02*
D03*
X283970Y707050D02*
D03*
Y716550D02*
D03*
Y726050D02*
D03*
X252470Y716550D02*
D03*
Y707050D02*
D03*
Y726050D02*
D03*
D11*
X101010Y369230D02*
D03*
Y362730D02*
D03*
Y356230D02*
D03*
Y349730D02*
D03*
Y343230D02*
D03*
Y336730D02*
D03*
Y330230D02*
D03*
Y323730D02*
D03*
Y317230D02*
D03*
Y310730D02*
D03*
Y304230D02*
D03*
Y297730D02*
D03*
X160410Y369230D02*
D03*
Y362730D02*
D03*
Y356230D02*
D03*
Y349730D02*
D03*
Y343230D02*
D03*
Y336730D02*
D03*
Y330230D02*
D03*
Y323730D02*
D03*
Y317230D02*
D03*
Y310730D02*
D03*
Y304230D02*
D03*
Y297730D02*
D03*
D12*
X569350Y253660D02*
D03*
Y236660D02*
D03*
Y216830D02*
D03*
Y199830D02*
D03*
X364880Y95400D02*
D03*
Y78400D02*
D03*
X348370Y307000D02*
D03*
Y290000D02*
D03*
X449970Y461940D02*
D03*
Y478940D02*
D03*
Y494960D02*
D03*
Y511960D02*
D03*
X429650Y508930D02*
D03*
Y525930D02*
D03*
X432190Y399710D02*
D03*
Y416710D02*
D03*
X207380Y752690D02*
D03*
Y769690D02*
D03*
X183250Y752690D02*
D03*
Y769690D02*
D03*
X157850Y752690D02*
D03*
Y769690D02*
D03*
X134990Y752690D02*
D03*
Y769690D02*
D03*
X110860Y752690D02*
D03*
Y769690D02*
D03*
X249330Y753960D02*
D03*
Y770960D02*
D03*
X276000Y753960D02*
D03*
Y770960D02*
D03*
X297570Y753960D02*
D03*
Y770960D02*
D03*
X325530Y753960D02*
D03*
Y770960D02*
D03*
X350930Y753960D02*
D03*
Y770960D02*
D03*
X253120Y671490D02*
D03*
Y688490D02*
D03*
X273440Y107610D02*
D03*
Y124610D02*
D03*
X298840Y106340D02*
D03*
Y123340D02*
D03*
D13*
X378360Y118260D02*
D03*
X395360D02*
D03*
X342020Y119040D02*
D03*
X359020D02*
D03*
X392820Y508930D02*
D03*
X409820D02*
D03*
X524900Y402250D02*
D03*
X541900D02*
D03*
X524900Y381930D02*
D03*
X541900D02*
D03*
X458860Y248580D02*
D03*
X441860D02*
D03*
X109610Y698160D02*
D03*
X126610D02*
D03*
X114670Y726020D02*
D03*
X131670D02*
D03*
X340750Y705780D02*
D03*
X323750D02*
D03*
X317890Y726100D02*
D03*
X334890D02*
D03*
X132470Y675300D02*
D03*
X115470D02*
D03*
D14*
X296140Y240100D02*
D03*
X291140D02*
D03*
X286140D02*
D03*
X281140D02*
D03*
X276140D02*
D03*
X296140Y196100D02*
D03*
X291140D02*
D03*
X286140D02*
D03*
X281140D02*
D03*
X276140D02*
D03*
D15*
X298640Y149520D02*
D03*
X273640D02*
D03*
D16*
X559800Y510070D02*
D03*
X540800D02*
D03*
X550300Y486070D02*
D03*
X559800Y461810D02*
D03*
X540800D02*
D03*
X550300Y437810D02*
D03*
D17*
X294910Y444790D02*
D03*
Y436790D02*
D03*
Y428790D02*
D03*
Y420790D02*
D03*
Y412790D02*
D03*
Y404790D02*
D03*
Y396790D02*
D03*
Y388790D02*
D03*
Y380790D02*
D03*
Y372790D02*
D03*
Y364790D02*
D03*
X406910D02*
D03*
Y372790D02*
D03*
Y380790D02*
D03*
Y388790D02*
D03*
Y396790D02*
D03*
Y404790D02*
D03*
Y412790D02*
D03*
Y420790D02*
D03*
Y428790D02*
D03*
Y436790D02*
D03*
Y444790D02*
D03*
D18*
X310910Y348790D02*
D03*
X318910D02*
D03*
X326910D02*
D03*
X334910D02*
D03*
X342910D02*
D03*
X350910D02*
D03*
X358910D02*
D03*
X366910D02*
D03*
X374910D02*
D03*
X382910D02*
D03*
X390910D02*
D03*
Y460790D02*
D03*
X382910D02*
D03*
X374910D02*
D03*
X366910D02*
D03*
X358910D02*
D03*
X350910D02*
D03*
X342910D02*
D03*
X334910D02*
D03*
X326910D02*
D03*
X318910D02*
D03*
X310910D02*
D03*
D19*
X345830Y248580D02*
D03*
Y235880D02*
D03*
Y223180D02*
D03*
Y210480D02*
D03*
X418830Y248580D02*
D03*
Y235880D02*
D03*
Y223180D02*
D03*
Y210480D02*
D03*
D20*
X560460Y676930D02*
D03*
Y699430D02*
D03*
D21*
X156600Y252390D02*
D03*
Y41390D02*
D03*
D22*
Y71000D01*
X369960Y549570D02*
X411870D01*
X362340Y541950D02*
X369960Y549570D01*
X362340Y526710D02*
Y541950D01*
X392820Y508930D02*
Y520360D01*
X386470Y526710D02*
X392820Y520360D01*
X362340Y526710D02*
X386470D01*
X160410Y365330D02*
X170660Y375580D01*
X182000D01*
X121040Y422570D02*
Y480990D01*
X89290Y390820D02*
X121040Y422570D01*
X88020Y390820D02*
X89290D01*
X94370Y507660D02*
X121040Y480990D01*
X625840Y490540D02*
X626500Y489880D01*
X550300Y437810D02*
X551570Y436540D01*
X565540D01*
X432190Y399710D02*
X485530D01*
X524900Y360340D01*
X598560Y286680D02*
X620150D01*
X524900Y360340D02*
Y381930D01*
Y360340D02*
X598560Y286680D01*
X449970Y511960D02*
Y530520D01*
X429650Y525930D02*
Y541950D01*
X298840Y106340D02*
X303340Y110840D01*
X310840D01*
X319040Y119040D01*
X342020D01*
X490660Y17440D02*
X531486D01*
X451240D02*
X490660D01*
X491363D01*
X475420Y32680D02*
X490660Y17440D01*
X253120D02*
X451240D01*
X231530Y275250D02*
Y277790D01*
Y39030D02*
Y275250D01*
X99450Y17440D02*
X253120D01*
X231530Y39030D02*
X253120Y17440D01*
X658250Y502580D02*
Y724830D01*
Y318430D02*
Y502580D01*
X599620Y783460D02*
X658250Y724830D01*
X82050Y783460D02*
X599620D01*
X56440Y757850D02*
X82050Y783460D01*
X41030Y757850D02*
X56440D01*
X16900Y733720D02*
X41030Y757850D01*
X16900Y139360D02*
Y733720D01*
Y139360D02*
X65160Y91100D01*
Y59594D02*
Y91100D01*
Y59594D02*
X67550Y57204D01*
Y49340D02*
Y57204D01*
Y49340D02*
X99450Y17440D01*
X531486D02*
X588636Y74590D01*
X636660D01*
X658250Y96180D01*
Y318430D01*
X626500Y286680D02*
X658250Y318430D01*
X644280Y516550D02*
X658250Y502580D01*
X615070Y516550D02*
X644280D01*
X564270Y567350D02*
X615070Y516550D01*
X297570Y567350D02*
X564270D01*
X94370Y507660D02*
Y544490D01*
X206130Y690540D02*
X216290Y680380D01*
X206130Y690540D02*
Y695140D01*
X298840Y707050D02*
X317890Y726100D01*
X312810Y738800D02*
Y770550D01*
Y738800D02*
X317890Y733720D01*
Y726100D02*
Y733720D01*
X361070Y714670D02*
Y743820D01*
X352180Y705780D02*
X361070Y714670D01*
X340750Y705780D02*
X352180D01*
X325530Y753960D02*
X350930D01*
X361070Y743820D01*
X340750Y635930D02*
Y705780D01*
X203590Y734990D02*
Y748900D01*
X221791Y716550D02*
X225790Y712551D01*
X221781Y716560D02*
X221791Y716550D01*
X225790Y712551D02*
Y715280D01*
X99450Y651170D02*
Y688000D01*
Y651170D02*
X135010Y615610D01*
X199800Y752690D02*
X203590Y748900D01*
X183250Y752690D02*
X199800D01*
X225790Y690410D02*
Y712551D01*
Y690410D02*
X229640Y686560D01*
Y618770D02*
Y686560D01*
Y618770D02*
X260740Y587670D01*
X483790D01*
X99450Y688000D02*
X109610Y698160D01*
X82940Y737530D02*
Y764200D01*
X433460Y729910D02*
X449970Y746420D01*
X547760D01*
X560460Y733720D01*
Y699430D02*
Y733720D01*
X451470Y667910D02*
X510930Y727370D01*
X433460Y667910D02*
X451470D01*
X510930Y676570D02*
X609990D01*
X626500Y693080D01*
X510930Y614810D02*
Y676570D01*
X483790Y587670D02*
X510930Y614810D01*
X94450Y726020D02*
X114670D01*
X82940Y737530D02*
X94450Y726020D01*
X88430Y769690D02*
X110860D01*
X368690Y770550D02*
X383460Y755780D01*
Y698910D02*
Y755780D01*
X402460Y698910D02*
X433460Y729910D01*
X383460Y698910D02*
X402460D01*
X111720Y770550D02*
X312810D01*
X282700Y705780D02*
X297570D01*
X312810Y770550D02*
X368690D01*
D23*
X471560Y66920D02*
Y260010D01*
X462720Y58080D02*
X471560Y66920D01*
X358910Y335830D02*
X361070Y333670D01*
Y290490D02*
Y333670D01*
Y290490D02*
X378850Y272710D01*
X371230Y323510D02*
Y329860D01*
X382910Y297860D02*
Y348790D01*
X366910Y334180D02*
X371230Y329860D01*
X358910Y335830D02*
Y348790D01*
X331860Y295570D02*
Y336710D01*
Y295570D02*
X339480Y287950D01*
X331860Y336710D02*
X334910Y339760D01*
Y348790D01*
X326910Y332978D02*
Y348790D01*
X324240Y330308D02*
X326910Y332978D01*
X324240Y304023D02*
Y330308D01*
X318910Y313350D02*
Y348790D01*
X324240Y304023D02*
X326910Y301353D01*
Y285540D02*
Y301353D01*
X298640Y149520D02*
X298840Y149320D01*
Y123340D02*
Y149320D01*
X273440Y124610D02*
X273640Y124810D01*
Y149520D01*
X298640D02*
X298640Y149520D01*
Y164760D01*
X364880Y78400D02*
X364880Y78400D01*
Y58080D02*
Y78400D01*
X269630Y218100D02*
Y339510D01*
X294270Y364150D01*
X390910Y348790D02*
X391550Y348150D01*
Y300650D02*
Y348150D01*
Y300650D02*
X405520Y286680D01*
X465210D01*
X513520Y238370D01*
Y58080D02*
Y238370D01*
X366910Y334180D02*
Y348790D01*
X328050Y251120D02*
Y263820D01*
Y251120D02*
X330590Y248580D01*
X345830D01*
X382910Y297860D02*
X400440Y280330D01*
X460130D01*
X500820Y239640D01*
Y32680D02*
Y239640D01*
X378850Y272710D02*
X458860D01*
X471560Y260010D01*
X358530Y118260D02*
X378360D01*
X358530Y101750D02*
Y118260D01*
Y101750D02*
X364880Y95400D01*
X317890Y178730D02*
X324875Y171745D01*
X347100Y270170D02*
X394090Y223180D01*
X339480Y277790D02*
X347100Y270170D01*
X286140Y281600D02*
X293760Y289220D01*
X286140Y240100D02*
Y281600D01*
X339480Y277790D02*
Y287950D01*
X394090Y223180D02*
X418830D01*
X363610Y235880D02*
X371230Y228260D01*
X345830Y235880D02*
X363610D01*
X310270Y304710D02*
X318910Y313350D01*
X310270Y277790D02*
Y304710D01*
X291140Y258660D02*
X310270Y277790D01*
X389010Y211750D02*
X390280Y210480D01*
X418830D01*
X281140Y298190D02*
X310270Y327320D01*
X281140Y240100D02*
Y298190D01*
X310270Y327320D02*
Y348150D01*
X296140Y254770D02*
X326910Y285540D01*
X296140Y240100D02*
Y254770D01*
X291140Y240100D02*
Y258660D01*
X306460Y183810D02*
X311540Y188890D01*
X293760Y183810D02*
X306460D01*
X291140Y186430D02*
X293760Y183810D01*
X291140Y186430D02*
Y196100D01*
X286140Y183681D02*
Y196100D01*
Y183681D02*
X291091Y178730D01*
X317890D01*
X276140Y183970D02*
Y196100D01*
X273640Y181470D02*
X276140Y183970D01*
X273640Y149520D02*
Y181470D01*
X281140Y196100D02*
X281370Y195870D01*
Y182030D02*
Y195870D01*
Y182030D02*
X298640Y164760D01*
D24*
X122160Y362730D02*
X139355Y379925D01*
Y452085D02*
X171840Y484570D01*
X139355Y379925D02*
Y452085D01*
X350910Y404790D02*
X408060Y461940D01*
X318910Y460790D02*
Y469810D01*
X314080Y474640D02*
X318910Y469810D01*
X193430Y474640D02*
X314080D01*
X326710Y484640D02*
X334910Y476440D01*
X323050Y479640D02*
X326910Y475780D01*
X191359Y479640D02*
X323050D01*
X189288Y484640D02*
X326710D01*
X171840Y484570D02*
X189218D01*
X189288Y484640D01*
X191289Y479570D02*
X191359Y479640D01*
X181850Y479570D02*
X191289D01*
X161680Y442890D02*
X193430Y474640D01*
X303410Y468290D02*
X310910Y460790D01*
X208670Y468290D02*
X303410D01*
X164220Y423840D02*
X208670Y468290D01*
X162950Y423840D02*
X164220D01*
X326910Y460790D02*
Y475780D01*
X168030Y465750D02*
X181850Y479570D01*
X101010Y362730D02*
X122160D01*
X334910Y460790D02*
Y476440D01*
X449970Y478940D02*
Y494960D01*
X402980D02*
X449970D01*
X423300Y428920D02*
X515230D01*
X415680Y436540D02*
X423300Y428920D01*
X515230D02*
X541900Y402250D01*
X408730Y436540D02*
X415680D01*
X541900Y381930D02*
Y402250D01*
Y381930D02*
X548250Y388280D01*
X626500D01*
X406910Y380790D02*
X465080D01*
X609990Y235880D01*
X626500D01*
X406910Y372790D02*
X450220D01*
X569350Y253660D01*
X406910Y364790D02*
X421390D01*
X569350Y216830D01*
X574920Y236660D02*
X626500Y185080D01*
X569350Y236660D02*
X574920D01*
X569350Y191430D02*
Y199830D01*
Y191430D02*
X626500Y134280D01*
X408060Y461940D02*
X449970D01*
X382910Y460790D02*
Y474890D01*
X402980Y494960D01*
X374910Y460790D02*
Y474020D01*
X409820Y508930D01*
X429650D01*
D25*
X159140Y731180D02*
X159680D01*
X174380Y716480D01*
X168880Y740490D02*
X179289D01*
X157850Y751520D02*
X168880Y740490D01*
X264080Y617350D02*
X297570D01*
X253120Y628310D02*
X264080Y617350D01*
X253120Y628310D02*
Y671490D01*
X174460Y707060D02*
X183252D01*
X186210Y710018D01*
Y723120D01*
X186230Y723140D01*
X132470Y675300D02*
X185010Y622760D01*
X276000Y753960D02*
X296380D01*
X301400Y748940D01*
Y728660D02*
Y748940D01*
X259470Y671490D02*
X267700Y679720D01*
X253120Y671490D02*
X259470D01*
X267700Y679720D02*
Y710200D01*
X274050Y716550D01*
X283970D01*
X221781Y716560D02*
Y741751D01*
X233990Y753960D01*
X249330D01*
X252470Y707050D02*
X253120Y706400D01*
Y688490D02*
Y706400D01*
X249330Y753960D02*
X276000D01*
X205210Y716560D02*
X221781D01*
X283970Y726050D02*
X298790D01*
X301400Y728660D01*
X221791Y716550D02*
X252470D01*
X193560Y715810D02*
X205210D01*
X157850Y751520D02*
Y752690D01*
X179289Y740490D02*
X186230Y733549D01*
Y723140D02*
Y733549D01*
Y723140D02*
X193560Y715810D01*
X134990Y752690D02*
X157850D01*
X110860D02*
X134990D01*
X195230Y706310D02*
X205210D01*
X189620Y700700D02*
X195230Y706310D01*
X189620Y681650D02*
Y700700D01*
X183270Y675300D02*
X189620Y681650D01*
X132470Y675300D02*
X183270D01*
D26*
X345830Y122850D02*
X424570Y201590D01*
X342020Y119040D02*
X345830Y122850D01*
X457870Y248580D02*
X458860D01*
X444890Y201590D02*
X457870Y214570D01*
X424570Y201590D02*
X444890D01*
X338020Y300350D02*
Y335417D01*
Y300350D02*
X348370Y290000D01*
X338020Y335417D02*
X342910Y340307D01*
Y348790D01*
X474860Y388790D02*
X479180Y384470D01*
X406910Y388790D02*
X474860D01*
X353190Y490140D02*
X358910Y484420D01*
X187010Y490140D02*
X353190D01*
X186940Y490070D02*
X187010Y490140D01*
X185620Y490070D02*
X186940D01*
X61350Y474640D02*
X94370Y507660D01*
X61350Y393360D02*
Y474640D01*
Y393360D02*
X85480Y369230D01*
X101010D01*
X208670Y496230D02*
X358530D01*
X366910Y487850D01*
X131200Y343830D02*
Y353990D01*
Y318430D02*
Y343830D01*
X132180Y303100D02*
X139355Y310275D01*
X126810Y297730D02*
X132180Y303100D01*
X137550Y297730D02*
X160410D01*
X126810D02*
X137550D01*
X124100Y311330D02*
X131200Y318430D01*
X117000Y304230D02*
X124100Y311330D01*
X132180Y303100D02*
X137550Y297730D01*
X124100Y311180D02*
X132180Y303100D01*
X124100Y311180D02*
Y311330D01*
X139355Y310275D02*
X147510Y302120D01*
X131200Y318430D02*
X139355Y310275D01*
X101010Y297730D02*
X126810D01*
X160010Y298130D02*
X160410Y297730D01*
X147510Y298130D02*
X160010D01*
X147510D02*
Y302120D01*
X101010Y304230D02*
X117000D01*
X131200Y353990D02*
X133440Y356230D01*
X160410D01*
X101010Y297730D02*
Y304230D01*
X32140Y202860D02*
X57540Y228260D01*
Y281600D01*
X86670Y310730D01*
X101010D01*
X84280Y317230D02*
X101010D01*
X51190Y284140D02*
X84280Y317230D01*
X51190Y247310D02*
Y284140D01*
X32140Y228260D02*
X51190Y247310D01*
X32140Y253660D02*
X43570Y265090D01*
Y274157D01*
X43640Y274227D01*
Y285885D01*
X81265Y323510D01*
X100790D01*
X101010Y323730D01*
X32140Y279060D02*
Y282870D01*
X79500Y330230D01*
X101010D01*
X77110Y336730D02*
X101010D01*
X44840Y304460D02*
X77110Y336730D01*
X32140Y304460D02*
X44840D01*
X73450Y343230D02*
X101010D01*
X60080Y329860D02*
X73450Y343230D01*
X32140Y329860D02*
X60080D01*
X32140Y355260D02*
X60080D01*
X65610Y349730D01*
X101010D01*
X85780Y356230D02*
X101010D01*
X61350Y380660D02*
X85780Y356230D01*
X32140Y380660D02*
X61350D01*
X160410Y349730D02*
X173165D01*
X268225Y444790D01*
X294910D01*
X268710Y436790D02*
X294910D01*
X175150Y343230D02*
X268710Y436790D01*
X160410Y343230D02*
X175150D01*
X160410Y330230D02*
X180695D01*
X271255Y420790D01*
X178710Y336730D02*
X270770Y428790D01*
X160410Y336730D02*
X178710D01*
X160410Y323730D02*
X182680D01*
X271741Y412790D01*
X294910D01*
X271255Y420790D02*
X294910D01*
X270770Y428790D02*
X294910D01*
X160410Y317230D02*
X210415D01*
X281975Y388790D01*
X294910D01*
X282460Y380790D02*
X294910D01*
X212400Y310730D02*
X282460Y380790D01*
X160410Y310730D02*
X212400D01*
X160410Y304230D02*
X216060D01*
X284620Y372790D01*
X294910D01*
X366910Y460790D02*
Y487850D01*
X71510Y633390D02*
X208670Y496230D01*
X48650Y633390D02*
X71510D01*
X35950Y646090D02*
X48650Y633390D01*
X35950Y620690D02*
X60080Y596560D01*
X79130D01*
X185620Y490070D01*
X358910Y460790D02*
Y484420D01*
X406790Y476670D02*
Y477180D01*
X390910Y460790D02*
X406790Y476670D01*
X540800Y527980D02*
Y529860D01*
Y510070D02*
Y527980D01*
X540140Y530520D02*
X540800Y529860D01*
X550300Y437810D02*
Y486070D01*
X579330Y490540D02*
X625840D01*
X559800Y510070D02*
X579330Y490540D01*
X603770Y461810D02*
X626500Y439080D01*
X559800Y461810D02*
X603770D01*
X523780Y444790D02*
X540800Y461810D01*
X406910Y444790D02*
X523780D01*
X395360Y73320D02*
Y118260D01*
Y73320D02*
X451240Y17440D01*
X418830Y235880D02*
Y248580D01*
X275640Y229370D02*
Y240100D01*
X276140Y229370D02*
X282330Y223180D01*
X345830D01*
X275400Y240340D02*
X275640Y240100D01*
X275400Y240340D02*
Y327320D01*
X280480Y332400D01*
X289950D01*
X457870Y214570D02*
Y248580D01*
X418830D02*
X427110Y256860D01*
Y263000D01*
D27*
X345830Y122850D02*
Y210480D01*
X349640Y308270D02*
Y326050D01*
X348370Y307000D02*
X349640Y308270D01*
X347100Y332400D02*
X350910Y336210D01*
X342910Y460790D02*
X343410Y461290D01*
Y469654D02*
X345830Y472074D01*
X343410Y461290D02*
Y469654D01*
X345830Y472074D02*
Y479720D01*
X620150Y286680D02*
X626500D01*
X510440Y416710D02*
X524900Y402250D01*
X432190Y416710D02*
X510440D01*
X347100Y328590D02*
Y332400D01*
X310520Y210480D02*
X345830D01*
X297570Y197530D02*
X310520Y210480D01*
X185010Y615610D02*
Y622760D01*
X334890Y722780D02*
Y726100D01*
X323750Y711640D02*
X334890Y722780D01*
X323750Y705780D02*
Y711640D01*
Y705780D02*
X324240Y705290D01*
Y686730D02*
Y705290D01*
X234070Y729910D02*
X237930Y726050D01*
X252470D01*
X126610Y698160D02*
X133740D01*
X142630Y707050D01*
Y722290D01*
X138900Y726020D02*
X142630Y722290D01*
X131670Y726020D02*
X138900D01*
X164140Y696810D02*
X173710D01*
X152790Y685460D02*
X164140Y696810D01*
X125630Y685460D02*
X152790D01*
X115470Y675300D02*
X125630Y685460D01*
X350910Y336210D02*
Y348790D01*
X418830Y248580D02*
X441860D01*
X270520Y396790D02*
X294910D01*
X406910Y404790D02*
X419490D01*
X424570Y399710D01*
X432190D01*
X406910Y412790D02*
X419870D01*
X423790Y416710D01*
X432190D01*
X156600Y226990D02*
Y252390D01*
X297570Y192700D02*
Y197530D01*
D28*
X374910Y348790D02*
X375160Y349040D01*
Y358111D01*
X376310Y359261D01*
Y379390D01*
X350910Y404790D02*
X376310Y379390D01*
X342910Y348790D02*
Y367580D01*
X350910Y375580D01*
Y404790D01*
X372880Y412790D02*
X406910D01*
X364880Y404790D02*
X372880Y412790D01*
X350910Y404790D02*
X364880D01*
X294910Y404790D02*
X294910Y404790D01*
X350910D01*
Y460790D01*
D29*
X40550Y43630D02*
D03*
Y785000D02*
D03*
X644760Y43630D02*
D03*
X644760Y785000D02*
D03*
D30*
X32140Y533060D02*
D03*
X61350Y722290D02*
D03*
D31*
X32140Y507660D02*
D03*
Y482260D02*
D03*
Y456860D02*
D03*
Y431460D02*
D03*
Y406060D02*
D03*
Y380660D02*
D03*
Y355260D02*
D03*
Y329860D02*
D03*
Y304460D02*
D03*
Y279060D02*
D03*
Y253660D02*
D03*
Y228260D02*
D03*
Y202860D02*
D03*
Y177460D02*
D03*
Y152060D02*
D03*
X35950Y620690D02*
D03*
X61350D02*
D03*
X35950Y646090D02*
D03*
X61350D02*
D03*
X35950Y671490D02*
D03*
X61350D02*
D03*
X35950Y696890D02*
D03*
X61350D02*
D03*
X35950Y722290D02*
D03*
X500820Y32680D02*
D03*
X488120Y58080D02*
D03*
X475420Y32680D02*
D03*
X462720Y58080D02*
D03*
X513520D02*
D03*
X526220Y32680D02*
D03*
D32*
X433460Y729910D02*
D03*
Y667910D02*
D03*
X383460Y698910D02*
D03*
X626500Y693080D02*
D03*
Y642280D02*
D03*
Y591480D02*
D03*
Y540680D02*
D03*
Y489880D02*
D03*
Y439080D02*
D03*
Y388280D02*
D03*
Y337480D02*
D03*
Y286680D02*
D03*
Y235880D02*
D03*
Y185080D02*
D03*
Y134280D02*
D03*
D33*
X94370Y456860D02*
D03*
Y482260D02*
D03*
Y507660D02*
D03*
X545220Y121580D02*
D03*
X443620D02*
D03*
D34*
X483790Y587670D02*
D03*
X533790D02*
D03*
X135010Y615610D02*
D03*
X185010D02*
D03*
X297570Y567350D02*
D03*
Y617350D02*
D03*
D35*
X510930Y676570D02*
D03*
Y727370D02*
D03*
D36*
X156600Y71000D02*
D03*
X364880Y438000D02*
D03*
X327700Y428000D02*
D03*
X361000Y371868D02*
D03*
X411870Y549570D02*
D03*
X159140Y731180D02*
D03*
X541410Y533060D02*
D03*
X371230Y323510D02*
D03*
X349640Y326050D02*
D03*
X362340Y526710D02*
D03*
X479180Y384470D02*
D03*
X182000Y375580D02*
D03*
X162950Y423840D02*
D03*
X161680Y442890D02*
D03*
X88020Y390820D02*
D03*
X168030Y465750D02*
D03*
X345830Y479720D02*
D03*
X131200Y343830D02*
D03*
X406790Y477180D02*
D03*
X565540Y436540D02*
D03*
X429650Y541950D02*
D03*
X449970Y530520D02*
D03*
X350910Y404790D02*
D03*
X316620Y103800D02*
D03*
X364880Y58080D02*
D03*
X231530Y275250D02*
D03*
X289950Y332400D02*
D03*
X269630Y218100D02*
D03*
X94370Y544490D02*
D03*
X340750Y635930D02*
D03*
X84210Y766740D02*
D03*
X234070Y729910D02*
D03*
X203590Y734990D02*
D03*
X324240Y686730D02*
D03*
X142630Y707050D02*
D03*
X216290Y680380D02*
D03*
X328050Y263820D02*
D03*
X156600Y226990D02*
D03*
X325510Y172380D02*
D03*
X311540Y188890D02*
D03*
X269630Y395900D02*
D03*
X347100Y270170D02*
D03*
X293760Y289220D02*
D03*
X310270Y304710D02*
D03*
X371230Y228260D02*
D03*
X326910Y285540D02*
D03*
X389010Y211750D02*
D03*
X427110Y263000D02*
D03*
M02*
