%FSLAX44Y44*%
%MOMM*%
G71*
G01*
G75*
G04 Layer_Color=16711935*
%ADD10R,1.4000X0.6500*%
%ADD11R,1.7800X0.4200*%
%ADD12R,1.0000X1.1000*%
%ADD13R,1.1000X1.0000*%
%ADD14R,0.3000X1.4000*%
%ADD15R,1.1000X1.9000*%
%ADD16R,0.6000X1.4000*%
%ADD17R,1.4500X0.5500*%
%ADD18R,0.5500X1.4500*%
%ADD19R,1.7000X0.6500*%
%ADD20R,0.8000X0.8000*%
%ADD21R,3.5000X2.6000*%
%ADD22C,1.0000*%
%ADD23C,0.2540*%
%ADD24C,0.3000*%
%ADD25C,0.7000*%
%ADD26C,0.4000*%
%ADD27C,0.5000*%
%ADD28C,0.6000*%
%ADD29C,4.0000*%
%ADD30R,1.5000X1.5000*%
%ADD31C,1.5000*%
%ADD32C,2.5000*%
%ADD33C,1.5240*%
%ADD34C,1.9000*%
%ADD35C,1.6000*%
%ADD36C,1.2700*%
%ADD37R,2.4000X3.0000*%
%ADD38R,0.6000X1.3000*%
%ADD39C,0.2500*%
%ADD40C,0.2000*%
%ADD41R,1.0000X2.3000*%
%ADD42R,1.6000X2.9000*%
%ADD43R,2.2000X7.8000*%
%ADD44R,2.6000X1.6000*%
%ADD45R,1.8000X8.8000*%
%ADD46R,8.8000X1.8000*%
%ADD47R,1.6032X0.8532*%
%ADD48R,1.9832X0.6232*%
%ADD49R,1.2032X1.3032*%
%ADD50R,1.3032X1.2032*%
%ADD51R,0.5032X1.6032*%
%ADD52R,1.3032X2.1032*%
%ADD53R,0.8032X1.6032*%
%ADD54R,1.6532X0.7532*%
%ADD55R,0.7532X1.6532*%
%ADD56R,1.9032X0.8532*%
%ADD57R,1.0032X1.0032*%
%ADD58R,3.7032X2.8032*%
%ADD59C,4.2032*%
%ADD60R,1.7032X1.7032*%
%ADD61C,1.7032*%
%ADD62C,2.7032*%
%ADD63C,1.7272*%
%ADD64C,2.1032*%
%ADD65C,1.8032*%
%ADD66C,1.4732*%
%ADD67R,2.6032X3.2032*%
%ADD68R,0.8032X1.5032*%
D49*
X339480Y517820D02*
D03*
Y534820D02*
D03*
X434730Y583860D02*
D03*
Y600860D02*
D03*
X364880Y599100D02*
D03*
Y616100D02*
D03*
X434730Y618150D02*
D03*
Y635150D02*
D03*
D59*
X40550Y43630D02*
D03*
Y785000D02*
D03*
X644760Y43630D02*
D03*
X644760Y785000D02*
D03*
D60*
X32140Y533060D02*
D03*
X61350Y722290D02*
D03*
D61*
X32140Y507660D02*
D03*
Y482260D02*
D03*
Y456860D02*
D03*
Y431460D02*
D03*
Y406060D02*
D03*
Y380660D02*
D03*
Y355260D02*
D03*
Y329860D02*
D03*
Y304460D02*
D03*
Y279060D02*
D03*
Y253660D02*
D03*
Y228260D02*
D03*
Y202860D02*
D03*
Y177460D02*
D03*
Y152060D02*
D03*
X35950Y620690D02*
D03*
X61350D02*
D03*
X35950Y646090D02*
D03*
X61350D02*
D03*
X35950Y671490D02*
D03*
X61350D02*
D03*
X35950Y696890D02*
D03*
X61350D02*
D03*
X35950Y722290D02*
D03*
X500820Y32680D02*
D03*
X488120Y58080D02*
D03*
X475420Y32680D02*
D03*
X462720Y58080D02*
D03*
X513520D02*
D03*
X526220Y32680D02*
D03*
D62*
X433460Y729910D02*
D03*
Y667910D02*
D03*
X383460Y698910D02*
D03*
X626500Y693080D02*
D03*
Y642280D02*
D03*
Y591480D02*
D03*
Y540680D02*
D03*
Y489880D02*
D03*
Y439080D02*
D03*
Y388280D02*
D03*
Y337480D02*
D03*
Y286680D02*
D03*
Y235880D02*
D03*
Y185080D02*
D03*
Y134280D02*
D03*
D63*
X94370Y456860D02*
D03*
Y482260D02*
D03*
Y507660D02*
D03*
X545220Y121580D02*
D03*
X443620D02*
D03*
D64*
X483790Y587670D02*
D03*
X533790D02*
D03*
X135010Y615610D02*
D03*
X185010D02*
D03*
X297570Y567350D02*
D03*
Y617350D02*
D03*
D65*
X510930Y676570D02*
D03*
Y727370D02*
D03*
D66*
X156600Y71000D02*
D03*
X364880Y438000D02*
D03*
X327700Y428000D02*
D03*
X361000Y371868D02*
D03*
X411870Y549570D02*
D03*
X159140Y731180D02*
D03*
X541410Y533060D02*
D03*
X371230Y323510D02*
D03*
X349640Y326050D02*
D03*
X362340Y526710D02*
D03*
X479180Y384470D02*
D03*
X182000Y375580D02*
D03*
X162950Y423840D02*
D03*
X161680Y442890D02*
D03*
X88020Y390820D02*
D03*
X168030Y465750D02*
D03*
X345830Y479720D02*
D03*
X131200Y343830D02*
D03*
X406790Y477180D02*
D03*
X565540Y436540D02*
D03*
X429650Y541950D02*
D03*
X449970Y530520D02*
D03*
X350910Y404790D02*
D03*
X316620Y103800D02*
D03*
X364880Y58080D02*
D03*
X231530Y275250D02*
D03*
X289950Y332400D02*
D03*
X269630Y218100D02*
D03*
X94370Y544490D02*
D03*
X340750Y635930D02*
D03*
X84210Y766740D02*
D03*
X234070Y729910D02*
D03*
X203590Y734990D02*
D03*
X324240Y686730D02*
D03*
X142630Y707050D02*
D03*
X216290Y680380D02*
D03*
X328050Y263820D02*
D03*
X156600Y226990D02*
D03*
X325510Y172380D02*
D03*
X311540Y188890D02*
D03*
X269630Y395900D02*
D03*
X347100Y270170D02*
D03*
X293760Y289220D02*
D03*
X310270Y304710D02*
D03*
X371230Y228260D02*
D03*
X326910Y285540D02*
D03*
X389010Y211750D02*
D03*
X427110Y263000D02*
D03*
D67*
X188960Y404790D02*
D03*
X242960D02*
D03*
D68*
X411870Y599100D02*
D03*
X392870D02*
D03*
X402370Y620100D02*
D03*
M02*
