%FSLAX44Y44*%
%MOMM*%
G71*
G01*
G75*
G04 Layer_Color=65535*
%ADD10R,1.0000X1.1000*%
%ADD11R,3.5000X2.6000*%
%ADD12R,1.1000X1.0000*%
%ADD13R,0.8000X0.8000*%
%ADD14R,1.7000X0.6500*%
%ADD15R,0.5500X1.4500*%
%ADD16R,1.4500X0.5500*%
%ADD17R,0.6000X1.4000*%
%ADD18R,1.1000X1.9000*%
%ADD19R,0.3000X1.4000*%
%ADD20R,1.7800X0.4200*%
%ADD21R,1.4000X0.6500*%
%ADD22C,0.4000*%
%ADD23C,1.0000*%
%ADD24C,0.5000*%
%ADD25C,0.2540*%
%ADD26C,0.7000*%
%ADD27C,0.6000*%
%ADD28C,0.3000*%
%ADD29C,1.9000*%
%ADD30C,2.5000*%
%ADD31C,4.0000*%
%ADD32C,1.5000*%
%ADD33C,1.5240*%
%ADD34C,1.6000*%
%ADD35R,1.5000X1.5000*%
%ADD36C,1.2700*%
%ADD37R,0.6000X1.3000*%
%ADD38R,2.4000X3.0000*%
%ADD39C,0.2500*%
%ADD40C,0.2000*%
%ADD41R,1.0000X2.3000*%
G36*
X166164Y509000D02*
X161235D01*
X159268Y514099D01*
X150308D01*
X148438Y509000D01*
X143654D01*
X152372Y531413D01*
X157179D01*
X166164Y509000D01*
D02*
G37*
G36*
X323757D02*
X319240D01*
X310159Y523715D01*
Y509000D01*
X305982D01*
Y531413D01*
X310353D01*
X319580Y516358D01*
Y531413D01*
X323757D01*
Y509000D01*
D02*
G37*
G36*
X133480Y531388D02*
X133771D01*
X134427Y531364D01*
X135083Y531315D01*
X135714Y531243D01*
X135981Y531218D01*
X136248Y531170D01*
X136297D01*
X136369Y531146D01*
X136467Y531121D01*
X136709Y531073D01*
X137025Y530976D01*
X137389Y530854D01*
X137778Y530684D01*
X138191Y530490D01*
X138579Y530247D01*
X138603D01*
X138628Y530223D01*
X138749Y530126D01*
X138943Y529956D01*
X139186Y529761D01*
X139453Y529470D01*
X139745Y529154D01*
X140036Y528790D01*
X140303Y528377D01*
Y528353D01*
X140328Y528329D01*
X140376Y528256D01*
X140425Y528183D01*
X140522Y527940D01*
X140667Y527625D01*
X140789Y527236D01*
X140910Y526775D01*
X140983Y526289D01*
X141007Y525755D01*
Y525731D01*
Y525682D01*
Y525609D01*
X140983Y525488D01*
Y525342D01*
X140959Y525196D01*
X140910Y524808D01*
X140789Y524347D01*
X140643Y523861D01*
X140449Y523375D01*
X140157Y522865D01*
Y522841D01*
X140109Y522817D01*
X140060Y522744D01*
X140012Y522647D01*
X139817Y522428D01*
X139550Y522137D01*
X139211Y521821D01*
X138822Y521481D01*
X138361Y521166D01*
X137851Y520898D01*
X137875D01*
X137948Y520874D01*
X138045Y520826D01*
X138191Y520777D01*
X138361Y520704D01*
X138555Y520631D01*
X139016Y520413D01*
X139502Y520146D01*
X140036Y519781D01*
X140546Y519369D01*
X140983Y518859D01*
X141007Y518834D01*
X141032Y518786D01*
X141080Y518713D01*
X141153Y518616D01*
X141250Y518470D01*
X141347Y518300D01*
X141444Y518106D01*
X141542Y517912D01*
X141736Y517402D01*
X141930Y516843D01*
X142051Y516188D01*
X142100Y515848D01*
Y515483D01*
Y515459D01*
Y515411D01*
Y515338D01*
Y515216D01*
X142076Y515095D01*
X142051Y514925D01*
X142003Y514536D01*
X141930Y514075D01*
X141784Y513589D01*
X141614Y513055D01*
X141372Y512497D01*
Y512472D01*
X141347Y512424D01*
X141299Y512351D01*
X141250Y512254D01*
X141080Y511987D01*
X140862Y511671D01*
X140595Y511307D01*
X140255Y510918D01*
X139866Y510530D01*
X139429Y510190D01*
X139405D01*
X139380Y510166D01*
X139308Y510117D01*
X139211Y510044D01*
X139089Y509996D01*
X138943Y509923D01*
X138603Y509753D01*
X138166Y509558D01*
X137632Y509389D01*
X137049Y509243D01*
X136394Y509146D01*
X136272D01*
X136151Y509121D01*
X136005D01*
X135811Y509097D01*
X135568D01*
X135301Y509073D01*
X134961D01*
X134572Y509049D01*
X134135D01*
X133625Y509024D01*
X132436D01*
X131732Y509000D01*
X123330D01*
Y531413D01*
X133188D01*
X133480Y531388D01*
D02*
G37*
G36*
X269364D02*
X269704D01*
X270093Y531364D01*
X270481Y531340D01*
X271355Y531267D01*
X272205Y531146D01*
X272618Y531097D01*
X273031Y531000D01*
X273395Y530903D01*
X273711Y530806D01*
X273735D01*
X273783Y530781D01*
X273856Y530733D01*
X273978Y530684D01*
X274123Y530611D01*
X274269Y530538D01*
X274658Y530320D01*
X275070Y530004D01*
X275483Y529640D01*
X275920Y529179D01*
X276309Y528644D01*
Y528620D01*
X276357Y528572D01*
X276406Y528499D01*
X276455Y528377D01*
X276552Y528232D01*
X276625Y528062D01*
X276722Y527843D01*
X276819Y527625D01*
X276989Y527115D01*
X277159Y526508D01*
X277256Y525852D01*
X277304Y525123D01*
Y525099D01*
Y525002D01*
Y524881D01*
X277280Y524711D01*
X277256Y524492D01*
X277232Y524249D01*
X277183Y523958D01*
X277110Y523667D01*
X276940Y522987D01*
X276819Y522647D01*
X276673Y522307D01*
X276503Y521942D01*
X276309Y521603D01*
X276090Y521263D01*
X275823Y520947D01*
X275799Y520923D01*
X275750Y520874D01*
X275678Y520801D01*
X275556Y520680D01*
X275386Y520558D01*
X275192Y520413D01*
X274973Y520243D01*
X274706Y520073D01*
X274415Y519879D01*
X274099Y519709D01*
X273735Y519539D01*
X273322Y519369D01*
X272885Y519223D01*
X272424Y519077D01*
X271914Y518956D01*
X271380Y518859D01*
X271404D01*
X271452Y518810D01*
X271525Y518786D01*
X271622Y518713D01*
X271889Y518543D01*
X272229Y518300D01*
X272618Y518033D01*
X273031Y517717D01*
X273444Y517353D01*
X273808Y516989D01*
X273856Y516940D01*
X273905Y516867D01*
X273978Y516795D01*
X274075Y516673D01*
X274196Y516527D01*
X274342Y516358D01*
X274488Y516163D01*
X274658Y515920D01*
X274852Y515653D01*
X275070Y515362D01*
X275289Y515022D01*
X275532Y514658D01*
X275799Y514245D01*
X276090Y513832D01*
X276382Y513346D01*
X279126Y509000D01*
X273711D01*
X270433Y513881D01*
X270408Y513905D01*
X270360Y514002D01*
X270263Y514124D01*
X270141Y514294D01*
X270020Y514512D01*
X269850Y514731D01*
X269485Y515265D01*
X269073Y515823D01*
X268684Y516358D01*
X268490Y516600D01*
X268320Y516819D01*
X268174Y517013D01*
X268029Y517159D01*
X268004Y517183D01*
X267931Y517280D01*
X267786Y517377D01*
X267616Y517523D01*
X267421Y517693D01*
X267179Y517839D01*
X266936Y517985D01*
X266669Y518082D01*
X266644Y518106D01*
X266523Y518130D01*
X266353Y518179D01*
X266110Y518227D01*
X265795Y518276D01*
X265406Y518300D01*
X264945Y518349D01*
X263488D01*
Y509000D01*
X258971D01*
Y531413D01*
X269073D01*
X269364Y531388D01*
D02*
G37*
G36*
X256057Y527625D02*
X249453D01*
Y509000D01*
X244936D01*
Y527625D01*
X238283D01*
Y531413D01*
X256057D01*
Y527625D01*
D02*
G37*
G36*
X177504Y531388D02*
X178062D01*
X178378Y531364D01*
X179058Y531315D01*
X179762Y531218D01*
X180442Y531121D01*
X180758Y531048D01*
X181049Y530976D01*
X181073D01*
X181146Y530951D01*
X181243Y530903D01*
X181389Y530854D01*
X181559Y530806D01*
X181753Y530709D01*
X182215Y530490D01*
X182749Y530223D01*
X183307Y529859D01*
X183866Y529422D01*
X184424Y528912D01*
X184449Y528887D01*
X184497Y528839D01*
X184570Y528766D01*
X184667Y528644D01*
X184764Y528499D01*
X184910Y528329D01*
X185056Y528134D01*
X185226Y527892D01*
X185396Y527649D01*
X185566Y527382D01*
X185930Y526750D01*
X186270Y526046D01*
X186561Y525269D01*
Y525245D01*
X186585Y525172D01*
X186634Y525051D01*
X186683Y524881D01*
X186731Y524686D01*
X186804Y524419D01*
X186877Y524128D01*
X186950Y523812D01*
X186998Y523448D01*
X187071Y523035D01*
X187144Y522598D01*
X187192Y522137D01*
X187241Y521627D01*
X187290Y521117D01*
X187314Y520558D01*
Y519976D01*
Y519951D01*
Y519854D01*
Y519709D01*
Y519514D01*
X187290Y519272D01*
Y519004D01*
X187265Y518689D01*
X187217Y518349D01*
X187144Y517596D01*
X187022Y516795D01*
X186852Y515993D01*
X186610Y515216D01*
Y515192D01*
X186561Y515119D01*
X186513Y514973D01*
X186464Y514804D01*
X186367Y514609D01*
X186270Y514366D01*
X186148Y514099D01*
X186003Y513808D01*
X185663Y513177D01*
X185250Y512521D01*
X184764Y511865D01*
X184206Y511258D01*
X184181Y511234D01*
X184157Y511210D01*
X184084Y511137D01*
X183987Y511064D01*
X183866Y510967D01*
X183744Y510845D01*
X183574Y510724D01*
X183380Y510603D01*
X182919Y510311D01*
X182385Y510020D01*
X181753Y509729D01*
X181049Y509461D01*
X181025D01*
X180976Y509437D01*
X180903Y509413D01*
X180782Y509389D01*
X180636Y509364D01*
X180442Y509316D01*
X180223Y509267D01*
X179981Y509243D01*
X179713Y509194D01*
X179422Y509146D01*
X179082Y509097D01*
X178718Y509073D01*
X178354Y509049D01*
X177941Y509024D01*
X177504Y509000D01*
X168544D01*
Y531413D01*
X177261D01*
X177504Y531388D01*
D02*
G37*
G36*
X291971Y531753D02*
X292311Y531728D01*
X292724Y531680D01*
X293209Y531607D01*
X293744Y531510D01*
X294326Y531388D01*
X294958Y531218D01*
X295589Y531024D01*
X296245Y530781D01*
X296925Y530466D01*
X297580Y530126D01*
X298212Y529713D01*
X298819Y529227D01*
X299401Y528693D01*
X299426Y528669D01*
X299523Y528547D01*
X299669Y528377D01*
X299863Y528134D01*
X300106Y527819D01*
X300348Y527430D01*
X300616Y526993D01*
X300907Y526459D01*
X301174Y525900D01*
X301441Y525245D01*
X301708Y524541D01*
X301927Y523788D01*
X302121Y522962D01*
X302267Y522088D01*
X302364Y521141D01*
X302388Y520146D01*
Y520121D01*
Y520073D01*
Y520000D01*
Y519903D01*
Y519781D01*
X302364Y519636D01*
X302340Y519247D01*
X302291Y518786D01*
X302243Y518276D01*
X302145Y517669D01*
X302024Y517038D01*
X301854Y516382D01*
X301660Y515678D01*
X301417Y514973D01*
X301150Y514269D01*
X300810Y513565D01*
X300397Y512885D01*
X299960Y512254D01*
X299426Y511647D01*
X299401Y511623D01*
X299280Y511525D01*
X299134Y511355D01*
X298892Y511161D01*
X298600Y510943D01*
X298236Y510676D01*
X297823Y510408D01*
X297337Y510117D01*
X296803Y509826D01*
X296220Y509558D01*
X295565Y509291D01*
X294861Y509073D01*
X294108Y508879D01*
X293307Y508709D01*
X292432Y508611D01*
X291534Y508587D01*
X291315D01*
X291048Y508611D01*
X290708Y508636D01*
X290296Y508684D01*
X289786Y508757D01*
X289251Y508830D01*
X288669Y508976D01*
X288037Y509121D01*
X287406Y509340D01*
X286726Y509583D01*
X286070Y509874D01*
X285415Y510214D01*
X284783Y510627D01*
X284176Y511088D01*
X283594Y511623D01*
X283569Y511671D01*
X283472Y511768D01*
X283326Y511938D01*
X283132Y512181D01*
X282914Y512497D01*
X282671Y512885D01*
X282404Y513322D01*
X282137Y513832D01*
X281845Y514391D01*
X281578Y515022D01*
X281335Y515702D01*
X281117Y516455D01*
X280923Y517256D01*
X280777Y518130D01*
X280680Y519053D01*
X280655Y520024D01*
Y520073D01*
Y520170D01*
Y520364D01*
X280680Y520607D01*
Y520898D01*
X280704Y521238D01*
X280753Y521603D01*
X280777Y522040D01*
X280850Y522477D01*
X280898Y522938D01*
X281092Y523909D01*
X281335Y524856D01*
X281505Y525342D01*
X281675Y525779D01*
Y525803D01*
X281700Y525852D01*
X281748Y525949D01*
X281821Y526071D01*
X281894Y526216D01*
X281991Y526386D01*
X282209Y526823D01*
X282501Y527285D01*
X282865Y527819D01*
X283278Y528329D01*
X283739Y528863D01*
X283764Y528887D01*
X283812Y528912D01*
X283885Y528984D01*
X283982Y529081D01*
X284104Y529203D01*
X284249Y529324D01*
X284613Y529616D01*
X285026Y529956D01*
X285536Y530296D01*
X286070Y530611D01*
X286653Y530878D01*
X286677D01*
X286750Y530927D01*
X286872Y530951D01*
X287017Y531024D01*
X287212Y531097D01*
X287454Y531170D01*
X287722Y531243D01*
X288037Y531340D01*
X288377Y531413D01*
X288741Y531485D01*
X289154Y531558D01*
X289567Y531631D01*
X290490Y531728D01*
X291485Y531777D01*
X291704D01*
X291971Y531753D01*
D02*
G37*
G36*
X523166Y354900D02*
Y352868D01*
Y350836D01*
Y348804D01*
Y346772D01*
Y344740D01*
Y342708D01*
Y340676D01*
Y338644D01*
Y336612D01*
X521134D01*
Y334580D01*
X519102D01*
Y332548D01*
X517070D01*
Y330516D01*
X515038D01*
Y328484D01*
X513006D01*
Y326452D01*
X510974D01*
Y324420D01*
X508942D01*
Y322388D01*
X506910D01*
Y320356D01*
X504878D01*
Y318324D01*
X500814D01*
Y316292D01*
Y314260D01*
Y312228D01*
Y310196D01*
Y308164D01*
Y306132D01*
Y304100D01*
Y302068D01*
Y300036D01*
Y298004D01*
X484558D01*
Y300036D01*
Y302068D01*
Y304100D01*
Y306132D01*
Y308164D01*
Y310196D01*
Y312228D01*
Y314260D01*
Y316292D01*
Y318324D01*
X486590D01*
Y320356D01*
X488622D01*
Y322388D01*
X490654D01*
Y324420D01*
X492686D01*
Y326452D01*
X494718D01*
Y328484D01*
X496750D01*
Y330516D01*
X498782D01*
Y332548D01*
X500814D01*
Y334580D01*
X504878D01*
Y336612D01*
Y338644D01*
Y340676D01*
Y342708D01*
Y344740D01*
Y346772D01*
Y348804D01*
Y350836D01*
Y352868D01*
Y354900D01*
Y356932D01*
X523166D01*
Y354900D01*
D02*
G37*
G36*
Y312228D02*
Y310196D01*
Y308164D01*
Y306132D01*
Y304100D01*
Y302068D01*
Y300036D01*
Y298004D01*
X506910D01*
Y300036D01*
X508942D01*
Y302068D01*
X510974D01*
Y304100D01*
X513006D01*
Y306132D01*
X515038D01*
Y308164D01*
X517070D01*
Y310196D01*
X519102D01*
Y312228D01*
X521134D01*
Y314260D01*
X523166D01*
Y312228D01*
D02*
G37*
G36*
X500814Y354900D02*
X498782D01*
Y352868D01*
X496750D01*
Y350836D01*
X494718D01*
Y348804D01*
X492686D01*
Y346772D01*
X490654D01*
Y344740D01*
X488622D01*
Y342708D01*
X486590D01*
Y340676D01*
X484558D01*
Y342708D01*
Y344740D01*
Y346772D01*
Y348804D01*
Y350836D01*
Y352868D01*
Y354900D01*
Y356932D01*
X500814D01*
Y354900D01*
D02*
G37*
G36*
X225899Y531753D02*
X226239Y531728D01*
X226651Y531680D01*
X227137Y531607D01*
X227671Y531510D01*
X228254Y531388D01*
X228885Y531218D01*
X229517Y531024D01*
X230172Y530781D01*
X230852Y530466D01*
X231508Y530126D01*
X232139Y529713D01*
X232746Y529227D01*
X233329Y528693D01*
X233353Y528669D01*
X233451Y528547D01*
X233596Y528377D01*
X233790Y528134D01*
X234033Y527819D01*
X234276Y527430D01*
X234543Y526993D01*
X234835Y526459D01*
X235102Y525900D01*
X235369Y525245D01*
X235636Y524541D01*
X235854Y523788D01*
X236049Y522962D01*
X236194Y522088D01*
X236292Y521141D01*
X236316Y520146D01*
Y520121D01*
Y520073D01*
Y520000D01*
Y519903D01*
Y519781D01*
X236292Y519636D01*
X236267Y519247D01*
X236219Y518786D01*
X236170Y518276D01*
X236073Y517669D01*
X235951Y517038D01*
X235782Y516382D01*
X235587Y515678D01*
X235345Y514973D01*
X235077Y514269D01*
X234737Y513565D01*
X234325Y512885D01*
X233888Y512254D01*
X233353Y511647D01*
X233329Y511623D01*
X233208Y511525D01*
X233062Y511355D01*
X232819Y511161D01*
X232528Y510943D01*
X232164Y510676D01*
X231751Y510408D01*
X231265Y510117D01*
X230731Y509826D01*
X230148Y509558D01*
X229492Y509291D01*
X228788Y509073D01*
X228036Y508879D01*
X227234Y508709D01*
X226360Y508611D01*
X225462Y508587D01*
X225243D01*
X224976Y508611D01*
X224636Y508636D01*
X224223Y508684D01*
X223713Y508757D01*
X223179Y508830D01*
X222596Y508976D01*
X221965Y509121D01*
X221334Y509340D01*
X220654Y509583D01*
X219998Y509874D01*
X219342Y510214D01*
X218711Y510627D01*
X218104Y511088D01*
X217521Y511623D01*
X217497Y511671D01*
X217400Y511768D01*
X217254Y511938D01*
X217060Y512181D01*
X216841Y512497D01*
X216598Y512885D01*
X216331Y513322D01*
X216064Y513832D01*
X215773Y514391D01*
X215506Y515022D01*
X215263Y515702D01*
X215044Y516455D01*
X214850Y517256D01*
X214704Y518130D01*
X214607Y519053D01*
X214583Y520024D01*
Y520073D01*
Y520170D01*
Y520364D01*
X214607Y520607D01*
Y520898D01*
X214632Y521238D01*
X214680Y521603D01*
X214704Y522040D01*
X214777Y522477D01*
X214826Y522938D01*
X215020Y523909D01*
X215263Y524856D01*
X215433Y525342D01*
X215603Y525779D01*
Y525803D01*
X215627Y525852D01*
X215676Y525949D01*
X215749Y526071D01*
X215821Y526216D01*
X215919Y526386D01*
X216137Y526823D01*
X216429Y527285D01*
X216793Y527819D01*
X217206Y528329D01*
X217667Y528863D01*
X217691Y528887D01*
X217740Y528912D01*
X217813Y528984D01*
X217910Y529081D01*
X218031Y529203D01*
X218177Y529324D01*
X218541Y529616D01*
X218954Y529956D01*
X219464Y530296D01*
X219998Y530611D01*
X220581Y530878D01*
X220605D01*
X220678Y530927D01*
X220799Y530951D01*
X220945Y531024D01*
X221139Y531097D01*
X221382Y531170D01*
X221649Y531243D01*
X221965Y531340D01*
X222305Y531413D01*
X222669Y531485D01*
X223082Y531558D01*
X223495Y531631D01*
X224417Y531728D01*
X225413Y531777D01*
X225632D01*
X225899Y531753D01*
D02*
G37*
G36*
X202175D02*
X202539Y531728D01*
X202952Y531680D01*
X203389Y531631D01*
X203874Y531558D01*
X204384Y531461D01*
X204919Y531340D01*
X205453Y531218D01*
X206011Y531048D01*
X206546Y530830D01*
X207055Y530611D01*
X207541Y530344D01*
X208002Y530029D01*
X208027Y530004D01*
X208100Y529956D01*
X208221Y529859D01*
X208391Y529713D01*
X208561Y529519D01*
X208780Y529324D01*
X209022Y529057D01*
X209265Y528766D01*
X209532Y528450D01*
X209775Y528086D01*
X210042Y527673D01*
X210285Y527260D01*
X210504Y526799D01*
X210722Y526289D01*
X210892Y525755D01*
X211038Y525196D01*
X206546Y524347D01*
Y524371D01*
X206521Y524419D01*
X206497Y524516D01*
X206448Y524614D01*
X206400Y524759D01*
X206327Y524929D01*
X206133Y525294D01*
X205890Y525706D01*
X205574Y526143D01*
X205210Y526556D01*
X204749Y526945D01*
X204724D01*
X204700Y526993D01*
X204627Y527042D01*
X204506Y527090D01*
X204384Y527163D01*
X204239Y527260D01*
X204044Y527333D01*
X203850Y527430D01*
X203389Y527600D01*
X202830Y527770D01*
X202199Y527867D01*
X201495Y527916D01*
X201203D01*
X201009Y527892D01*
X200766Y527867D01*
X200475Y527819D01*
X200135Y527746D01*
X199795Y527673D01*
X199431Y527576D01*
X199042Y527455D01*
X198654Y527309D01*
X198265Y527115D01*
X197877Y526896D01*
X197488Y526653D01*
X197124Y526362D01*
X196784Y526022D01*
X196760Y525998D01*
X196711Y525925D01*
X196614Y525828D01*
X196517Y525658D01*
X196371Y525463D01*
X196225Y525221D01*
X196080Y524953D01*
X195910Y524614D01*
X195740Y524249D01*
X195594Y523837D01*
X195448Y523375D01*
X195303Y522865D01*
X195206Y522331D01*
X195109Y521748D01*
X195060Y521117D01*
X195036Y520437D01*
Y520388D01*
Y520267D01*
X195060Y520048D01*
Y519781D01*
X195084Y519441D01*
X195133Y519077D01*
X195181Y518640D01*
X195254Y518179D01*
X195351Y517717D01*
X195473Y517207D01*
X195618Y516722D01*
X195788Y516212D01*
X195983Y515726D01*
X196225Y515265D01*
X196493Y514828D01*
X196808Y514439D01*
X196833Y514415D01*
X196881Y514366D01*
X197003Y514245D01*
X197124Y514124D01*
X197318Y513978D01*
X197512Y513808D01*
X197780Y513638D01*
X198047Y513444D01*
X198362Y513249D01*
X198727Y513079D01*
X199091Y512910D01*
X199504Y512764D01*
X199965Y512642D01*
X200426Y512545D01*
X200912Y512472D01*
X201446Y512448D01*
X201689D01*
X201810Y512472D01*
X201980D01*
X202345Y512521D01*
X202782Y512594D01*
X203243Y512691D01*
X203753Y512812D01*
X204287Y513007D01*
X204312D01*
X204360Y513031D01*
X204433Y513055D01*
X204530Y513104D01*
X204797Y513225D01*
X205137Y513395D01*
X205526Y513589D01*
X205938Y513808D01*
X206351Y514051D01*
X206764Y514342D01*
Y517207D01*
X201592D01*
Y520995D01*
X211329D01*
Y512035D01*
X211305Y512011D01*
X211256Y511987D01*
X211183Y511914D01*
X211062Y511817D01*
X210916Y511695D01*
X210746Y511550D01*
X210528Y511404D01*
X210285Y511234D01*
X209994Y511040D01*
X209702Y510845D01*
X209362Y510651D01*
X208974Y510457D01*
X208585Y510238D01*
X208148Y510044D01*
X207687Y509826D01*
X207201Y509631D01*
X207177D01*
X207080Y509583D01*
X206934Y509534D01*
X206740Y509461D01*
X206497Y509389D01*
X206206Y509291D01*
X205866Y509218D01*
X205501Y509121D01*
X205113Y509024D01*
X204676Y508927D01*
X204239Y508830D01*
X203753Y508757D01*
X202757Y508636D01*
X202248Y508611D01*
X201738Y508587D01*
X201398D01*
X201155Y508611D01*
X200839Y508636D01*
X200475Y508660D01*
X200086Y508709D01*
X199649Y508782D01*
X199188Y508854D01*
X198702Y508951D01*
X198192Y509073D01*
X197658Y509194D01*
X197124Y509364D01*
X196614Y509558D01*
X196104Y509777D01*
X195594Y510044D01*
X195570Y510068D01*
X195473Y510117D01*
X195351Y510190D01*
X195157Y510311D01*
X194963Y510481D01*
X194696Y510651D01*
X194429Y510870D01*
X194137Y511137D01*
X193822Y511404D01*
X193506Y511720D01*
X193166Y512084D01*
X192850Y512448D01*
X192535Y512861D01*
X192219Y513298D01*
X191952Y513759D01*
X191685Y514269D01*
X191660Y514294D01*
X191636Y514391D01*
X191563Y514536D01*
X191490Y514755D01*
X191393Y514998D01*
X191272Y515313D01*
X191150Y515653D01*
X191029Y516042D01*
X190908Y516479D01*
X190786Y516940D01*
X190689Y517426D01*
X190568Y517936D01*
X190495Y518494D01*
X190422Y519053D01*
X190398Y519636D01*
X190373Y520243D01*
Y520291D01*
Y520388D01*
Y520583D01*
X190398Y520826D01*
X190422Y521141D01*
X190446Y521505D01*
X190495Y521894D01*
X190568Y522331D01*
X190641Y522792D01*
X190738Y523302D01*
X190859Y523812D01*
X190980Y524347D01*
X191150Y524881D01*
X191345Y525415D01*
X191563Y525949D01*
X191830Y526459D01*
X191855Y526483D01*
X191903Y526581D01*
X191976Y526726D01*
X192097Y526920D01*
X192267Y527139D01*
X192437Y527406D01*
X192656Y527697D01*
X192923Y528013D01*
X193190Y528353D01*
X193530Y528693D01*
X193870Y529033D01*
X194259Y529397D01*
X194671Y529737D01*
X195133Y530053D01*
X195618Y530368D01*
X196128Y530660D01*
X196153Y530684D01*
X196225Y530709D01*
X196347Y530757D01*
X196517Y530830D01*
X196735Y530927D01*
X196978Y531024D01*
X197270Y531121D01*
X197610Y531218D01*
X197974Y531315D01*
X198387Y531413D01*
X198824Y531510D01*
X199309Y531607D01*
X199819Y531680D01*
X200354Y531728D01*
X200912Y531777D01*
X201908D01*
X202175Y531753D01*
D02*
G37*
G36*
X472366Y354900D02*
X470334D01*
Y352868D01*
X468302D01*
Y350836D01*
X466270D01*
Y348804D01*
X464238D01*
Y346772D01*
X462206D01*
Y344740D01*
X460174D01*
Y342708D01*
X458142D01*
Y340676D01*
X456110D01*
Y338644D01*
X454078D01*
Y336612D01*
X452046D01*
Y334580D01*
X450014D01*
Y332548D01*
X447982D01*
Y330516D01*
X445950D01*
Y328484D01*
X443918D01*
Y326452D01*
X441886D01*
Y324420D01*
X439854D01*
Y322388D01*
X437822D01*
Y320356D01*
X433758D01*
Y318324D01*
X431726D01*
Y316292D01*
Y314260D01*
X472366D01*
Y312228D01*
Y310196D01*
Y308164D01*
Y306132D01*
Y304100D01*
Y302068D01*
Y300036D01*
Y298004D01*
Y295972D01*
Y293940D01*
Y291908D01*
Y289876D01*
Y287844D01*
Y285812D01*
Y283780D01*
Y281748D01*
Y279716D01*
X456110D01*
Y281748D01*
Y283780D01*
Y285812D01*
Y287844D01*
Y289876D01*
Y291908D01*
Y293940D01*
Y295972D01*
Y298004D01*
Y300036D01*
X454078D01*
Y302068D01*
X413438D01*
Y304100D01*
Y306132D01*
Y308164D01*
Y310196D01*
Y312228D01*
Y314260D01*
Y316292D01*
X415470D01*
Y318324D01*
X417502D01*
Y320356D01*
X419534D01*
Y322388D01*
X421566D01*
Y324420D01*
X423598D01*
Y326452D01*
X425630D01*
Y328484D01*
X427662D01*
Y330516D01*
X429694D01*
Y332548D01*
X431726D01*
Y334580D01*
X433758D01*
Y336612D01*
X435790D01*
Y338644D01*
X437822D01*
Y340676D01*
X439854D01*
Y342708D01*
X441886D01*
Y344740D01*
X443918D01*
Y346772D01*
X445950D01*
Y348804D01*
X447982D01*
Y350836D01*
X450014D01*
Y352868D01*
X452046D01*
Y354900D01*
X454078D01*
Y356932D01*
X472366D01*
Y354900D01*
D02*
G37*
%LPC*%
G36*
X154727Y526192D02*
X151692Y517887D01*
X157835D01*
X154727Y526192D01*
D02*
G37*
G36*
X268344Y527625D02*
X263488D01*
Y521918D01*
X267616D01*
X267907Y521942D01*
X268563D01*
X269267Y521991D01*
X269923Y522040D01*
X270214Y522064D01*
X270481Y522088D01*
X270724Y522137D01*
X270894Y522185D01*
X270942Y522210D01*
X271040Y522234D01*
X271185Y522307D01*
X271355Y522404D01*
X271574Y522525D01*
X271792Y522695D01*
X271987Y522890D01*
X272181Y523132D01*
X272205Y523157D01*
X272254Y523254D01*
X272327Y523400D01*
X272424Y523594D01*
X272497Y523837D01*
X272569Y524128D01*
X272618Y524468D01*
X272642Y524832D01*
Y524856D01*
Y524881D01*
Y525026D01*
X272618Y525221D01*
X272569Y525488D01*
X272497Y525779D01*
X272375Y526071D01*
X272229Y526362D01*
X272035Y526653D01*
X272011Y526678D01*
X271914Y526775D01*
X271792Y526896D01*
X271598Y527018D01*
X271355Y527188D01*
X271064Y527309D01*
X270700Y527430D01*
X270311Y527528D01*
X270287D01*
X270190Y527552D01*
X269995D01*
X269874Y527576D01*
X269510D01*
X269267Y527600D01*
X268684D01*
X268344Y527625D01*
D02*
G37*
G36*
X131999Y527673D02*
X127846D01*
Y522501D01*
X132217D01*
X132776Y522525D01*
X133310D01*
X133553Y522550D01*
X133771D01*
X133966Y522574D01*
X134160D01*
X134305Y522598D01*
X134524Y522647D01*
X134767Y522720D01*
X135058Y522817D01*
X135374Y522962D01*
X135665Y523132D01*
X135932Y523351D01*
X135957Y523375D01*
X136030Y523472D01*
X136151Y523618D01*
X136272Y523837D01*
X136394Y524079D01*
X136515Y524395D01*
X136588Y524735D01*
X136612Y525123D01*
Y525172D01*
Y525294D01*
X136588Y525488D01*
X136539Y525706D01*
X136467Y525973D01*
X136369Y526265D01*
X136224Y526532D01*
X136030Y526799D01*
X136005Y526823D01*
X135932Y526896D01*
X135787Y527018D01*
X135592Y527139D01*
X135350Y527285D01*
X135058Y527406D01*
X134718Y527503D01*
X134305Y527576D01*
X134233D01*
X134160Y527600D01*
X133941D01*
X133771Y527625D01*
X133358D01*
X133067Y527649D01*
X132411D01*
X131999Y527673D01*
D02*
G37*
G36*
X176023Y527625D02*
X173060D01*
Y512788D01*
X177091D01*
X177479Y512812D01*
X177941Y512837D01*
X178402Y512861D01*
X178815Y512910D01*
X179009Y512958D01*
X179179Y512982D01*
X179204D01*
X179228Y513007D01*
X179374Y513031D01*
X179568Y513104D01*
X179811Y513201D01*
X180102Y513346D01*
X180418Y513517D01*
X180709Y513711D01*
X181000Y513929D01*
X181025Y513954D01*
X181122Y514051D01*
X181268Y514221D01*
X181413Y514439D01*
X181607Y514755D01*
X181802Y515119D01*
X181996Y515556D01*
X182190Y516091D01*
Y516115D01*
X182215Y516163D01*
X182239Y516236D01*
X182263Y516358D01*
X182287Y516527D01*
X182336Y516698D01*
X182385Y516916D01*
X182433Y517159D01*
X182457Y517450D01*
X182506Y517766D01*
X182554Y518082D01*
X182579Y518446D01*
X182603Y518859D01*
X182627Y519272D01*
X182652Y519733D01*
Y520194D01*
Y520219D01*
Y520316D01*
Y520437D01*
Y520631D01*
X182627Y520850D01*
Y521093D01*
X182603Y521360D01*
Y521675D01*
X182530Y522307D01*
X182457Y522962D01*
X182336Y523618D01*
X182263Y523909D01*
X182190Y524176D01*
Y524201D01*
X182166Y524249D01*
X182142Y524322D01*
X182118Y524395D01*
X181996Y524662D01*
X181850Y524978D01*
X181680Y525318D01*
X181462Y525682D01*
X181195Y526022D01*
X180903Y526338D01*
X180855Y526362D01*
X180758Y526459D01*
X180563Y526605D01*
X180321Y526775D01*
X180029Y526945D01*
X179665Y527115D01*
X179252Y527285D01*
X178791Y527406D01*
X178742D01*
X178694Y527430D01*
X178596D01*
X178499Y527455D01*
X178354Y527479D01*
X178184Y527503D01*
X177965Y527528D01*
X177747D01*
X177479Y527552D01*
X177164Y527576D01*
X176824Y527600D01*
X176435D01*
X176023Y527625D01*
D02*
G37*
G36*
X225462Y527916D02*
X225194D01*
X225000Y527892D01*
X224757Y527867D01*
X224490Y527819D01*
X224175Y527746D01*
X223859Y527673D01*
X223495Y527576D01*
X223130Y527455D01*
X222766Y527285D01*
X222378Y527090D01*
X222013Y526872D01*
X221625Y526605D01*
X221285Y526313D01*
X220945Y525973D01*
X220921Y525949D01*
X220872Y525876D01*
X220799Y525779D01*
X220678Y525609D01*
X220557Y525415D01*
X220411Y525172D01*
X220265Y524881D01*
X220095Y524541D01*
X219949Y524152D01*
X219779Y523715D01*
X219634Y523254D01*
X219512Y522720D01*
X219391Y522161D01*
X219318Y521554D01*
X219270Y520898D01*
X219245Y520194D01*
Y520146D01*
Y520024D01*
X219270Y519830D01*
Y519563D01*
X219294Y519247D01*
X219342Y518883D01*
X219391Y518470D01*
X219464Y518033D01*
X219561Y517572D01*
X219682Y517110D01*
X219804Y516625D01*
X219974Y516139D01*
X220192Y515678D01*
X220411Y515241D01*
X220678Y514804D01*
X220994Y514415D01*
X221018Y514391D01*
X221066Y514342D01*
X221164Y514245D01*
X221309Y514099D01*
X221479Y513954D01*
X221698Y513784D01*
X221941Y513614D01*
X222208Y513444D01*
X222523Y513249D01*
X222863Y513079D01*
X223228Y512910D01*
X223616Y512764D01*
X224029Y512642D01*
X224490Y512545D01*
X224976Y512472D01*
X225462Y512448D01*
X225583D01*
X225729Y512472D01*
X225923D01*
X226141Y512497D01*
X226409Y512545D01*
X226700Y512618D01*
X227040Y512691D01*
X227380Y512788D01*
X227720Y512934D01*
X228108Y513079D01*
X228473Y513274D01*
X228837Y513492D01*
X229201Y513759D01*
X229565Y514051D01*
X229905Y514391D01*
X229930Y514415D01*
X229978Y514488D01*
X230075Y514585D01*
X230172Y514755D01*
X230318Y514949D01*
X230464Y515216D01*
X230609Y515508D01*
X230779Y515848D01*
X230949Y516236D01*
X231095Y516673D01*
X231241Y517159D01*
X231387Y517669D01*
X231484Y518252D01*
X231581Y518859D01*
X231629Y519539D01*
X231654Y520243D01*
Y520291D01*
Y520413D01*
Y520607D01*
X231629Y520874D01*
X231605Y521190D01*
X231556Y521554D01*
X231508Y521967D01*
X231435Y522404D01*
X231362Y522865D01*
X231241Y523351D01*
X231095Y523837D01*
X230949Y524298D01*
X230731Y524759D01*
X230512Y525196D01*
X230245Y525633D01*
X229954Y525998D01*
X229930Y526022D01*
X229881Y526071D01*
X229784Y526168D01*
X229638Y526289D01*
X229468Y526435D01*
X229274Y526605D01*
X229031Y526775D01*
X228764Y526969D01*
X228448Y527139D01*
X228108Y527309D01*
X227744Y527479D01*
X227331Y527625D01*
X226919Y527746D01*
X226457Y527843D01*
X225972Y527892D01*
X225462Y527916D01*
D02*
G37*
G36*
X291534D02*
X291267D01*
X291073Y527892D01*
X290830Y527867D01*
X290563Y527819D01*
X290247Y527746D01*
X289931Y527673D01*
X289567Y527576D01*
X289203Y527455D01*
X288839Y527285D01*
X288450Y527090D01*
X288086Y526872D01*
X287697Y526605D01*
X287357Y526313D01*
X287017Y525973D01*
X286993Y525949D01*
X286945Y525876D01*
X286872Y525779D01*
X286750Y525609D01*
X286629Y525415D01*
X286483Y525172D01*
X286338Y524881D01*
X286168Y524541D01*
X286022Y524152D01*
X285852Y523715D01*
X285706Y523254D01*
X285585Y522720D01*
X285463Y522161D01*
X285390Y521554D01*
X285342Y520898D01*
X285318Y520194D01*
Y520146D01*
Y520024D01*
X285342Y519830D01*
Y519563D01*
X285366Y519247D01*
X285415Y518883D01*
X285463Y518470D01*
X285536Y518033D01*
X285633Y517572D01*
X285755Y517110D01*
X285876Y516625D01*
X286046Y516139D01*
X286265Y515678D01*
X286483Y515241D01*
X286750Y514804D01*
X287066Y514415D01*
X287090Y514391D01*
X287139Y514342D01*
X287236Y514245D01*
X287382Y514099D01*
X287552Y513954D01*
X287770Y513784D01*
X288013Y513614D01*
X288280Y513444D01*
X288596Y513249D01*
X288936Y513079D01*
X289300Y512910D01*
X289688Y512764D01*
X290101Y512642D01*
X290563Y512545D01*
X291048Y512472D01*
X291534Y512448D01*
X291655D01*
X291801Y512472D01*
X291995D01*
X292214Y512497D01*
X292481Y512545D01*
X292772Y512618D01*
X293112Y512691D01*
X293452Y512788D01*
X293792Y512934D01*
X294181Y513079D01*
X294545Y513274D01*
X294909Y513492D01*
X295273Y513759D01*
X295638Y514051D01*
X295978Y514391D01*
X296002Y514415D01*
X296050Y514488D01*
X296148Y514585D01*
X296245Y514755D01*
X296390Y514949D01*
X296536Y515216D01*
X296682Y515508D01*
X296852Y515848D01*
X297022Y516236D01*
X297167Y516673D01*
X297313Y517159D01*
X297459Y517669D01*
X297556Y518252D01*
X297653Y518859D01*
X297702Y519539D01*
X297726Y520243D01*
Y520291D01*
Y520413D01*
Y520607D01*
X297702Y520874D01*
X297677Y521190D01*
X297629Y521554D01*
X297580Y521967D01*
X297507Y522404D01*
X297435Y522865D01*
X297313Y523351D01*
X297167Y523837D01*
X297022Y524298D01*
X296803Y524759D01*
X296585Y525196D01*
X296318Y525633D01*
X296026Y525998D01*
X296002Y526022D01*
X295953Y526071D01*
X295856Y526168D01*
X295711Y526289D01*
X295541Y526435D01*
X295346Y526605D01*
X295103Y526775D01*
X294836Y526969D01*
X294521Y527139D01*
X294181Y527309D01*
X293817Y527479D01*
X293404Y527625D01*
X292991Y527746D01*
X292530Y527843D01*
X292044Y527892D01*
X291534Y527916D01*
D02*
G37*
G36*
X132047Y518761D02*
X127846D01*
Y512788D01*
X132824D01*
X133334Y512812D01*
X133868D01*
X134378Y512837D01*
X134597Y512861D01*
X134815D01*
X134985Y512885D01*
X135131Y512910D01*
X135180D01*
X135301Y512958D01*
X135495Y513007D01*
X135714Y513104D01*
X135981Y513225D01*
X136248Y513371D01*
X136539Y513565D01*
X136782Y513808D01*
X136806Y513832D01*
X136879Y513929D01*
X137001Y514099D01*
X137122Y514318D01*
X137219Y514585D01*
X137341Y514901D01*
X137414Y515289D01*
X137438Y515702D01*
Y515751D01*
Y515872D01*
X137414Y516066D01*
X137365Y516285D01*
X137316Y516552D01*
X137219Y516843D01*
X137098Y517135D01*
X136928Y517402D01*
X136904Y517426D01*
X136831Y517523D01*
X136734Y517645D01*
X136564Y517790D01*
X136369Y517960D01*
X136127Y518130D01*
X135835Y518276D01*
X135520Y518422D01*
X135471Y518446D01*
X135422D01*
X135325Y518470D01*
X135204Y518494D01*
X135058Y518519D01*
X134888Y518567D01*
X134670Y518591D01*
X134427Y518616D01*
X134135Y518664D01*
X133795Y518689D01*
X133431Y518713D01*
X133019Y518737D01*
X132557D01*
X132047Y518761D01*
D02*
G37*
%LPD*%
D25*
X341070Y592350D02*
G03*
X341070Y592350I-43500J0D01*
G01*
X203510Y615610D02*
G03*
X203510Y615610I-43500J0D01*
G01*
X558830Y587670D02*
G03*
X558830Y587670I-50040J0D01*
G01*
X274470Y700050D02*
G03*
X274470Y700050I-1000J0D01*
G01*
X195710Y689810D02*
G03*
X195710Y689810I-1000J0D01*
G01*
X289840Y104340D02*
Y124340D01*
X264440Y105610D02*
Y125610D01*
X229010Y569810D02*
Y812380D01*
Y569810D02*
X234090Y564730D01*
X263300D01*
X363630Y569810D02*
Y812380D01*
X358550Y564730D02*
X363630Y569810D01*
X329340Y564730D02*
X358550D01*
X223890Y568540D02*
Y811110D01*
X218810Y563460D02*
X223890Y568540D01*
X189600Y563460D02*
X218810D01*
X93080Y562190D02*
X122290D01*
X230260Y568460D02*
X235340Y563380D01*
X182600Y264390D02*
X221600D01*
Y232390D02*
Y264390D01*
Y27390D02*
Y232390D01*
X90600Y265390D02*
X127600D01*
X90600Y27390D02*
Y265390D01*
Y27390D02*
X128600D01*
X182600D02*
X221600D01*
X302570Y585350D02*
Y600350D01*
X292570Y585350D02*
Y600350D01*
X153010Y610610D02*
X168010D01*
X153010Y620610D02*
X168010D01*
X244120Y669490D02*
Y689490D01*
X114470Y666300D02*
X134470D01*
X315890Y735100D02*
X335890D01*
X322750Y696780D02*
X342750D01*
X341930Y751960D02*
Y771960D01*
X316530Y751960D02*
Y771960D01*
X288570Y751960D02*
Y771960D01*
X267000Y751960D02*
Y771960D01*
X240330Y751960D02*
Y771960D01*
X586500Y719080D02*
X666500D01*
X586500Y108280D02*
X666500D01*
X586500D02*
Y719080D01*
X666500Y108280D02*
Y719080D01*
X415620Y186280D02*
X573220D01*
Y22480D02*
Y186280D01*
X415620Y22480D02*
X573220D01*
X415620D02*
Y186280D01*
X510930Y747370D02*
X535930D01*
Y657370D02*
Y747370D01*
X486930Y657370D02*
X535930D01*
X485930Y658370D02*
X486930Y657370D01*
X485930Y658370D02*
Y747370D01*
X510930D01*
X549460Y676180D02*
X552460D01*
X549460D02*
Y698430D01*
X550460Y699430D01*
X552460D01*
X568460Y675430D02*
X570460D01*
X568460Y699430D02*
X571460D01*
X555710Y684680D02*
X557710Y686680D01*
X564710D02*
X566710Y688680D01*
X563710Y686680D02*
X564710D01*
X557710D02*
X563710D01*
X560710Y688680D02*
X562710Y690680D01*
X558710D02*
X560710Y688680D01*
X558710Y690680D02*
X562710D01*
X571460Y676180D02*
Y699430D01*
X500790Y582670D02*
X515790D01*
X500790Y592670D02*
X515790D01*
X101860Y750690D02*
Y770690D01*
X125990Y750690D02*
Y770690D01*
X148850Y750690D02*
Y770690D01*
X174250Y750690D02*
Y770690D01*
X198380Y750690D02*
Y770690D01*
X112670Y735020D02*
X132670D01*
X107610Y707160D02*
X127610D01*
X440860Y239580D02*
X460860D01*
X104370Y527660D02*
X114370D01*
Y437660D02*
Y527660D01*
X73370Y437660D02*
X114370D01*
X73370D02*
Y526660D01*
X74370Y527660D01*
X104370D01*
X531800Y440060D02*
Y460060D01*
Y430060D02*
Y440060D01*
Y460060D02*
Y470060D01*
X568800Y429560D02*
Y439560D01*
Y459560D02*
Y469560D01*
Y439560D02*
Y459560D01*
X531800Y488320D02*
Y508320D01*
Y478320D02*
Y488320D01*
Y508320D02*
Y518320D01*
X568800Y477820D02*
Y487820D01*
Y507820D02*
Y517820D01*
Y487820D02*
Y507820D01*
X423190Y397710D02*
Y417710D01*
X522900Y390930D02*
X542900D01*
X522900Y411250D02*
X542900D01*
X388460Y729910D02*
Y804910D01*
X478460Y655910D02*
Y804910D01*
X388460D02*
X478460D01*
X447460Y655910D02*
X478460D01*
X433460Y765910D02*
Y798910D01*
Y765910D02*
X440460Y772910D01*
X427460D02*
X440460D01*
X427460D02*
X433460Y766910D01*
X388460Y655910D02*
X421460D01*
X420650Y506930D02*
Y526930D01*
X440970Y492960D02*
Y512960D01*
X390820Y517930D02*
X410820D01*
X440970Y459940D02*
Y479940D01*
X357370Y289000D02*
Y309000D01*
X271140Y212100D02*
X276140Y207100D01*
Y206600D02*
Y207100D01*
X373880Y77400D02*
Y97400D01*
X340020Y128040D02*
X360020D01*
X376360Y127260D02*
X396360D01*
X578350Y198830D02*
Y218830D01*
Y235660D02*
Y255660D01*
X486000Y294297D02*
Y279060D01*
X497899Y289218D02*
Y279060D01*
Y287041D02*
X496448Y288492D01*
X494997Y289218D01*
X492820D01*
X491369Y288492D01*
X489918Y287041D01*
X489192Y284865D01*
Y283414D01*
X489918Y281237D01*
X491369Y279786D01*
X492820Y279060D01*
X494997D01*
X496448Y279786D01*
X497899Y281237D01*
X501962Y294297D02*
Y279060D01*
Y287041D02*
X503413Y288492D01*
X504865Y289218D01*
X507041D01*
X508492Y288492D01*
X509943Y287041D01*
X510669Y284865D01*
Y283414D01*
X509943Y281237D01*
X508492Y279786D01*
X507041Y279060D01*
X504865D01*
X503413Y279786D01*
X501962Y281237D01*
X513934Y284865D02*
X522641D01*
Y286316D01*
X521915Y287767D01*
X521190Y288492D01*
X519739Y289218D01*
X517562D01*
X516111Y288492D01*
X514660Y287041D01*
X513934Y284865D01*
Y283414D01*
X514660Y281237D01*
X516111Y279786D01*
X517562Y279060D01*
X519739D01*
X521190Y279786D01*
X522641Y281237D01*
X525906Y294297D02*
Y279060D01*
X529098Y284865D02*
X537805D01*
Y286316D01*
X537079Y287767D01*
X536354Y288492D01*
X534903Y289218D01*
X532726D01*
X531275Y288492D01*
X529824Y287041D01*
X529098Y284865D01*
Y283414D01*
X529824Y281237D01*
X531275Y279786D01*
X532726Y279060D01*
X534903D01*
X536354Y279786D01*
X537805Y281237D01*
X549777Y287041D02*
X548326Y288492D01*
X546874Y289218D01*
X544698D01*
X543247Y288492D01*
X541796Y287041D01*
X541070Y284865D01*
Y283414D01*
X541796Y281237D01*
X543247Y279786D01*
X544698Y279060D01*
X546874D01*
X548326Y279786D01*
X549777Y281237D01*
X247330Y115545D02*
X245663Y113878D01*
Y110546D01*
X247330Y108880D01*
X253994D01*
X255660Y110546D01*
Y113878D01*
X253994Y115545D01*
X255660Y118877D02*
Y122209D01*
Y120543D01*
X245663D01*
X247330Y118877D01*
X318601Y116186D02*
X320267Y117852D01*
Y121184D01*
X318601Y122850D01*
X311936D01*
X310270Y121184D01*
Y117852D01*
X311936Y116186D01*
X310270Y106189D02*
Y112853D01*
X316935Y106189D01*
X318601D01*
X320267Y107855D01*
Y111187D01*
X318601Y112853D01*
X559505Y406771D02*
X557839Y408437D01*
X554506D01*
X552840Y406771D01*
Y400106D01*
X554506Y398440D01*
X557839D01*
X559505Y400106D01*
X567835Y398440D02*
Y408437D01*
X562837Y403438D01*
X569501D01*
X347415Y142611D02*
X345748Y144277D01*
X342416D01*
X340750Y142611D01*
Y135946D01*
X342416Y134280D01*
X345748D01*
X347415Y135946D01*
X357411Y144277D02*
X350747D01*
Y139278D01*
X354079Y140945D01*
X355745D01*
X357411Y139278D01*
Y135946D01*
X355745Y134280D01*
X352413D01*
X350747Y135946D01*
X447745Y267071D02*
X446078Y268737D01*
X442746D01*
X441080Y267071D01*
Y260406D01*
X442746Y258740D01*
X446078D01*
X447745Y260406D01*
X457741Y268737D02*
X454409Y267071D01*
X451077Y263738D01*
Y260406D01*
X452743Y258740D01*
X456075D01*
X457741Y260406D01*
Y262072D01*
X456075Y263738D01*
X451077D01*
X118815Y659501D02*
X117149Y661167D01*
X113816D01*
X112150Y659501D01*
Y652836D01*
X113816Y651170D01*
X117149D01*
X118815Y652836D01*
X122147Y659501D02*
X123813Y661167D01*
X127145D01*
X128811Y659501D01*
Y657835D01*
X127145Y656169D01*
X128811Y654502D01*
Y652836D01*
X127145Y651170D01*
X123813D01*
X122147Y652836D01*
Y654502D01*
X123813Y656169D01*
X122147Y657835D01*
Y659501D01*
X123813Y656169D02*
X127145D01*
X454491Y409556D02*
X456157Y411222D01*
Y414554D01*
X454491Y416220D01*
X447826D01*
X446160Y414554D01*
Y411222D01*
X447826Y409556D01*
Y406223D02*
X446160Y404557D01*
Y401225D01*
X447826Y399559D01*
X454491D01*
X456157Y401225D01*
Y404557D01*
X454491Y406223D01*
X452825D01*
X451158Y404557D01*
Y399559D01*
X185231Y800636D02*
X186897Y802302D01*
Y805634D01*
X185231Y807300D01*
X178566D01*
X176900Y805634D01*
Y802302D01*
X178566Y800636D01*
X176900Y797303D02*
Y793971D01*
Y795637D01*
X186897D01*
X185231Y797303D01*
Y788973D02*
X186897Y787307D01*
Y783974D01*
X185231Y782308D01*
X178566D01*
X176900Y783974D01*
Y787307D01*
X178566Y788973D01*
X185231D01*
X359090Y269215D02*
X357423Y267549D01*
Y264216D01*
X359090Y262550D01*
X365754D01*
X367420Y264216D01*
Y267549D01*
X365754Y269215D01*
X367420Y272547D02*
Y275879D01*
Y274213D01*
X357423D01*
X359090Y272547D01*
X367420Y280877D02*
Y284210D01*
Y282544D01*
X357423D01*
X359090Y280877D01*
X210631Y800636D02*
X212297Y802302D01*
Y805634D01*
X210631Y807300D01*
X203966D01*
X202300Y805634D01*
Y802302D01*
X203966Y800636D01*
X202300Y797303D02*
Y793971D01*
Y795637D01*
X212297D01*
X210631Y797303D01*
X202300Y782308D02*
Y788973D01*
X208965Y782308D01*
X210631D01*
X212297Y783974D01*
Y787307D01*
X210631Y788973D01*
X504895Y556631D02*
X503228Y558297D01*
X499896D01*
X498230Y556631D01*
Y549966D01*
X499896Y548300D01*
X503228D01*
X504895Y549966D01*
X508227Y548300D02*
X511559D01*
X509893D01*
Y558297D01*
X508227Y556631D01*
X516558D02*
X518224Y558297D01*
X521556D01*
X523222Y556631D01*
Y554965D01*
X521556Y553298D01*
X519890D01*
X521556D01*
X523222Y551632D01*
Y549966D01*
X521556Y548300D01*
X518224D01*
X516558Y549966D01*
X115381Y800636D02*
X117047Y802302D01*
Y805634D01*
X115381Y807300D01*
X108716D01*
X107050Y805634D01*
Y802302D01*
X108716Y800636D01*
X107050Y797303D02*
Y793971D01*
Y795637D01*
X117047D01*
X115381Y797303D01*
X107050Y783974D02*
X117047D01*
X112049Y788973D01*
Y782308D01*
X138241Y801906D02*
X139907Y803572D01*
Y806904D01*
X138241Y808570D01*
X131576D01*
X129910Y806904D01*
Y803572D01*
X131576Y801906D01*
X129910Y798573D02*
Y795241D01*
Y796907D01*
X139907D01*
X138241Y798573D01*
X139907Y783578D02*
Y790243D01*
X134909D01*
X136575Y786910D01*
Y785244D01*
X134909Y783578D01*
X131576D01*
X129910Y785244D01*
Y788577D01*
X131576Y790243D01*
X161101Y801906D02*
X162767Y803572D01*
Y806904D01*
X161101Y808570D01*
X154436D01*
X152770Y806904D01*
Y803572D01*
X154436Y801906D01*
X152770Y798573D02*
Y795241D01*
Y796907D01*
X162767D01*
X161101Y798573D01*
X162767Y783578D02*
X161101Y786910D01*
X157769Y790243D01*
X154436D01*
X152770Y788577D01*
Y785244D01*
X154436Y783578D01*
X156103D01*
X157769Y785244D01*
Y790243D01*
X276295Y681091D02*
X274629Y682757D01*
X271296D01*
X269630Y681091D01*
Y674426D01*
X271296Y672760D01*
X274629D01*
X276295Y674426D01*
X279627Y672760D02*
X282959D01*
X281293D01*
Y682757D01*
X279627Y681091D01*
X287957Y682757D02*
X294622D01*
Y681091D01*
X287957Y674426D01*
Y672760D01*
X327511Y800636D02*
X329177Y802302D01*
Y805634D01*
X327511Y807300D01*
X320846D01*
X319180Y805634D01*
Y802302D01*
X320846Y800636D01*
X319180Y797303D02*
Y793971D01*
Y795637D01*
X329177D01*
X327511Y797303D01*
Y788973D02*
X329177Y787307D01*
Y783974D01*
X327511Y782308D01*
X325845D01*
X324179Y783974D01*
X322512Y782308D01*
X320846D01*
X319180Y783974D01*
Y787307D01*
X320846Y788973D01*
X322512D01*
X324179Y787307D01*
X325845Y788973D01*
X327511D01*
X324179Y787307D02*
Y783974D01*
X351641Y800636D02*
X353307Y802302D01*
Y805634D01*
X351641Y807300D01*
X344976D01*
X343310Y805634D01*
Y802302D01*
X344976Y800636D01*
X343310Y797303D02*
Y793971D01*
Y795637D01*
X353307D01*
X351641Y797303D01*
X344976Y788973D02*
X343310Y787307D01*
Y783974D01*
X344976Y782308D01*
X351641D01*
X353307Y783974D01*
Y787307D01*
X351641Y788973D01*
X349975D01*
X348308Y787307D01*
Y782308D01*
X250041Y803176D02*
X251707Y804842D01*
Y808174D01*
X250041Y809840D01*
X243376D01*
X241710Y808174D01*
Y804842D01*
X243376Y803176D01*
X241710Y793179D02*
Y799843D01*
X248375Y793179D01*
X250041D01*
X251707Y794845D01*
Y798177D01*
X250041Y799843D01*
Y789847D02*
X251707Y788180D01*
Y784848D01*
X250041Y783182D01*
X243376D01*
X241710Y784848D01*
Y788180D01*
X243376Y789847D01*
X250041D01*
X279251Y801906D02*
X280917Y803572D01*
Y806904D01*
X279251Y808570D01*
X272586D01*
X270920Y806904D01*
Y803572D01*
X272586Y801906D01*
X270920Y791909D02*
Y798573D01*
X277585Y791909D01*
X279251D01*
X280917Y793575D01*
Y796907D01*
X279251Y798573D01*
X270920Y788577D02*
Y785244D01*
Y786910D01*
X280917D01*
X279251Y788577D01*
X299551Y801906D02*
X301217Y803572D01*
Y806904D01*
X299551Y808570D01*
X292886D01*
X291220Y806904D01*
Y803572D01*
X292886Y801906D01*
X291220Y791909D02*
Y798573D01*
X297885Y791909D01*
X299551D01*
X301217Y793575D01*
Y796907D01*
X299551Y798573D01*
X291220Y781912D02*
Y788577D01*
X297885Y781912D01*
X299551D01*
X301217Y783578D01*
Y786910D01*
X299551Y788577D01*
X552840Y718317D02*
Y708320D01*
X557839D01*
X559505Y709986D01*
Y716651D01*
X557839Y718317D01*
X552840D01*
X562837Y708320D02*
X566169D01*
X564503D01*
Y718317D01*
X562837Y716651D01*
X560457Y743875D02*
X550300D01*
Y736258D01*
X555378D01*
X550300D01*
Y728640D01*
X565535D02*
X570614D01*
X568074D01*
Y743875D01*
X565535Y741336D01*
X154060Y602747D02*
Y592750D01*
X160725D01*
X164057D02*
X167389D01*
X165723D01*
Y602747D01*
X164057Y601081D01*
X267173Y585110D02*
X277170D01*
Y591775D01*
Y601771D02*
Y595107D01*
X270506Y601771D01*
X268839D01*
X267173Y600105D01*
Y596773D01*
X268839Y595107D01*
X587765Y728005D02*
Y743240D01*
X595383D01*
X597922Y740701D01*
Y735623D01*
X595383Y733083D01*
X587765D01*
X613157Y728005D02*
X603000D01*
X613157Y738162D01*
Y740701D01*
X610618Y743240D01*
X605540D01*
X603000Y740701D01*
X599830Y23790D02*
X584595D01*
Y31408D01*
X587134Y33947D01*
X592213D01*
X594752Y31408D01*
Y23790D01*
X587134Y39025D02*
X584595Y41564D01*
Y46643D01*
X587134Y49182D01*
X589674D01*
X592213Y46643D01*
Y44103D01*
Y46643D01*
X594752Y49182D01*
X597291D01*
X599830Y46643D01*
Y41564D01*
X597291Y39025D01*
X416950Y761660D02*
X401715D01*
Y769278D01*
X404254Y771817D01*
X409333D01*
X411872Y769278D01*
Y761660D01*
X416950Y784513D02*
X401715D01*
X409333Y776895D01*
Y787052D01*
X518865Y454716D02*
Y461381D01*
X517198Y463047D01*
X513866D01*
X512200Y461381D01*
Y454716D01*
X513866Y453050D01*
X517198D01*
X515532Y456382D02*
X518865Y453050D01*
X517198D02*
X518865Y454716D01*
X522197Y453050D02*
X525529D01*
X523863D01*
Y463047D01*
X522197Y461381D01*
X564585Y524566D02*
Y531231D01*
X562919Y532897D01*
X559586D01*
X557920Y531231D01*
Y524566D01*
X559586Y522900D01*
X562919D01*
X561252Y526232D02*
X564585Y522900D01*
X562919D02*
X564585Y524566D01*
X574581Y522900D02*
X567917D01*
X574581Y529565D01*
Y531231D01*
X572915Y532897D01*
X569583D01*
X567917Y531231D01*
X62620Y444160D02*
X52623D01*
Y449159D01*
X54289Y450825D01*
X57622D01*
X59288Y449159D01*
Y444160D01*
Y447492D02*
X62620Y450825D01*
Y454157D02*
Y457489D01*
Y455823D01*
X52623D01*
X54289Y454157D01*
X467750Y502580D02*
X457753D01*
Y507579D01*
X459420Y509245D01*
X462752D01*
X464418Y507579D01*
Y502580D01*
Y505912D02*
X467750Y509245D01*
Y519241D02*
Y512577D01*
X461086Y519241D01*
X459420D01*
X457753Y517575D01*
Y514243D01*
X459420Y512577D01*
X433337Y483000D02*
X423341D01*
Y487998D01*
X425007Y489664D01*
X428339D01*
X430005Y487998D01*
Y483000D01*
Y486332D02*
X433337Y489664D01*
X425007Y492997D02*
X423341Y494663D01*
Y497995D01*
X425007Y499661D01*
X426673D01*
X428339Y497995D01*
Y496329D01*
Y497995D01*
X430005Y499661D01*
X431671D01*
X433337Y497995D01*
Y494663D01*
X431671Y492997D01*
X467750Y463210D02*
X457753D01*
Y468209D01*
X459420Y469875D01*
X462752D01*
X464418Y468209D01*
Y463210D01*
Y466542D02*
X467750Y469875D01*
Y478205D02*
X457753D01*
X462752Y473207D01*
Y479871D01*
X393147Y490540D02*
Y500537D01*
X398145D01*
X399812Y498871D01*
Y495538D01*
X398145Y493872D01*
X393147D01*
X396479D02*
X399812Y490540D01*
X409808Y500537D02*
X403144D01*
Y495538D01*
X406476Y497205D01*
X408142D01*
X409808Y495538D01*
Y492206D01*
X408142Y490540D01*
X404810D01*
X403144Y492206D01*
X555380Y370500D02*
Y380497D01*
X560378D01*
X562045Y378831D01*
Y375499D01*
X560378Y373832D01*
X555380D01*
X558712D02*
X562045Y370500D01*
X572041Y380497D02*
X568709Y378831D01*
X565377Y375499D01*
Y372166D01*
X567043Y370500D01*
X570375D01*
X572041Y372166D01*
Y373832D01*
X570375Y375499D01*
X565377D01*
X85480Y699430D02*
Y709427D01*
X90478D01*
X92145Y707761D01*
Y704428D01*
X90478Y702762D01*
X85480D01*
X88812D02*
X92145Y699430D01*
X95477Y709427D02*
X102141D01*
Y707761D01*
X95477Y701096D01*
Y699430D01*
X86750Y724830D02*
Y734827D01*
X91749D01*
X93415Y733161D01*
Y729828D01*
X91749Y728162D01*
X86750D01*
X90082D02*
X93415Y724830D01*
X96747Y733161D02*
X98413Y734827D01*
X101745D01*
X103411Y733161D01*
Y731495D01*
X101745Y729828D01*
X103411Y728162D01*
Y726496D01*
X101745Y724830D01*
X98413D01*
X96747Y726496D01*
Y728162D01*
X98413Y729828D01*
X96747Y731495D01*
Y733161D01*
X98413Y729828D02*
X101745D01*
X349640Y713400D02*
X359637D01*
Y708402D01*
X357971Y706736D01*
X354638D01*
X352972Y708402D01*
Y713400D01*
Y710068D02*
X349640Y706736D01*
X351306Y703403D02*
X349640Y701737D01*
Y698405D01*
X351306Y696739D01*
X357971D01*
X359637Y698405D01*
Y701737D01*
X357971Y703403D01*
X356305D01*
X354638Y701737D01*
Y696739D01*
X376310Y133010D02*
Y143007D01*
X381309D01*
X382975Y141341D01*
Y138008D01*
X381309Y136342D01*
X376310D01*
X379642D02*
X382975Y133010D01*
X386307D02*
X389639D01*
X387973D01*
Y143007D01*
X386307Y141341D01*
X394637D02*
X396304Y143007D01*
X399636D01*
X401302Y141341D01*
Y134676D01*
X399636Y133010D01*
X396304D01*
X394637Y134676D01*
Y141341D01*
X391550Y77620D02*
X381553D01*
Y82619D01*
X383219Y84285D01*
X386552D01*
X388218Y82619D01*
Y77620D01*
Y80952D02*
X391550Y84285D01*
Y87617D02*
Y90949D01*
Y89283D01*
X381553D01*
X383219Y87617D01*
X391550Y95948D02*
Y99280D01*
Y97614D01*
X381553D01*
X383219Y95948D01*
X344540Y740150D02*
X352537D01*
Y736151D01*
X351205Y734818D01*
X348539D01*
X347206Y736151D01*
Y740150D01*
Y737484D02*
X344540Y734818D01*
Y732153D02*
Y729487D01*
Y730820D01*
X352537D01*
X351205Y732153D01*
X344540Y720156D02*
Y725488D01*
X349872Y720156D01*
X351205D01*
X352537Y721489D01*
Y724155D01*
X351205Y725488D01*
X556650Y192700D02*
X543654D01*
Y199198D01*
X545820Y201364D01*
X550152D01*
X552318Y199198D01*
Y192700D01*
Y197032D02*
X556650Y201364D01*
Y205696D02*
Y210028D01*
Y207862D01*
X543654D01*
X545820Y205696D01*
X543654Y216526D02*
Y225190D01*
X545820D01*
X554484Y216526D01*
X556650D01*
X555380Y232070D02*
X542384D01*
Y238568D01*
X544550Y240734D01*
X548882D01*
X551048Y238568D01*
Y232070D01*
Y236402D02*
X555380Y240734D01*
Y245066D02*
Y249398D01*
Y247232D01*
X542384D01*
X544550Y245066D01*
Y255896D02*
X542384Y258062D01*
Y262394D01*
X544550Y264560D01*
X546716D01*
X548882Y262394D01*
X551048Y264560D01*
X553214D01*
X555380Y262394D01*
Y258062D01*
X553214Y255896D01*
X551048D01*
X548882Y258062D01*
X546716Y255896D01*
X544550D01*
X548882Y258062D02*
Y262394D01*
X207237Y681650D02*
X198906D01*
X197240Y679984D01*
Y676652D01*
X198906Y674986D01*
X207237D01*
X197240Y664989D02*
Y671653D01*
X203905Y664989D01*
X205571D01*
X207237Y666655D01*
Y669987D01*
X205571Y671653D01*
X371393Y267630D02*
X379724D01*
X381390Y269296D01*
Y272628D01*
X379724Y274295D01*
X371393D01*
X373060Y277627D02*
X371393Y279293D01*
Y282625D01*
X373060Y284291D01*
X374726D01*
X376392Y282625D01*
Y280959D01*
Y282625D01*
X378058Y284291D01*
X379724D01*
X381390Y282625D01*
Y279293D01*
X379724Y277627D01*
X244230Y154437D02*
Y152771D01*
X247562Y149438D01*
X250895Y152771D01*
Y154437D01*
X247562Y149438D02*
Y144440D01*
X254227D02*
X257559D01*
X255893D01*
Y154437D01*
X254227Y152771D01*
X271027Y272578D02*
Y259882D01*
X273566Y257343D01*
X278645D01*
X281184Y259882D01*
Y272578D01*
X286262D02*
X296419D01*
Y270039D01*
X286262Y259882D01*
Y257343D01*
X255660Y743717D02*
Y735386D01*
X257326Y733720D01*
X260658D01*
X262325Y735386D01*
Y743717D01*
X270655Y733720D02*
Y743717D01*
X265657Y738718D01*
X272321D01*
X151835Y565917D02*
X145170D01*
Y560919D01*
X148502Y562585D01*
X150169D01*
X151835Y560919D01*
Y557586D01*
X150169Y555920D01*
X146836D01*
X145170Y557586D01*
X155167Y565917D02*
Y559252D01*
X158499Y555920D01*
X161831Y559252D01*
Y565917D01*
X235340Y547741D02*
X237006Y549407D01*
X240338D01*
X242005Y547741D01*
Y546075D01*
X240338Y544408D01*
X238672D01*
X240338D01*
X242005Y542742D01*
Y541076D01*
X240338Y539410D01*
X237006D01*
X235340Y541076D01*
X245337Y539410D02*
Y541076D01*
X247003D01*
Y539410D01*
X245337D01*
X253668Y547741D02*
X255334Y549407D01*
X258666D01*
X260332Y547741D01*
Y546075D01*
X258666Y544408D01*
X257000D01*
X258666D01*
X260332Y542742D01*
Y541076D01*
X258666Y539410D01*
X255334D01*
X253668Y541076D01*
X263664Y549407D02*
Y542742D01*
X266997Y539410D01*
X270329Y542742D01*
Y549407D01*
X158218Y220390D02*
Y210233D01*
X163296Y215312D02*
X153139D01*
D27*
X373830Y247030D02*
G03*
X373830Y247030I-3000J0D01*
G01*
D39*
X297160Y458790D02*
G03*
X297160Y458790I-1250J0D01*
G01*
X122010Y378480D02*
G03*
X122010Y378480I-1250J0D01*
G01*
D40*
X126594Y372980D02*
G03*
X136927Y372980I5167J0D01*
G01*
X360830Y202030D02*
Y257030D01*
X398830Y202030D02*
Y257030D01*
X360830D02*
X398830D01*
X360830Y202030D02*
X398830D01*
X19440Y139360D02*
X44840D01*
Y526710D01*
Y545760D01*
X19440D02*
X44840D01*
X19440Y139360D02*
Y545760D01*
X271140Y206600D02*
X301140D01*
Y229600D01*
X271140D02*
X301140D01*
X271140Y206600D02*
Y229600D01*
X147260Y293980D02*
Y372980D01*
X116260Y293980D02*
Y372980D01*
Y293980D02*
X147260D01*
X136927Y372980D02*
X147260D01*
X116260D02*
X126594D01*
D41*
X268470Y716550D02*
D03*
X189710Y706310D02*
D03*
M02*
