%FSLAX44Y44*%
%MOMM*%
G71*
G01*
G75*
G04 Layer_Physical_Order=2*
G04 Layer_Color=16711680*
%ADD10R,1.4000X0.6500*%
%ADD11R,1.7800X0.4200*%
%ADD12R,1.0000X1.1000*%
%ADD13R,1.1000X1.0000*%
%ADD14R,0.3000X1.4000*%
%ADD15R,1.1000X1.9000*%
%ADD16R,0.6000X1.4000*%
%ADD17R,1.4500X0.5500*%
%ADD18R,0.5500X1.4500*%
%ADD19R,1.7000X0.6500*%
%ADD20R,0.8000X0.8000*%
%ADD21R,3.5000X2.6000*%
%ADD22C,1.0000*%
%ADD23C,0.2540*%
%ADD24C,0.3000*%
%ADD25C,0.7000*%
%ADD26C,0.4000*%
%ADD27C,0.5000*%
%ADD28C,0.6000*%
%ADD29C,4.0000*%
%ADD30R,1.5000X1.5000*%
%ADD31C,1.5000*%
%ADD32C,2.5000*%
%ADD33C,1.5240*%
%ADD34C,1.9000*%
%ADD35C,1.6000*%
%ADD36C,1.2700*%
%ADD37R,2.4000X3.0000*%
%ADD38R,0.6000X1.3000*%
G36*
X673000Y767102D02*
X673000Y11898D01*
X672102Y11000D01*
X10803Y11000D01*
X9905Y11898D01*
X10613Y768000D01*
X26586D01*
X28268Y766619D01*
X32090Y764576D01*
X36237Y763318D01*
X40550Y762894D01*
X44863Y763318D01*
X49010Y764576D01*
X52832Y766619D01*
X54514Y768000D01*
X630796Y768000D01*
X632479Y766619D01*
X636301Y764576D01*
X640448Y763318D01*
X644760Y762894D01*
X649073Y763318D01*
X653220Y764576D01*
X657042Y766619D01*
X658725Y768000D01*
X672102D01*
X673000Y767102D01*
D02*
G37*
%LPC*%
G36*
X626500Y250505D02*
X622715Y250007D01*
X619188Y248546D01*
X616159Y246222D01*
X613835Y243193D01*
X612374Y239665D01*
X611875Y235880D01*
X612374Y232095D01*
X613835Y228568D01*
X616159Y225539D01*
X619188Y223214D01*
X622715Y221753D01*
X626500Y221255D01*
X630285Y221753D01*
X633813Y223214D01*
X636842Y225539D01*
X639166Y228568D01*
X640627Y232095D01*
X641125Y235880D01*
X640627Y239665D01*
X639166Y243193D01*
X636842Y246222D01*
X633813Y248546D01*
X630285Y250007D01*
X626500Y250505D01*
D02*
G37*
G36*
X32140Y263242D02*
X29660Y262916D01*
X27349Y261958D01*
X25365Y260436D01*
X23842Y258451D01*
X22885Y256140D01*
X22558Y253660D01*
X22885Y251180D01*
X23842Y248869D01*
X25365Y246885D01*
X27349Y245362D01*
X29660Y244405D01*
X32140Y244078D01*
X34620Y244405D01*
X36931Y245362D01*
X38916Y246885D01*
X40438Y248869D01*
X41396Y251180D01*
X41722Y253660D01*
X41396Y256140D01*
X40438Y258451D01*
X38916Y260436D01*
X36931Y261958D01*
X34620Y262916D01*
X32140Y263242D01*
D02*
G37*
G36*
X182000Y384002D02*
X179820Y383715D01*
X177789Y382874D01*
X176045Y381535D01*
X174706Y379791D01*
X173865Y377760D01*
X173578Y375580D01*
X173865Y373400D01*
X174706Y371369D01*
X176045Y369625D01*
X177789Y368286D01*
X179820Y367445D01*
X182000Y367158D01*
X184180Y367445D01*
X186211Y368286D01*
X186515Y368520D01*
X243846D01*
X279965Y332400D01*
X231193Y283628D01*
X229350Y283385D01*
X227319Y282544D01*
X225575Y281205D01*
X224236Y279461D01*
X223395Y277430D01*
X223108Y275250D01*
X223395Y273070D01*
X224236Y271039D01*
X225575Y269295D01*
X227319Y267956D01*
X229350Y267115D01*
X231530Y266828D01*
X233710Y267115D01*
X235741Y267956D01*
X237485Y269295D01*
X238824Y271039D01*
X239000Y271466D01*
X291750Y324215D01*
X292130Y324265D01*
X294161Y325106D01*
X294465Y325340D01*
X341312D01*
X341505Y323870D01*
X342346Y321839D01*
X343685Y320095D01*
X345429Y318756D01*
X347460Y317915D01*
X349640Y317628D01*
X351820Y317915D01*
X353851Y318756D01*
X355595Y320095D01*
X356934Y321839D01*
X357775Y323870D01*
X358062Y326050D01*
X357775Y328230D01*
X356934Y330261D01*
X356445Y330898D01*
X357679Y332132D01*
X366906D01*
X367159Y330862D01*
X367019Y330804D01*
X365275Y329465D01*
X363936Y327721D01*
X363095Y325690D01*
X362808Y323510D01*
X363095Y321330D01*
X363936Y319299D01*
X365275Y317555D01*
X367019Y316216D01*
X367896Y315853D01*
Y272821D01*
X358419Y263344D01*
X353894D01*
X353362Y264614D01*
X354394Y265959D01*
X355235Y267990D01*
X355522Y270170D01*
X355235Y272350D01*
X354394Y274381D01*
X353055Y276125D01*
X351311Y277464D01*
X350434Y277827D01*
Y289220D01*
X350180Y290496D01*
X349458Y291578D01*
X322788Y318248D01*
X321706Y318970D01*
X320430Y319224D01*
X303920D01*
X302644Y318970D01*
X301563Y318248D01*
X291403Y308088D01*
X290680Y307006D01*
X290426Y305730D01*
Y296877D01*
X289549Y296514D01*
X287805Y295175D01*
X286466Y293431D01*
X285625Y291400D01*
X285338Y289220D01*
X285625Y287040D01*
X286466Y285009D01*
X287805Y283265D01*
X289549Y281926D01*
X291580Y281085D01*
X293760Y280798D01*
X295940Y281085D01*
X297971Y281926D01*
X299715Y283265D01*
X301054Y285009D01*
X301895Y287040D01*
X302182Y289220D01*
X301895Y291400D01*
X301054Y293431D01*
X299715Y295175D01*
X297971Y296514D01*
X297094Y296877D01*
Y304349D01*
X301556Y308811D01*
X302633Y308092D01*
X302135Y306890D01*
X301848Y304710D01*
X302135Y302530D01*
X302976Y300499D01*
X304315Y298755D01*
X306059Y297416D01*
X306936Y297053D01*
Y247310D01*
X307190Y246034D01*
X307913Y244953D01*
X326963Y225903D01*
X328044Y225180D01*
X329320Y224926D01*
X363573D01*
X363936Y224049D01*
X365275Y222305D01*
X367019Y220966D01*
X369050Y220125D01*
X371230Y219838D01*
X373410Y220125D01*
X375441Y220966D01*
X377185Y222305D01*
X378524Y224049D01*
X379365Y226080D01*
X379652Y228260D01*
X379413Y230076D01*
X380549Y230736D01*
X385676Y225609D01*
Y219407D01*
X384799Y219044D01*
X383055Y217705D01*
X381716Y215961D01*
X380875Y213930D01*
X380588Y211750D01*
X380875Y209570D01*
X381716Y207539D01*
X383055Y205795D01*
X384799Y204456D01*
X386830Y203615D01*
X389010Y203328D01*
X391190Y203615D01*
X393221Y204456D01*
X394965Y205795D01*
X396304Y207539D01*
X397145Y209570D01*
X397432Y211750D01*
X397145Y213930D01*
X396304Y215961D01*
X394965Y217705D01*
X393221Y219044D01*
X392344Y219407D01*
Y226990D01*
X392090Y228266D01*
X391368Y229348D01*
X380478Y240238D01*
X379396Y240960D01*
X378120Y241214D01*
X329971D01*
X319954Y251231D01*
Y258568D01*
X321224Y259000D01*
X322095Y257865D01*
X323839Y256526D01*
X325870Y255685D01*
X328050Y255398D01*
X330230Y255685D01*
X332261Y256526D01*
X334005Y257865D01*
X335038Y259211D01*
X336533Y259513D01*
X338393Y257653D01*
X339474Y256930D01*
X340750Y256676D01*
X359800D01*
X361076Y256930D01*
X362158Y257653D01*
X373588Y269083D01*
X374310Y270164D01*
X374564Y271440D01*
Y315853D01*
X375441Y316216D01*
X377185Y317555D01*
X378524Y319299D01*
X379365Y321330D01*
X379652Y323510D01*
X379365Y325690D01*
X378524Y327721D01*
X377185Y329465D01*
X375441Y330804D01*
X375301Y330862D01*
X375554Y332132D01*
X382241D01*
X423032Y291341D01*
Y270349D01*
X422899Y270294D01*
X421155Y268955D01*
X419816Y267211D01*
X418975Y265180D01*
X418688Y263000D01*
X418975Y260820D01*
X419816Y258789D01*
X421155Y257045D01*
X422899Y255706D01*
X424930Y254865D01*
X427110Y254578D01*
X429290Y254865D01*
X431321Y255706D01*
X433065Y257045D01*
X434404Y258789D01*
X435245Y260820D01*
X435532Y263000D01*
X435245Y265180D01*
X434404Y267211D01*
X433065Y268955D01*
X431321Y270294D01*
X431189Y270349D01*
Y293030D01*
X431189Y293030D01*
X430929Y294332D01*
X430878Y294591D01*
X429994Y295914D01*
X386814Y339094D01*
X385491Y339978D01*
X385232Y340029D01*
X383930Y340289D01*
X383930Y340288D01*
X355990D01*
X355990Y340289D01*
X354429Y339978D01*
X353106Y339094D01*
X351038Y337025D01*
X349771Y337108D01*
X349553Y337393D01*
X348090Y338515D01*
X346387Y339220D01*
X344560Y339460D01*
X294465D01*
X294161Y339694D01*
X292130Y340535D01*
X291750Y340585D01*
X251763Y380573D01*
X250300Y381695D01*
X248598Y382400D01*
X246770Y382640D01*
X186515D01*
X186211Y382874D01*
X184180Y383715D01*
X182000Y384002D01*
D02*
G37*
G36*
X269630Y226522D02*
X267450Y226235D01*
X265419Y225394D01*
X263675Y224055D01*
X262336Y222311D01*
X261495Y220280D01*
X261208Y218100D01*
X261495Y215920D01*
X262336Y213889D01*
X263675Y212145D01*
X265419Y210806D01*
X266296Y210443D01*
Y202860D01*
X266550Y201584D01*
X267273Y200503D01*
X281243Y186533D01*
X282324Y185810D01*
X283600Y185556D01*
X303883D01*
X304246Y184679D01*
X305585Y182935D01*
X307329Y181596D01*
X309360Y180755D01*
X311540Y180468D01*
X313720Y180755D01*
X315751Y181596D01*
X317495Y182935D01*
X318834Y184679D01*
X319675Y186710D01*
X319962Y188890D01*
X319675Y191070D01*
X318834Y193101D01*
X317495Y194845D01*
X315751Y196184D01*
X313720Y197025D01*
X311540Y197312D01*
X309360Y197025D01*
X307329Y196184D01*
X305585Y194845D01*
X304246Y193101D01*
X303883Y192224D01*
X284981D01*
X272964Y204241D01*
Y210443D01*
X273841Y210806D01*
X275585Y212145D01*
X276924Y213889D01*
X277765Y215920D01*
X278052Y218100D01*
X277765Y220280D01*
X276924Y222311D01*
X275585Y224055D01*
X273841Y225394D01*
X271810Y226235D01*
X269630Y226522D01*
D02*
G37*
G36*
X32140Y212442D02*
X29660Y212116D01*
X27349Y211158D01*
X25365Y209636D01*
X23842Y207651D01*
X22885Y205340D01*
X22558Y202860D01*
X22885Y200380D01*
X23842Y198069D01*
X25365Y196085D01*
X27349Y194562D01*
X29660Y193605D01*
X32140Y193278D01*
X34620Y193605D01*
X36931Y194562D01*
X38916Y196085D01*
X40438Y198069D01*
X41396Y200380D01*
X41722Y202860D01*
X41396Y205340D01*
X40438Y207651D01*
X38916Y209636D01*
X36931Y211158D01*
X34620Y212116D01*
X32140Y212442D01*
D02*
G37*
G36*
Y237842D02*
X29660Y237516D01*
X27349Y236558D01*
X25365Y235035D01*
X23842Y233051D01*
X22885Y230740D01*
X22558Y228260D01*
X22885Y225780D01*
X23842Y223469D01*
X25365Y221485D01*
X27349Y219962D01*
X29660Y219005D01*
X32140Y218678D01*
X34620Y219005D01*
X36931Y219962D01*
X38916Y221485D01*
X40438Y223469D01*
X41396Y225780D01*
X41722Y228260D01*
X41396Y230740D01*
X40438Y233051D01*
X38916Y235035D01*
X36931Y236558D01*
X34620Y237516D01*
X32140Y237842D01*
D02*
G37*
G36*
Y288642D02*
X29660Y288316D01*
X27349Y287358D01*
X25365Y285835D01*
X23842Y283851D01*
X22885Y281540D01*
X22558Y279060D01*
X22885Y276580D01*
X23842Y274269D01*
X25365Y272285D01*
X27349Y270762D01*
X29660Y269805D01*
X32140Y269478D01*
X34620Y269805D01*
X36931Y270762D01*
X38916Y272285D01*
X40438Y274269D01*
X41396Y276580D01*
X41722Y279060D01*
X41396Y281540D01*
X40438Y283851D01*
X38916Y285835D01*
X36931Y287358D01*
X34620Y288316D01*
X32140Y288642D01*
D02*
G37*
G36*
Y364842D02*
X29660Y364516D01*
X27349Y363558D01*
X25365Y362035D01*
X23842Y360051D01*
X22885Y357740D01*
X22558Y355260D01*
X22885Y352780D01*
X23842Y350469D01*
X25365Y348485D01*
X27349Y346962D01*
X29660Y346005D01*
X32140Y345678D01*
X34620Y346005D01*
X36931Y346962D01*
X38916Y348485D01*
X40438Y350469D01*
X41396Y352780D01*
X41722Y355260D01*
X41396Y357740D01*
X40438Y360051D01*
X38916Y362035D01*
X36931Y363558D01*
X34620Y364516D01*
X32140Y364842D01*
D02*
G37*
G36*
Y390242D02*
X29660Y389916D01*
X27349Y388958D01*
X25365Y387435D01*
X23842Y385451D01*
X22885Y383140D01*
X22558Y380660D01*
X22885Y378180D01*
X23842Y375869D01*
X25365Y373885D01*
X27349Y372362D01*
X29660Y371405D01*
X32140Y371078D01*
X34620Y371405D01*
X36931Y372362D01*
X38916Y373885D01*
X40438Y375869D01*
X41396Y378180D01*
X41722Y380660D01*
X41396Y383140D01*
X40438Y385451D01*
X38916Y387435D01*
X36931Y388958D01*
X34620Y389916D01*
X32140Y390242D01*
D02*
G37*
G36*
X626500Y402905D02*
X622715Y402407D01*
X619188Y400946D01*
X616159Y398622D01*
X613835Y395593D01*
X612374Y392065D01*
X611875Y388280D01*
X612374Y384495D01*
X613835Y380968D01*
X616159Y377939D01*
X619188Y375614D01*
X622715Y374153D01*
X626500Y373655D01*
X630285Y374153D01*
X633813Y375614D01*
X636842Y377939D01*
X639166Y380968D01*
X640627Y384495D01*
X641125Y388280D01*
X640627Y392065D01*
X639166Y395593D01*
X636842Y398622D01*
X633813Y400946D01*
X630285Y402407D01*
X626500Y402905D01*
D02*
G37*
G36*
Y301305D02*
X622715Y300807D01*
X619188Y299346D01*
X616159Y297022D01*
X613835Y293993D01*
X612374Y290465D01*
X611875Y286680D01*
X612374Y282895D01*
X613835Y279368D01*
X616159Y276339D01*
X619188Y274014D01*
X622715Y272553D01*
X626500Y272055D01*
X630285Y272553D01*
X633813Y274014D01*
X636842Y276339D01*
X639166Y279368D01*
X640627Y282895D01*
X641125Y286680D01*
X640627Y290465D01*
X639166Y293993D01*
X636842Y297022D01*
X633813Y299346D01*
X630285Y300807D01*
X626500Y301305D01*
D02*
G37*
G36*
X32140Y314042D02*
X29660Y313716D01*
X27349Y312758D01*
X25365Y311236D01*
X23842Y309251D01*
X22885Y306940D01*
X22558Y304460D01*
X22885Y301980D01*
X23842Y299669D01*
X25365Y297685D01*
X27349Y296162D01*
X29660Y295205D01*
X32140Y294878D01*
X34620Y295205D01*
X36931Y296162D01*
X38916Y297685D01*
X40438Y299669D01*
X41396Y301980D01*
X41722Y304460D01*
X41396Y306940D01*
X40438Y309251D01*
X38916Y311236D01*
X36931Y312758D01*
X34620Y313716D01*
X32140Y314042D01*
D02*
G37*
G36*
Y339442D02*
X29660Y339116D01*
X27349Y338158D01*
X25365Y336636D01*
X23842Y334651D01*
X22885Y332340D01*
X22558Y329860D01*
X22885Y327380D01*
X23842Y325069D01*
X25365Y323085D01*
X27349Y321562D01*
X29660Y320605D01*
X32140Y320278D01*
X34620Y320605D01*
X36931Y321562D01*
X38916Y323085D01*
X40438Y325069D01*
X41396Y327380D01*
X41722Y329860D01*
X41396Y332340D01*
X40438Y334651D01*
X38916Y336636D01*
X36931Y338158D01*
X34620Y339116D01*
X32140Y339442D01*
D02*
G37*
G36*
X500820Y42262D02*
X498340Y41936D01*
X496029Y40978D01*
X494045Y39456D01*
X492522Y37471D01*
X491565Y35160D01*
X491238Y32680D01*
X491565Y30200D01*
X492522Y27889D01*
X494045Y25905D01*
X496029Y24382D01*
X498340Y23425D01*
X500820Y23098D01*
X503300Y23425D01*
X505611Y24382D01*
X507596Y25905D01*
X509118Y27889D01*
X510076Y30200D01*
X510402Y32680D01*
X510076Y35160D01*
X509118Y37471D01*
X507596Y39456D01*
X505611Y40978D01*
X503300Y41936D01*
X500820Y42262D01*
D02*
G37*
G36*
X526220D02*
X523740Y41936D01*
X521429Y40978D01*
X519445Y39456D01*
X517922Y37471D01*
X516965Y35160D01*
X516638Y32680D01*
X516965Y30200D01*
X517922Y27889D01*
X519445Y25905D01*
X521429Y24382D01*
X523740Y23425D01*
X526220Y23098D01*
X528700Y23425D01*
X531011Y24382D01*
X532996Y25905D01*
X534519Y27889D01*
X535476Y30200D01*
X535802Y32680D01*
X535476Y35160D01*
X534519Y37471D01*
X532996Y39456D01*
X531011Y40978D01*
X528700Y41936D01*
X526220Y42262D01*
D02*
G37*
G36*
X513520Y67662D02*
X511040Y67336D01*
X508729Y66378D01*
X506745Y64856D01*
X505222Y62871D01*
X504265Y60560D01*
X503938Y58080D01*
X504265Y55600D01*
X505222Y53289D01*
X506745Y51305D01*
X508729Y49782D01*
X511040Y48825D01*
X513520Y48498D01*
X516000Y48825D01*
X518311Y49782D01*
X520296Y51305D01*
X521819Y53289D01*
X522776Y55600D01*
X523102Y58080D01*
X522776Y60560D01*
X521819Y62871D01*
X520296Y64856D01*
X518311Y66378D01*
X516000Y67336D01*
X513520Y67662D01*
D02*
G37*
G36*
X644760Y65736D02*
X640448Y65312D01*
X636301Y64054D01*
X632479Y62011D01*
X629129Y59262D01*
X626380Y55912D01*
X624337Y52090D01*
X623079Y47943D01*
X622654Y43630D01*
X623079Y39317D01*
X624337Y35170D01*
X626380Y31348D01*
X629129Y27998D01*
X632479Y25249D01*
X636301Y23206D01*
X640448Y21948D01*
X644760Y21523D01*
X649073Y21948D01*
X653220Y23206D01*
X657042Y25249D01*
X660392Y27998D01*
X663141Y31348D01*
X665184Y35170D01*
X666442Y39317D01*
X666867Y43630D01*
X666442Y47943D01*
X665184Y52090D01*
X663141Y55912D01*
X660392Y59262D01*
X657042Y62011D01*
X653220Y64054D01*
X649073Y65312D01*
X644760Y65736D01*
D02*
G37*
G36*
X40550Y65736D02*
X36237Y65312D01*
X32090Y64054D01*
X28268Y62011D01*
X24918Y59262D01*
X22169Y55912D01*
X20126Y52090D01*
X18868Y47943D01*
X18444Y43630D01*
X18868Y39317D01*
X20126Y35170D01*
X22169Y31348D01*
X24918Y27998D01*
X28268Y25249D01*
X32090Y23206D01*
X36237Y21948D01*
X40550Y21523D01*
X44863Y21948D01*
X49010Y23206D01*
X52832Y25249D01*
X56182Y27998D01*
X58931Y31348D01*
X60974Y35170D01*
X62232Y39317D01*
X62656Y43630D01*
X62232Y47943D01*
X60974Y52090D01*
X58931Y55912D01*
X56182Y59262D01*
X52832Y62011D01*
X49010Y64054D01*
X44863Y65312D01*
X40550Y65736D01*
D02*
G37*
G36*
X475420Y42262D02*
X472940Y41936D01*
X470629Y40978D01*
X468645Y39456D01*
X467122Y37471D01*
X466165Y35160D01*
X465838Y32680D01*
X466165Y30200D01*
X467122Y27889D01*
X468645Y25905D01*
X470629Y24382D01*
X472940Y23425D01*
X475420Y23098D01*
X477900Y23425D01*
X480211Y24382D01*
X482196Y25905D01*
X483718Y27889D01*
X484676Y30200D01*
X485002Y32680D01*
X484676Y35160D01*
X483718Y37471D01*
X482196Y39456D01*
X480211Y40978D01*
X477900Y41936D01*
X475420Y42262D01*
D02*
G37*
G36*
X462720Y67662D02*
X460240Y67336D01*
X457929Y66378D01*
X455945Y64856D01*
X454422Y62871D01*
X453819Y61414D01*
X372537D01*
X372174Y62291D01*
X370835Y64035D01*
X369091Y65374D01*
X367060Y66215D01*
X364880Y66502D01*
X362700Y66215D01*
X360669Y65374D01*
X358925Y64035D01*
X357586Y62291D01*
X356745Y60260D01*
X356458Y58080D01*
X356745Y55900D01*
X357586Y53869D01*
X358925Y52125D01*
X360669Y50786D01*
X362700Y49945D01*
X364880Y49658D01*
X367060Y49945D01*
X369091Y50786D01*
X370835Y52125D01*
X372174Y53869D01*
X372537Y54746D01*
X453819D01*
X454422Y53289D01*
X455945Y51305D01*
X457929Y49782D01*
X460240Y48825D01*
X462720Y48498D01*
X465200Y48825D01*
X467511Y49782D01*
X469496Y51305D01*
X471018Y53289D01*
X471976Y55600D01*
X472302Y58080D01*
X471976Y60560D01*
X471018Y62871D01*
X469496Y64856D01*
X467511Y66378D01*
X465200Y67336D01*
X462720Y67662D01*
D02*
G37*
G36*
X156600Y235412D02*
X154420Y235125D01*
X152389Y234284D01*
X150645Y232945D01*
X149306Y231201D01*
X148465Y229170D01*
X148178Y226990D01*
X148465Y224810D01*
X149306Y222779D01*
X150645Y221035D01*
X152389Y219696D01*
X154420Y218855D01*
X156600Y218568D01*
X158309Y218793D01*
X207966Y169136D01*
X209454Y168141D01*
X211210Y167792D01*
X318506D01*
X319555Y166425D01*
X321299Y165086D01*
X323330Y164245D01*
X325510Y163958D01*
X327690Y164245D01*
X329721Y165086D01*
X331465Y166425D01*
X332804Y168169D01*
X333645Y170200D01*
X333932Y172380D01*
X333645Y174560D01*
X332804Y176591D01*
X331465Y178335D01*
X329721Y179674D01*
X327690Y180515D01*
X325510Y180802D01*
X323330Y180515D01*
X321299Y179674D01*
X319555Y178335D01*
X318506Y176968D01*
X213111D01*
X164797Y225282D01*
X165022Y226990D01*
X164735Y229170D01*
X163894Y231201D01*
X162555Y232945D01*
X160811Y234284D01*
X158780Y235125D01*
X156600Y235412D01*
D02*
G37*
G36*
X88020Y399242D02*
X85840Y398955D01*
X83809Y398114D01*
X82065Y396775D01*
X80726Y395031D01*
X79885Y393000D01*
X79643Y391157D01*
X60168Y371683D01*
X59046Y370220D01*
X58340Y368517D01*
X58100Y366690D01*
Y213405D01*
X31676Y186981D01*
X29660Y186716D01*
X27349Y185758D01*
X25365Y184235D01*
X23842Y182251D01*
X22885Y179940D01*
X22558Y177460D01*
X22885Y174980D01*
X23842Y172669D01*
X25365Y170685D01*
X27349Y169162D01*
X29660Y168205D01*
X32140Y167878D01*
X34620Y168205D01*
X36931Y169162D01*
X38916Y170685D01*
X40438Y172669D01*
X41396Y174980D01*
X41661Y176996D01*
X70153Y205488D01*
X71275Y206950D01*
X71980Y208653D01*
X72221Y210480D01*
Y363766D01*
X91805Y383350D01*
X92231Y383526D01*
X93975Y384865D01*
X95314Y386609D01*
X96155Y388640D01*
X96442Y390820D01*
X96155Y393000D01*
X95314Y395031D01*
X93975Y396775D01*
X92231Y398114D01*
X90200Y398955D01*
X88020Y399242D01*
D02*
G37*
G36*
X626500Y199705D02*
X622715Y199207D01*
X619188Y197746D01*
X616159Y195422D01*
X613835Y192393D01*
X612374Y188865D01*
X611875Y185080D01*
X612374Y181295D01*
X613835Y177768D01*
X616159Y174739D01*
X619188Y172414D01*
X622715Y170953D01*
X626500Y170455D01*
X630285Y170953D01*
X633813Y172414D01*
X636842Y174739D01*
X639166Y177768D01*
X640627Y181295D01*
X641125Y185080D01*
X640627Y188865D01*
X639166Y192393D01*
X636842Y195422D01*
X633813Y197746D01*
X630285Y199207D01*
X626500Y199705D01*
D02*
G37*
G36*
X443620Y139918D02*
X440043Y139566D01*
X436603Y138523D01*
X433432Y136828D01*
X430653Y134547D01*
X428372Y131768D01*
X426678Y128598D01*
X425634Y125158D01*
X425282Y121580D01*
X425634Y118003D01*
X426678Y114562D01*
X428372Y111392D01*
X430653Y108613D01*
X433432Y106332D01*
X436603Y104638D01*
X440043Y103594D01*
X443620Y103242D01*
X447198Y103594D01*
X450638Y104638D01*
X453809Y106332D01*
X456587Y108613D01*
X458868Y111392D01*
X460563Y114562D01*
X461606Y118003D01*
X461959Y121580D01*
X461606Y125158D01*
X460563Y128598D01*
X458868Y131768D01*
X456587Y134547D01*
X453809Y136828D01*
X450638Y138523D01*
X447198Y139566D01*
X443620Y139918D01*
D02*
G37*
G36*
X545220D02*
X541643Y139566D01*
X538203Y138523D01*
X535032Y136828D01*
X532253Y134547D01*
X529972Y131768D01*
X528278Y128598D01*
X527234Y125158D01*
X526882Y121580D01*
X527234Y118003D01*
X528278Y114562D01*
X529972Y111392D01*
X532253Y108613D01*
X535032Y106332D01*
X538203Y104638D01*
X541643Y103594D01*
X545220Y103242D01*
X548798Y103594D01*
X552238Y104638D01*
X555409Y106332D01*
X558187Y108613D01*
X560468Y111392D01*
X562163Y114562D01*
X563206Y118003D01*
X563559Y121580D01*
X563206Y125158D01*
X562163Y128598D01*
X560468Y131768D01*
X558187Y134547D01*
X555409Y136828D01*
X552238Y138523D01*
X548798Y139566D01*
X545220Y139918D01*
D02*
G37*
G36*
X626500Y148905D02*
X622715Y148407D01*
X619188Y146946D01*
X616159Y144622D01*
X613835Y141593D01*
X612374Y138065D01*
X611875Y134280D01*
X612374Y130495D01*
X613835Y126968D01*
X616159Y123939D01*
X619188Y121614D01*
X622715Y120153D01*
X626500Y119655D01*
X630285Y120153D01*
X633813Y121614D01*
X636842Y123939D01*
X639166Y126968D01*
X640627Y130495D01*
X641125Y134280D01*
X640627Y138065D01*
X639166Y141593D01*
X636842Y144622D01*
X633813Y146946D01*
X630285Y148407D01*
X626500Y148905D01*
D02*
G37*
G36*
X256960Y421790D02*
X228960D01*
Y387790D01*
X256960D01*
Y400202D01*
X258840D01*
X261433Y397609D01*
X261208Y395900D01*
X261495Y393720D01*
X262336Y391689D01*
X263675Y389945D01*
X265419Y388606D01*
X267450Y387765D01*
X269630Y387478D01*
X271810Y387765D01*
X273841Y388606D01*
X275585Y389945D01*
X276924Y391689D01*
X277765Y393720D01*
X278052Y395900D01*
X277765Y398080D01*
X276924Y400111D01*
X275585Y401855D01*
X273841Y403194D01*
X271810Y404035D01*
X269630Y404322D01*
X267922Y404097D01*
X263984Y408034D01*
X262496Y409029D01*
X260740Y409378D01*
X256960D01*
Y421790D01*
D02*
G37*
G36*
X35950Y655672D02*
X33470Y655346D01*
X31159Y654388D01*
X29175Y652866D01*
X27652Y650881D01*
X26695Y648570D01*
X26368Y646090D01*
X26695Y643610D01*
X27652Y641299D01*
X29175Y639315D01*
X31159Y637792D01*
X33470Y636835D01*
X35950Y636508D01*
X38430Y636835D01*
X40741Y637792D01*
X42726Y639315D01*
X44248Y641299D01*
X45206Y643610D01*
X45532Y646090D01*
X45206Y648570D01*
X44248Y650881D01*
X42726Y652866D01*
X40741Y654388D01*
X38430Y655346D01*
X35950Y655672D01*
D02*
G37*
G36*
X61350D02*
X58870Y655346D01*
X56559Y654388D01*
X54575Y652866D01*
X53052Y650881D01*
X52095Y648570D01*
X51768Y646090D01*
X52095Y643610D01*
X53052Y641299D01*
X54575Y639315D01*
X56559Y637792D01*
X58870Y636835D01*
X61350Y636508D01*
X63830Y636835D01*
X66141Y637792D01*
X68126Y639315D01*
X69648Y641299D01*
X70606Y643610D01*
X70932Y646090D01*
X70606Y648570D01*
X69648Y650881D01*
X68126Y652866D01*
X66141Y654388D01*
X63830Y655346D01*
X61350Y655672D01*
D02*
G37*
G36*
X433460Y682535D02*
X429675Y682037D01*
X426148Y680576D01*
X423119Y678252D01*
X420794Y675223D01*
X419333Y671695D01*
X418835Y667910D01*
X419333Y664125D01*
X420794Y660598D01*
X423119Y657569D01*
X426148Y655244D01*
X429675Y653783D01*
X433460Y653285D01*
X437245Y653783D01*
X440773Y655244D01*
X443802Y657569D01*
X446126Y660598D01*
X447587Y664125D01*
X448085Y667910D01*
X447587Y671695D01*
X446126Y675223D01*
X443802Y678252D01*
X440773Y680576D01*
X437245Y682037D01*
X433460Y682535D01*
D02*
G37*
G36*
X340750Y644352D02*
X338570Y644065D01*
X336539Y643224D01*
X334795Y641885D01*
X333456Y640141D01*
X332615Y638110D01*
X332328Y635930D01*
X332615Y633750D01*
X333456Y631719D01*
X333690Y631415D01*
Y598215D01*
X309886Y574411D01*
X306648D01*
X305772Y575552D01*
X303370Y577395D01*
X300572Y578554D01*
X297570Y578949D01*
X294568Y578554D01*
X291770Y577395D01*
X289368Y575552D01*
X287525Y573150D01*
X286366Y570352D01*
X285971Y567350D01*
X286366Y564348D01*
X287525Y561550D01*
X289368Y559148D01*
X290510Y558272D01*
Y525440D01*
X290750Y523613D01*
X291456Y521910D01*
X292578Y520448D01*
X338298Y474728D01*
X339760Y473606D01*
X340460Y473316D01*
X341619Y472426D01*
X343650Y471585D01*
X345830Y471298D01*
X348010Y471585D01*
X350041Y472426D01*
X351785Y473765D01*
X353124Y475509D01*
X353965Y477540D01*
X354252Y479720D01*
X353965Y481900D01*
X353124Y483931D01*
X351785Y485675D01*
X350350Y486776D01*
Y493690D01*
X350110Y495517D01*
X349405Y497220D01*
X348283Y498683D01*
X346540Y500425D01*
Y517820D01*
X346480Y518279D01*
Y525320D01*
X332480D01*
Y518279D01*
X332420Y517820D01*
Y502235D01*
X331246Y501749D01*
X304631Y528365D01*
Y558272D01*
X305772Y559148D01*
X306648Y560290D01*
X312810D01*
X314638Y560530D01*
X316340Y561236D01*
X317803Y562358D01*
X345743Y590298D01*
X346865Y591760D01*
X347570Y593463D01*
X347811Y595290D01*
Y621525D01*
X348984Y622011D01*
X357880Y613115D01*
Y608600D01*
X371880D01*
Y615641D01*
X371940Y616100D01*
X371880Y616559D01*
Y623600D01*
X367365D01*
X350043Y640922D01*
X348580Y642045D01*
X346878Y642750D01*
X345310Y642956D01*
X344961Y643224D01*
X342930Y644065D01*
X340750Y644352D01*
D02*
G37*
G36*
X35950Y630272D02*
X33470Y629946D01*
X31159Y628988D01*
X29175Y627466D01*
X27652Y625481D01*
X26695Y623170D01*
X26368Y620690D01*
X26695Y618210D01*
X27652Y615899D01*
X29175Y613915D01*
X31159Y612392D01*
X33470Y611435D01*
X35950Y611108D01*
X38430Y611435D01*
X40741Y612392D01*
X42726Y613915D01*
X44248Y615899D01*
X45206Y618210D01*
X45532Y620690D01*
X45206Y623170D01*
X44248Y625481D01*
X42726Y627466D01*
X40741Y628988D01*
X38430Y629946D01*
X35950Y630272D01*
D02*
G37*
G36*
X61350D02*
X58870Y629946D01*
X56559Y628988D01*
X54575Y627466D01*
X53052Y625481D01*
X52095Y623170D01*
X51768Y620690D01*
X52095Y618210D01*
X53052Y615899D01*
X54575Y613915D01*
X56559Y612392D01*
X58870Y611435D01*
X61350Y611108D01*
X63830Y611435D01*
X66141Y612392D01*
X68126Y613915D01*
X69648Y615899D01*
X70606Y618210D01*
X70932Y620690D01*
X70606Y623170D01*
X69648Y625481D01*
X68126Y627466D01*
X66141Y628988D01*
X63830Y629946D01*
X61350Y630272D01*
D02*
G37*
G36*
Y681072D02*
X58870Y680746D01*
X56559Y679788D01*
X54575Y678266D01*
X53052Y676281D01*
X52095Y673970D01*
X51768Y671490D01*
X52095Y669010D01*
X53052Y666699D01*
X54575Y664715D01*
X56559Y663192D01*
X58870Y662235D01*
X61350Y661908D01*
X63830Y662235D01*
X66141Y663192D01*
X68126Y664715D01*
X69648Y666699D01*
X70606Y669010D01*
X70932Y671490D01*
X70606Y673970D01*
X69648Y676281D01*
X68126Y678266D01*
X66141Y679788D01*
X63830Y680746D01*
X61350Y681072D01*
D02*
G37*
G36*
X35950Y706472D02*
X33470Y706146D01*
X31159Y705188D01*
X29175Y703665D01*
X27652Y701681D01*
X26695Y699370D01*
X26368Y696890D01*
X26695Y694410D01*
X27652Y692099D01*
X29175Y690115D01*
X31159Y688592D01*
X33470Y687635D01*
X35950Y687308D01*
X38430Y687635D01*
X40741Y688592D01*
X42726Y690115D01*
X44248Y692099D01*
X45206Y694410D01*
X45532Y696890D01*
X45206Y699370D01*
X44248Y701681D01*
X42726Y703665D01*
X40741Y705188D01*
X38430Y706146D01*
X35950Y706472D01*
D02*
G37*
G36*
X61350D02*
X58870Y706146D01*
X56559Y705188D01*
X54575Y703665D01*
X53052Y701681D01*
X52095Y699370D01*
X51768Y696890D01*
X52095Y694410D01*
X53052Y692099D01*
X54575Y690115D01*
X56559Y688592D01*
X58870Y687635D01*
X61350Y687308D01*
X63830Y687635D01*
X66141Y688592D01*
X68126Y690115D01*
X69648Y692099D01*
X70606Y694410D01*
X70932Y696890D01*
X70606Y699370D01*
X69648Y701681D01*
X68126Y703665D01*
X66141Y705188D01*
X63830Y706146D01*
X61350Y706472D01*
D02*
G37*
G36*
X510930Y737456D02*
X508320Y737113D01*
X505887Y736105D01*
X503798Y734502D01*
X502195Y732413D01*
X501188Y729981D01*
X500844Y727370D01*
X501188Y724760D01*
X502195Y722327D01*
X503798Y720238D01*
X505887Y718635D01*
X508320Y717627D01*
X510930Y717284D01*
X513541Y717627D01*
X515973Y718635D01*
X518062Y720238D01*
X519665Y722327D01*
X520673Y724760D01*
X521016Y727370D01*
X520673Y729981D01*
X519665Y732413D01*
X518062Y734502D01*
X515973Y736105D01*
X513541Y737113D01*
X510930Y737456D01*
D02*
G37*
G36*
Y686656D02*
X508320Y686313D01*
X505887Y685305D01*
X503798Y683702D01*
X502195Y681613D01*
X501188Y679181D01*
X500844Y676570D01*
X501188Y673960D01*
X502195Y671527D01*
X503798Y669438D01*
X505887Y667835D01*
X508320Y666827D01*
X510930Y666484D01*
X513541Y666827D01*
X515973Y667835D01*
X518062Y669438D01*
X519665Y671527D01*
X520673Y673960D01*
X521016Y676570D01*
X520673Y679181D01*
X519665Y681613D01*
X518062Y683702D01*
X515973Y685305D01*
X513541Y686313D01*
X510930Y686656D01*
D02*
G37*
G36*
X234070Y738332D02*
X231890Y738045D01*
X229859Y737204D01*
X228115Y735865D01*
X226776Y734121D01*
X225935Y732090D01*
X225648Y729910D01*
X225935Y727730D01*
X226776Y725699D01*
X228115Y723955D01*
X229859Y722616D01*
X231890Y721775D01*
X234070Y721488D01*
X235779Y721713D01*
X274006Y683486D01*
X275494Y682491D01*
X277250Y682142D01*
X317236D01*
X318285Y680775D01*
X320029Y679436D01*
X322060Y678595D01*
X324240Y678308D01*
X326420Y678595D01*
X328451Y679436D01*
X330195Y680775D01*
X331534Y682519D01*
X332375Y684550D01*
X332662Y686730D01*
X332375Y688910D01*
X331534Y690941D01*
X330195Y692685D01*
X328451Y694024D01*
X326420Y694865D01*
X324240Y695152D01*
X322060Y694865D01*
X320029Y694024D01*
X318285Y692685D01*
X317236Y691318D01*
X279151D01*
X242267Y728202D01*
X242492Y729910D01*
X242205Y732090D01*
X241364Y734121D01*
X240025Y735865D01*
X238281Y737204D01*
X236250Y738045D01*
X234070Y738332D01*
D02*
G37*
G36*
X626500Y707705D02*
X622715Y707207D01*
X619188Y705746D01*
X616159Y703422D01*
X613835Y700393D01*
X612374Y696865D01*
X611875Y693080D01*
X612374Y689295D01*
X613835Y685768D01*
X616159Y682739D01*
X619188Y680414D01*
X622715Y678953D01*
X626500Y678455D01*
X630285Y678953D01*
X633813Y680414D01*
X636842Y682739D01*
X639166Y685768D01*
X640627Y689295D01*
X641125Y693080D01*
X640627Y696865D01*
X639166Y700393D01*
X636842Y703422D01*
X633813Y705746D01*
X630285Y707207D01*
X626500Y707705D01*
D02*
G37*
G36*
X397870Y607600D02*
X387870D01*
Y606161D01*
X371880D01*
Y606600D01*
X357880D01*
Y599559D01*
X357820Y599100D01*
X357880Y598641D01*
Y591600D01*
X371880D01*
Y592040D01*
X387870D01*
Y590600D01*
X388792D01*
Y555119D01*
X381046Y547374D01*
X380162Y546051D01*
X380111Y545792D01*
X379852Y544490D01*
X379852Y544490D01*
Y428920D01*
X379852Y428920D01*
X380111Y427618D01*
X380162Y427359D01*
X381046Y426036D01*
X425496Y381586D01*
X425496Y381586D01*
X426819Y380702D01*
X427078Y380651D01*
X428380Y380392D01*
X428380Y380392D01*
X471831D01*
X471886Y380259D01*
X473225Y378515D01*
X474969Y377176D01*
X477000Y376335D01*
X479180Y376048D01*
X481360Y376335D01*
X483391Y377176D01*
X485135Y378515D01*
X486474Y380259D01*
X487315Y382290D01*
X487602Y384470D01*
X487315Y386650D01*
X486474Y388681D01*
X485135Y390425D01*
X483391Y391764D01*
X481360Y392605D01*
X479180Y392892D01*
X477000Y392605D01*
X474969Y391764D01*
X473225Y390425D01*
X471886Y388681D01*
X471831Y388548D01*
X430069D01*
X388008Y430609D01*
Y542801D01*
X395754Y550546D01*
X395754Y550546D01*
X396638Y551869D01*
X396949Y553430D01*
Y590600D01*
X397870D01*
Y594118D01*
X398985Y595570D01*
X399690Y597273D01*
X399930Y599100D01*
X399690Y600927D01*
X398985Y602630D01*
X397870Y604083D01*
Y607600D01*
D02*
G37*
G36*
X168030Y474172D02*
X165850Y473885D01*
X163819Y473044D01*
X162075Y471705D01*
X160736Y469961D01*
X160470Y469319D01*
X145170D01*
X143805Y469047D01*
X142647Y468274D01*
X122102Y447729D01*
X86958D01*
X75304Y459384D01*
X74146Y460157D01*
X72780Y460429D01*
X40945D01*
X40438Y461651D01*
X38916Y463635D01*
X36931Y465158D01*
X34620Y466116D01*
X32140Y466442D01*
X29660Y466116D01*
X27349Y465158D01*
X25365Y463635D01*
X23842Y461651D01*
X22885Y459340D01*
X22558Y456860D01*
X22885Y454380D01*
X23842Y452069D01*
X25365Y450085D01*
X27349Y448562D01*
X29660Y447605D01*
X32140Y447278D01*
X34620Y447605D01*
X36931Y448562D01*
X38916Y450085D01*
X40438Y452069D01*
X40945Y453292D01*
X71302D01*
X82957Y441637D01*
X84115Y440863D01*
X85480Y440592D01*
X123580D01*
X124946Y440863D01*
X126103Y441637D01*
X146648Y462182D01*
X160470D01*
X160736Y461539D01*
X162075Y459795D01*
X163819Y458456D01*
X165850Y457615D01*
X168030Y457328D01*
X170210Y457615D01*
X172241Y458456D01*
X173985Y459795D01*
X175324Y461539D01*
X176165Y463570D01*
X176452Y465750D01*
X176165Y467930D01*
X175324Y469961D01*
X173985Y471705D01*
X172241Y473044D01*
X170210Y473885D01*
X168030Y474172D01*
D02*
G37*
G36*
X626500Y504505D02*
X622715Y504007D01*
X619188Y502546D01*
X616159Y500222D01*
X613835Y497193D01*
X612374Y493665D01*
X611875Y489880D01*
X612374Y486095D01*
X613835Y482568D01*
X616159Y479539D01*
X619188Y477214D01*
X622715Y475753D01*
X626500Y475255D01*
X630285Y475753D01*
X633813Y477214D01*
X636842Y479539D01*
X639166Y482568D01*
X640627Y486095D01*
X641125Y489880D01*
X640627Y493665D01*
X639166Y497193D01*
X636842Y500222D01*
X633813Y502546D01*
X630285Y504007D01*
X626500Y504505D01*
D02*
G37*
G36*
X541410Y541482D02*
X539230Y541195D01*
X537199Y540354D01*
X535455Y539015D01*
X534116Y537271D01*
X533275Y535240D01*
X532988Y533060D01*
X533275Y530880D01*
X534116Y528849D01*
X534891Y527839D01*
X488311Y481258D01*
X414139D01*
X414084Y481391D01*
X412745Y483135D01*
X411001Y484474D01*
X408970Y485315D01*
X406790Y485602D01*
X404610Y485315D01*
X402579Y484474D01*
X400835Y483135D01*
X399496Y481391D01*
X398655Y479360D01*
X398368Y477180D01*
X398655Y475000D01*
X399496Y472969D01*
X400835Y471225D01*
X402579Y469886D01*
X404610Y469045D01*
X406790Y468758D01*
X408970Y469045D01*
X411001Y469886D01*
X412745Y471225D01*
X414084Y472969D01*
X414139Y473102D01*
X490000D01*
X490000Y473102D01*
X491302Y473361D01*
X491561Y473412D01*
X492884Y474296D01*
X543501Y524913D01*
X543590Y524925D01*
X545621Y525766D01*
X547365Y527105D01*
X548704Y528849D01*
X549545Y530880D01*
X549832Y533060D01*
X549545Y535240D01*
X548704Y537271D01*
X547365Y539015D01*
X545621Y540354D01*
X543590Y541195D01*
X541410Y541482D01*
D02*
G37*
G36*
X162950Y432262D02*
X160770Y431975D01*
X158739Y431134D01*
X156995Y429795D01*
X155656Y428051D01*
X154815Y426020D01*
X154528Y423840D01*
X154815Y421660D01*
X155081Y421018D01*
X143692Y409629D01*
X40945D01*
X40438Y410851D01*
X38916Y412836D01*
X36931Y414358D01*
X34620Y415316D01*
X32140Y415642D01*
X29660Y415316D01*
X27349Y414358D01*
X25365Y412836D01*
X23842Y410851D01*
X22885Y408540D01*
X22558Y406060D01*
X22885Y403580D01*
X23842Y401269D01*
X25365Y399285D01*
X27349Y397762D01*
X29660Y396805D01*
X32140Y396478D01*
X34620Y396805D01*
X36931Y397762D01*
X38916Y399285D01*
X40438Y401269D01*
X40945Y402491D01*
X145170D01*
X146536Y402763D01*
X147694Y403537D01*
X160128Y415971D01*
X160770Y415705D01*
X162950Y415418D01*
X165130Y415705D01*
X167161Y416546D01*
X168905Y417885D01*
X170244Y419629D01*
X171085Y421660D01*
X171372Y423840D01*
X171085Y426020D01*
X170244Y428051D01*
X168905Y429795D01*
X167161Y431134D01*
X165130Y431975D01*
X162950Y432262D01*
D02*
G37*
G36*
X626500Y453705D02*
X622715Y453207D01*
X619188Y451746D01*
X616159Y449422D01*
X613835Y446393D01*
X612374Y442865D01*
X611875Y439080D01*
X612374Y435295D01*
X613835Y431768D01*
X616159Y428739D01*
X619188Y426414D01*
X622715Y424953D01*
X626500Y424455D01*
X630285Y424953D01*
X633813Y426414D01*
X636842Y428739D01*
X639166Y431768D01*
X640627Y435295D01*
X641125Y439080D01*
X640627Y442865D01*
X639166Y446393D01*
X636842Y449422D01*
X633813Y451746D01*
X630285Y453207D01*
X626500Y453705D01*
D02*
G37*
G36*
X161680Y451312D02*
X159500Y451025D01*
X157469Y450184D01*
X155725Y448845D01*
X154386Y447101D01*
X153545Y445070D01*
X153258Y442890D01*
X153545Y440710D01*
X153811Y440068D01*
X148772Y435029D01*
X40945D01*
X40438Y436251D01*
X38916Y438236D01*
X36931Y439758D01*
X34620Y440716D01*
X32140Y441042D01*
X29660Y440716D01*
X27349Y439758D01*
X25365Y438236D01*
X23842Y436251D01*
X22885Y433940D01*
X22558Y431460D01*
X22885Y428980D01*
X23842Y426669D01*
X25365Y424685D01*
X27349Y423162D01*
X29660Y422205D01*
X32140Y421878D01*
X34620Y422205D01*
X36931Y423162D01*
X38916Y424685D01*
X40438Y426669D01*
X40945Y427892D01*
X150250D01*
X151616Y428163D01*
X152774Y428937D01*
X158858Y435021D01*
X159500Y434755D01*
X161680Y434468D01*
X163860Y434755D01*
X165891Y435596D01*
X167635Y436935D01*
X168974Y438679D01*
X169815Y440710D01*
X170102Y442890D01*
X169815Y445070D01*
X168974Y447101D01*
X167635Y448845D01*
X165891Y450184D01*
X163860Y451025D01*
X161680Y451312D01*
D02*
G37*
G36*
X86750Y750940D02*
X55000D01*
X53173Y750700D01*
X51470Y749995D01*
X50008Y748873D01*
X32122Y730987D01*
X31159Y730588D01*
X29175Y729065D01*
X27652Y727081D01*
X26695Y724770D01*
X26368Y722290D01*
X26695Y719810D01*
X27652Y717499D01*
X29175Y715515D01*
X31159Y713992D01*
X33470Y713035D01*
X35950Y712708D01*
X38430Y713035D01*
X40741Y713992D01*
X42726Y715515D01*
X44248Y717499D01*
X45206Y719810D01*
X45532Y722290D01*
X45283Y724178D01*
X50677Y729572D01*
X51850Y729086D01*
Y712790D01*
X70850D01*
Y731790D01*
X54554D01*
X54068Y732963D01*
X57925Y736820D01*
X83826D01*
X127950Y692696D01*
Y666410D01*
Y624688D01*
X126808Y623812D01*
X124965Y621410D01*
X123806Y618612D01*
X123411Y615610D01*
X123599Y614184D01*
X89378Y579963D01*
X88256Y578500D01*
X87550Y576797D01*
X87310Y574970D01*
Y549005D01*
X87076Y548701D01*
X86235Y546670D01*
X85948Y544490D01*
X86235Y542310D01*
X87076Y540279D01*
X88415Y538535D01*
X90159Y537196D01*
X92190Y536355D01*
X94370Y536068D01*
X96550Y536355D01*
X98581Y537196D01*
X100325Y538535D01*
X101664Y540279D01*
X102505Y542310D01*
X102792Y544490D01*
X102505Y546670D01*
X101664Y548701D01*
X101431Y549005D01*
Y572046D01*
X133584Y604199D01*
X135010Y604011D01*
X138012Y604406D01*
X140810Y605565D01*
X143212Y607408D01*
X145055Y609810D01*
X146214Y612608D01*
X146609Y615610D01*
X146214Y618612D01*
X145055Y621410D01*
X143212Y623812D01*
X142071Y624688D01*
Y663486D01*
X205390Y726805D01*
X205770Y726855D01*
X207801Y727696D01*
X209545Y729035D01*
X210884Y730779D01*
X211725Y732810D01*
X212012Y734990D01*
X211725Y737170D01*
X210884Y739201D01*
X209545Y740945D01*
X207801Y742284D01*
X205770Y743125D01*
X203590Y743412D01*
X201410Y743125D01*
X199379Y742284D01*
X197635Y740945D01*
X196296Y739201D01*
X195455Y737170D01*
X195405Y736790D01*
X143244Y684629D01*
X142071Y685115D01*
Y695620D01*
X141830Y697447D01*
X141828Y697453D01*
X142615Y698606D01*
X142711Y698639D01*
X144810Y698915D01*
X146841Y699756D01*
X148585Y701095D01*
X149634Y702462D01*
X152790D01*
X154546Y702811D01*
X156034Y703806D01*
X162384Y710156D01*
X163379Y711644D01*
X163728Y713400D01*
Y724176D01*
X165095Y725225D01*
X166434Y726969D01*
X167275Y729000D01*
X167562Y731180D01*
X167275Y733360D01*
X166434Y735391D01*
X165095Y737135D01*
X163351Y738474D01*
X161320Y739315D01*
X159140Y739602D01*
X156960Y739315D01*
X154929Y738474D01*
X153185Y737135D01*
X151846Y735391D01*
X151005Y733360D01*
X150718Y731180D01*
X151005Y729000D01*
X151846Y726969D01*
X153185Y725225D01*
X154552Y724176D01*
Y715301D01*
X150890Y711638D01*
X149634D01*
X148585Y713005D01*
X146841Y714344D01*
X144810Y715185D01*
X142630Y715472D01*
X140450Y715185D01*
X138419Y714344D01*
X136675Y713005D01*
X135336Y711261D01*
X134495Y709230D01*
X134342Y708069D01*
X133001Y707614D01*
X91743Y748873D01*
X90280Y749995D01*
X88577Y750700D01*
X86750Y750940D01*
D02*
G37*
G36*
X185010Y627209D02*
X182008Y626814D01*
X179210Y625655D01*
X176808Y623812D01*
X174965Y621410D01*
X173806Y618612D01*
X173411Y615610D01*
X173806Y612608D01*
X174965Y609810D01*
X176808Y607408D01*
X179210Y605565D01*
X182008Y604406D01*
X185010Y604011D01*
X188012Y604406D01*
X190810Y605565D01*
X193212Y607408D01*
X195055Y609810D01*
X196214Y612608D01*
X196609Y615610D01*
X196214Y618612D01*
X195055Y621410D01*
X193212Y623812D01*
X190810Y625655D01*
X188012Y626814D01*
X185010Y627209D01*
D02*
G37*
G36*
X297570Y628949D02*
X294568Y628554D01*
X291770Y627395D01*
X289368Y625552D01*
X287525Y623150D01*
X286366Y620352D01*
X285971Y617350D01*
X286366Y614348D01*
X287525Y611550D01*
X289368Y609148D01*
X291770Y607305D01*
X294568Y606146D01*
X297570Y605751D01*
X300572Y606146D01*
X303370Y607305D01*
X305772Y609148D01*
X307615Y611550D01*
X308774Y614348D01*
X309169Y617350D01*
X308774Y620352D01*
X307615Y623150D01*
X305772Y625552D01*
X303370Y627395D01*
X300572Y628554D01*
X297570Y628949D01*
D02*
G37*
G36*
X626500Y656905D02*
X622715Y656407D01*
X619188Y654946D01*
X616159Y652622D01*
X613835Y649593D01*
X612374Y646065D01*
X612345Y645849D01*
X559190D01*
X557825Y645577D01*
X556667Y644803D01*
X496100Y584237D01*
X495033Y584966D01*
X495390Y587670D01*
X494994Y590672D01*
X493835Y593470D01*
X491992Y595872D01*
X489590Y597715D01*
X489398Y597795D01*
Y622430D01*
X488971Y624576D01*
X487756Y626395D01*
X475035Y639115D01*
X473216Y640331D01*
X471070Y640758D01*
X441730D01*
Y642650D01*
X427730D01*
Y628061D01*
X427730Y627650D01*
X426816Y626791D01*
X426816Y626791D01*
X407370D01*
Y628600D01*
X397370D01*
Y625083D01*
X396256Y623630D01*
X395550Y621927D01*
X395310Y620100D01*
X395550Y618273D01*
X396256Y616570D01*
X397370Y615117D01*
Y611600D01*
X407370D01*
Y612670D01*
X427670D01*
Y600860D01*
X427730Y600401D01*
Y593360D01*
X441730D01*
Y600401D01*
X441791Y600860D01*
Y618150D01*
X441730Y618609D01*
Y625650D01*
X436934D01*
X436680Y625845D01*
X435388Y626380D01*
X435640Y627650D01*
X441730D01*
Y629542D01*
X468747D01*
X478182Y620107D01*
Y597795D01*
X477991Y597715D01*
X475588Y595872D01*
X473745Y593470D01*
X472586Y590672D01*
X472191Y587670D01*
X472586Y584668D01*
X473745Y581870D01*
X475588Y579468D01*
X477991Y577625D01*
X480788Y576466D01*
X483790Y576071D01*
X486494Y576427D01*
X487224Y575360D01*
X467542Y555679D01*
X439810D01*
X438445Y555407D01*
X437287Y554633D01*
X432472Y549819D01*
X431830Y550085D01*
X429650Y550372D01*
X427470Y550085D01*
X425439Y549244D01*
X423695Y547905D01*
X422356Y546161D01*
X421515Y544130D01*
X421228Y541950D01*
X421515Y539770D01*
X422356Y537739D01*
X423695Y535995D01*
X425439Y534656D01*
X427470Y533815D01*
X429650Y533528D01*
X431830Y533815D01*
X433861Y534656D01*
X435605Y535995D01*
X436944Y537739D01*
X437785Y539770D01*
X438072Y541950D01*
X437785Y544130D01*
X437519Y544772D01*
X441288Y548541D01*
X461286D01*
X461772Y547368D01*
X452792Y538389D01*
X452150Y538655D01*
X449970Y538942D01*
X447790Y538655D01*
X445759Y537814D01*
X444015Y536475D01*
X442676Y534731D01*
X441835Y532700D01*
X441548Y530520D01*
X441835Y528340D01*
X442676Y526309D01*
X444015Y524565D01*
X445759Y523226D01*
X447790Y522385D01*
X449970Y522098D01*
X452150Y522385D01*
X454181Y523226D01*
X455925Y524565D01*
X457264Y526309D01*
X458105Y528340D01*
X458392Y530520D01*
X458105Y532700D01*
X457839Y533342D01*
X468038Y543541D01*
X471091D01*
X472457Y543813D01*
X473615Y544587D01*
X530909Y601881D01*
X611052D01*
X613968Y598966D01*
X613835Y598793D01*
X612374Y595265D01*
X611875Y591480D01*
X612374Y587695D01*
X613835Y584168D01*
X616159Y581139D01*
X619188Y578814D01*
X622715Y577353D01*
X626500Y576855D01*
X630285Y577353D01*
X633813Y578814D01*
X636842Y581139D01*
X639166Y584168D01*
X640627Y587695D01*
X641125Y591480D01*
X640627Y595265D01*
X639166Y598793D01*
X636842Y601822D01*
X633813Y604146D01*
X630285Y605607D01*
X626500Y606105D01*
X622715Y605607D01*
X619188Y604146D01*
X619014Y604013D01*
X615054Y607974D01*
X613896Y608747D01*
X612530Y609019D01*
X532635D01*
X532149Y610192D01*
X560668Y638712D01*
X612345D01*
X612374Y638495D01*
X613835Y634968D01*
X616159Y631939D01*
X619188Y629614D01*
X622715Y628153D01*
X626500Y627655D01*
X630285Y628153D01*
X633813Y629614D01*
X636842Y631939D01*
X639166Y634968D01*
X640627Y638495D01*
X641125Y642280D01*
X640627Y646065D01*
X639166Y649593D01*
X636842Y652622D01*
X633813Y654946D01*
X630285Y656407D01*
X626500Y656905D01*
D02*
G37*
G36*
X94370Y491963D02*
X91859Y491632D01*
X89519Y490663D01*
X87509Y489121D01*
X85967Y487112D01*
X85436Y485829D01*
X40945D01*
X40438Y487051D01*
X38916Y489035D01*
X36931Y490558D01*
X34620Y491516D01*
X32140Y491842D01*
X29660Y491516D01*
X27349Y490558D01*
X25365Y489035D01*
X23842Y487051D01*
X22885Y484740D01*
X22558Y482260D01*
X22885Y479780D01*
X23842Y477469D01*
X25365Y475485D01*
X27349Y473962D01*
X29660Y473005D01*
X32140Y472678D01*
X34620Y473005D01*
X36931Y473962D01*
X38916Y475485D01*
X40438Y477469D01*
X40945Y478691D01*
X85436D01*
X85967Y477409D01*
X87509Y475399D01*
X89519Y473857D01*
X91859Y472888D01*
X94370Y472557D01*
X96881Y472888D01*
X99222Y473857D01*
X101231Y475399D01*
X102773Y477409D01*
X103743Y479749D01*
X104073Y482260D01*
X103743Y484771D01*
X102773Y487112D01*
X101231Y489121D01*
X99222Y490663D01*
X96881Y491632D01*
X94370Y491963D01*
D02*
G37*
G36*
Y517363D02*
X91859Y517033D01*
X89519Y516063D01*
X87769Y514720D01*
X38544D01*
X36931Y515958D01*
X34620Y516916D01*
X32140Y517242D01*
X29660Y516916D01*
X27349Y515958D01*
X25365Y514436D01*
X23842Y512451D01*
X22885Y510140D01*
X22558Y507660D01*
X22885Y505180D01*
X23842Y502869D01*
X25365Y500885D01*
X27349Y499362D01*
X29660Y498405D01*
X32140Y498078D01*
X34620Y498405D01*
X36931Y499362D01*
X38544Y500600D01*
X87769D01*
X89519Y499257D01*
X91859Y498288D01*
X94370Y497957D01*
X96881Y498288D01*
X99222Y499257D01*
X101231Y500799D01*
X102773Y502809D01*
X103743Y505149D01*
X104073Y507660D01*
X103743Y510171D01*
X102773Y512512D01*
X101231Y514521D01*
X99222Y516063D01*
X96881Y517033D01*
X94370Y517363D01*
D02*
G37*
%LPD*%
G36*
X343766Y287839D02*
Y277827D01*
X342889Y277464D01*
X341145Y276125D01*
X339806Y274381D01*
X338965Y272350D01*
X338678Y270170D01*
X338965Y267990D01*
X339001Y267903D01*
X338581Y267367D01*
X338026Y266938D01*
X336940Y267154D01*
X335707D01*
X335344Y268031D01*
X334005Y269775D01*
X332261Y271114D01*
X330230Y271955D01*
X328050Y272242D01*
X325870Y271955D01*
X323839Y271114D01*
X322095Y269775D01*
X321224Y268641D01*
X319954Y269072D01*
Y273869D01*
X323853Y277768D01*
X324730Y277405D01*
X326910Y277118D01*
X329090Y277405D01*
X331121Y278246D01*
X332865Y279585D01*
X334204Y281329D01*
X335045Y283360D01*
X335332Y285540D01*
X335045Y287720D01*
X334204Y289751D01*
X332865Y291495D01*
X331121Y292834D01*
X329090Y293675D01*
X326910Y293962D01*
X324730Y293675D01*
X322699Y292834D01*
X320955Y291495D01*
X319616Y289751D01*
X318775Y287720D01*
X318488Y285540D01*
X318775Y283360D01*
X319138Y282483D01*
X314874Y278219D01*
X313604Y278745D01*
Y297053D01*
X314481Y297416D01*
X316225Y298755D01*
X317564Y300499D01*
X318405Y302530D01*
X318692Y304710D01*
X318405Y306890D01*
X317564Y308921D01*
X316225Y310665D01*
X315417Y311286D01*
X315848Y312556D01*
X319049D01*
X343766Y287839D01*
D02*
G37*
D12*
X339480Y517820D02*
D03*
Y534820D02*
D03*
X434730Y583860D02*
D03*
Y600860D02*
D03*
X364880Y599100D02*
D03*
Y616100D02*
D03*
X434730Y618150D02*
D03*
Y635150D02*
D03*
D22*
X68970Y70145D02*
Y89830D01*
Y50460D02*
Y70145D01*
X69825Y71000D01*
X156600D01*
X411870Y549570D02*
Y599100D01*
Y512740D02*
Y549570D01*
Y512740D02*
X422030Y502580D01*
X448700D01*
X533790Y587670D01*
X354230Y534820D02*
X362340Y526710D01*
X339480Y534820D02*
X354230D01*
X364880Y418760D02*
Y520070D01*
X192160Y103800D02*
X316620D01*
X131200Y164760D02*
X192160Y103800D01*
X131200Y164760D02*
Y343830D01*
X316620Y103800D02*
Y121580D01*
X393440Y198400D01*
X394540D01*
X440460Y244320D01*
Y292408D01*
X350910Y381958D02*
X440460Y292408D01*
X350910Y381958D02*
Y404790D01*
X343290Y479720D02*
Y493690D01*
X339480Y497500D02*
X343290Y493690D01*
X339480Y497500D02*
Y517820D01*
X402740Y619730D02*
X433150D01*
X434730Y618150D01*
X402370Y620100D02*
X402740Y619730D01*
X427110Y583860D02*
X434730D01*
X411870Y599100D02*
X427110Y583860D01*
X434730Y600860D02*
Y618150D01*
X364880Y599100D02*
X392870D01*
X345050Y635930D02*
X364880Y616100D01*
X340750Y635930D02*
X345050D01*
X246770Y375580D02*
X289950Y332400D01*
X182000Y375580D02*
X246770D01*
X88020Y389550D02*
Y390820D01*
X65160Y366690D02*
X88020Y389550D01*
X31505Y127295D02*
X68970Y89830D01*
X16900Y141900D02*
X31505Y127295D01*
Y151425D02*
X32140Y152060D01*
X31505Y127295D02*
Y151425D01*
X32140Y177460D02*
X65160Y210480D01*
Y366690D01*
X131200Y343830D02*
Y347030D01*
X188960Y404790D01*
X565540Y398440D02*
Y436540D01*
Y398440D02*
X626500Y337480D01*
X350910Y404790D02*
X364880Y418760D01*
X306460Y449240D02*
X350910Y404790D01*
X213750Y449240D02*
X306460D01*
X188960Y474030D02*
X213750Y449240D01*
X343290Y18180D02*
X532226D01*
X101250D02*
X343290D01*
X316620Y44850D02*
X343290Y18180D01*
X316620Y44850D02*
Y103800D01*
X232800Y275250D02*
X289950Y332400D01*
X231530Y275250D02*
X232800D01*
X289950Y332400D02*
X344560D01*
X188960Y404790D02*
Y474030D01*
X135010Y527980D02*
X188960Y474030D01*
X297570Y525440D02*
X343290Y479720D01*
X297570Y525440D02*
Y567350D01*
X579510Y587670D02*
X626500Y540680D01*
X533790Y587670D02*
X579510D01*
X94370Y544490D02*
Y574970D01*
X135010Y615610D01*
Y666410D02*
Y695620D01*
Y615610D02*
Y666410D01*
X86750Y743880D02*
X135010Y695620D01*
X55000Y743880D02*
X86750D01*
X35950Y724830D02*
X55000Y743880D01*
X35950Y722290D02*
Y724830D01*
X94370Y456860D02*
X114690Y477180D01*
Y507660D01*
X135010Y527980D01*
X32140Y507660D02*
X94370D01*
X340750Y595290D02*
Y635930D01*
X312810Y567350D02*
X340750Y595290D01*
X297570Y567350D02*
X312810D01*
X338260Y653710D02*
X383460Y698910D01*
X659520Y370500D02*
Y573700D01*
X656980Y571160D02*
X659520Y573700D01*
X626500Y540680D02*
X656980Y571160D01*
X433460Y729910D02*
X451240Y747690D01*
X648090D01*
X656980Y738800D01*
Y571160D02*
Y738800D01*
X135010Y527980D02*
X258200Y651170D01*
X242960Y653710D02*
X338260D01*
X68970Y50460D02*
X101250Y18180D01*
X509710Y79670D02*
X593716D01*
X24520Y533060D02*
X32140D01*
X16900Y525440D02*
X24520Y533060D01*
X16900Y141900D02*
Y525440D01*
X532226Y18180D02*
X593716Y79670D01*
X641740D01*
X488120Y58080D02*
X509710Y79670D01*
X641740D02*
X659520Y97450D01*
Y370500D01*
X626500Y337480D02*
X659520Y370500D01*
X60474Y766740D02*
X84210D01*
X51734Y758000D02*
X60474Y766740D01*
X28480Y758000D02*
X51734D01*
X20710Y750230D02*
X28480Y758000D01*
X20710Y656250D02*
Y750230D01*
X32140Y533060D02*
X37220Y527980D01*
X20710Y544490D02*
X32140Y533060D01*
X37220Y527980D02*
X135010D01*
X20710Y656250D02*
X35950Y671490D01*
X20710Y544490D02*
Y656250D01*
X216290Y680380D02*
X242960Y653710D01*
X135010Y666410D02*
X203590Y734990D01*
D23*
X371230Y271440D02*
Y323510D01*
X359800Y260010D02*
X371230Y271440D01*
X364880Y58080D02*
X364880Y58080D01*
X462720D01*
X269630Y202860D02*
Y218100D01*
Y202860D02*
X283600Y188890D01*
X340750Y260010D02*
X359800D01*
X336940Y263820D02*
X340750Y260010D01*
X328050Y263820D02*
X336940D01*
X316620Y249850D02*
X328590Y237880D01*
X378120D02*
X389010Y226990D01*
X328590Y237880D02*
X378120D01*
X316620Y249850D02*
Y275250D01*
X326910Y285540D01*
X329320Y228260D02*
X371230D01*
X310270Y247310D02*
X329320Y228260D01*
X310270Y247310D02*
Y304710D01*
X283600Y188890D02*
X311540D01*
X347100Y270170D02*
Y289220D01*
X320430Y315890D02*
X347100Y289220D01*
X303920Y315890D02*
X320430D01*
X293760Y305730D02*
X303920Y315890D01*
X293760Y289220D02*
Y305730D01*
X389010Y211750D02*
Y226990D01*
D24*
X411870Y599100D02*
Y601640D01*
X145170Y406060D02*
X162950Y423840D01*
X32140Y406060D02*
X145170D01*
X150250Y431460D02*
X161680Y442890D01*
X32140Y431460D02*
X150250D01*
X85480Y444160D02*
X123580D01*
X145170Y465750D02*
X168030D01*
X123580Y444160D02*
X145170Y465750D01*
X72780Y456860D02*
X85480Y444160D01*
X32140Y456860D02*
X72780D01*
X612530Y605450D02*
X626500Y591480D01*
X529431Y605450D02*
X612530D01*
X471091Y547110D02*
X529431Y605450D01*
X466560Y547110D02*
X471091D01*
X449970Y530520D02*
X466560Y547110D01*
X559190Y642280D02*
X626500D01*
X469020Y552110D02*
X559190Y642280D01*
X439810Y552110D02*
X469020D01*
X429650Y541950D02*
X439810Y552110D01*
X32140Y482260D02*
X94370D01*
D25*
X483790Y587670D02*
Y622430D01*
X471070Y635150D02*
X483790Y622430D01*
X434730Y635150D02*
X471070D01*
D26*
X541410Y528590D02*
Y533060D01*
X490000Y477180D02*
X541410Y528590D01*
X355990Y336210D02*
X383930D01*
X348370Y328590D02*
X355990Y336210D01*
X383930D02*
X427110Y293030D01*
X428380Y384470D02*
X479180D01*
X383930Y428920D02*
X428380Y384470D01*
X383930Y428920D02*
Y544490D01*
X392870Y553430D01*
Y599100D01*
X406790Y477180D02*
X490000D01*
X344560Y332400D02*
X348370Y328590D01*
X427110Y263000D02*
Y293030D01*
D27*
X159140Y713400D02*
Y731180D01*
X152790Y707050D02*
X159140Y713400D01*
X234070Y729910D02*
X277250Y686730D01*
X324240D01*
X142630Y707050D02*
X152790D01*
X156600Y226990D02*
X211210Y172380D01*
X325510D01*
X260740Y404790D02*
X269630Y395900D01*
X242960Y404790D02*
X260740D01*
D29*
X40550Y43630D02*
D03*
Y785000D02*
D03*
X644760Y43630D02*
D03*
X644760Y785000D02*
D03*
D30*
X32140Y533060D02*
D03*
X61350Y722290D02*
D03*
D31*
X32140Y507660D02*
D03*
Y482260D02*
D03*
Y456860D02*
D03*
Y431460D02*
D03*
Y406060D02*
D03*
Y380660D02*
D03*
Y355260D02*
D03*
Y329860D02*
D03*
Y304460D02*
D03*
Y279060D02*
D03*
Y253660D02*
D03*
Y228260D02*
D03*
Y202860D02*
D03*
Y177460D02*
D03*
Y152060D02*
D03*
X35950Y620690D02*
D03*
X61350D02*
D03*
X35950Y646090D02*
D03*
X61350D02*
D03*
X35950Y671490D02*
D03*
X61350D02*
D03*
X35950Y696890D02*
D03*
X61350D02*
D03*
X35950Y722290D02*
D03*
X500820Y32680D02*
D03*
X488120Y58080D02*
D03*
X475420Y32680D02*
D03*
X462720Y58080D02*
D03*
X513520D02*
D03*
X526220Y32680D02*
D03*
D32*
X433460Y729910D02*
D03*
Y667910D02*
D03*
X383460Y698910D02*
D03*
X626500Y693080D02*
D03*
Y642280D02*
D03*
Y591480D02*
D03*
Y540680D02*
D03*
Y489880D02*
D03*
Y439080D02*
D03*
Y388280D02*
D03*
Y337480D02*
D03*
Y286680D02*
D03*
Y235880D02*
D03*
Y185080D02*
D03*
Y134280D02*
D03*
D33*
X94370Y456860D02*
D03*
Y482260D02*
D03*
Y507660D02*
D03*
X545220Y121580D02*
D03*
X443620D02*
D03*
D34*
X483790Y587670D02*
D03*
X533790D02*
D03*
X135010Y615610D02*
D03*
X185010D02*
D03*
X297570Y567350D02*
D03*
Y617350D02*
D03*
D35*
X510930Y676570D02*
D03*
Y727370D02*
D03*
D36*
X156600Y71000D02*
D03*
X364880Y438000D02*
D03*
X327700Y428000D02*
D03*
X361000Y371868D02*
D03*
X411870Y549570D02*
D03*
X159140Y731180D02*
D03*
X541410Y533060D02*
D03*
X371230Y323510D02*
D03*
X349640Y326050D02*
D03*
X362340Y526710D02*
D03*
X479180Y384470D02*
D03*
X182000Y375580D02*
D03*
X162950Y423840D02*
D03*
X161680Y442890D02*
D03*
X88020Y390820D02*
D03*
X168030Y465750D02*
D03*
X345830Y479720D02*
D03*
X131200Y343830D02*
D03*
X406790Y477180D02*
D03*
X565540Y436540D02*
D03*
X429650Y541950D02*
D03*
X449970Y530520D02*
D03*
X350910Y404790D02*
D03*
X316620Y103800D02*
D03*
X364880Y58080D02*
D03*
X231530Y275250D02*
D03*
X289950Y332400D02*
D03*
X269630Y218100D02*
D03*
X94370Y544490D02*
D03*
X340750Y635930D02*
D03*
X84210Y766740D02*
D03*
X234070Y729910D02*
D03*
X203590Y734990D02*
D03*
X324240Y686730D02*
D03*
X142630Y707050D02*
D03*
X216290Y680380D02*
D03*
X328050Y263820D02*
D03*
X156600Y226990D02*
D03*
X325510Y172380D02*
D03*
X311540Y188890D02*
D03*
X269630Y395900D02*
D03*
X347100Y270170D02*
D03*
X293760Y289220D02*
D03*
X310270Y304710D02*
D03*
X371230Y228260D02*
D03*
X326910Y285540D02*
D03*
X389010Y211750D02*
D03*
X427110Y263000D02*
D03*
D37*
X188960Y404790D02*
D03*
X242960D02*
D03*
D38*
X411870Y599100D02*
D03*
X392870D02*
D03*
X402370Y620100D02*
D03*
M02*
