%FSLAX25Y25*%
%MOIN*%
G70*
G01*
G75*
G04 Layer_Color=16711935*
%ADD10R,0.21654X0.07874*%
%ADD11R,0.22047X0.22047*%
%ADD12R,0.07874X0.04724*%
%ADD13R,0.05906X0.01181*%
%ADD14R,0.01181X0.05906*%
%ADD15R,0.03937X0.04331*%
%ADD16R,0.04331X0.03937*%
%ADD17R,0.04724X0.04724*%
%ADD18R,0.02756X0.02756*%
%ADD19R,0.04724X0.04724*%
%ADD20R,0.06614X0.05984*%
%ADD21R,0.05906X0.05118*%
%ADD22C,0.02756*%
%ADD23C,0.04724*%
%ADD24C,0.01000*%
%ADD25C,0.01181*%
%ADD26C,0.03937*%
%ADD27R,0.07874X0.07874*%
%ADD28C,0.07874*%
%ADD29R,0.05906X0.05906*%
%ADD30C,0.05906*%
%ADD31C,0.05000*%
%ADD32C,0.19685*%
%ADD33C,0.07874*%
%ADD34C,0.01969*%
%ADD35C,0.00394*%
%ADD36R,0.22453X0.08674*%
%ADD37R,0.22847X0.22847*%
%ADD38R,0.08674X0.05524*%
%ADD39R,0.06706X0.01981*%
%ADD40R,0.01981X0.06706*%
%ADD41R,0.04737X0.05131*%
%ADD42R,0.05131X0.04737*%
%ADD43R,0.05524X0.05524*%
%ADD44R,0.03556X0.03556*%
%ADD45R,0.05524X0.05524*%
%ADD46R,0.07414X0.06784*%
%ADD47R,0.06706X0.05918*%
%ADD48R,0.08674X0.08674*%
%ADD49C,0.08674*%
%ADD50R,0.06706X0.06706*%
%ADD51C,0.06706*%
%ADD52C,0.00800*%
%ADD53C,0.05800*%
D48*
X264567Y24409D02*
D03*
X208268Y141339D02*
D03*
D49*
X250787Y44094D02*
D03*
X222047Y121653D02*
D03*
D50*
X133858Y19685D02*
D03*
X114173D02*
D03*
X94488D02*
D03*
D51*
X61968Y41929D02*
D03*
X51968Y36929D02*
D03*
X61968Y31929D02*
D03*
Y21929D02*
D03*
X51968Y26929D02*
D03*
Y16929D02*
D03*
D52*
X26929Y46929D02*
D03*
Y9409D02*
D03*
D53*
X115354Y32677D02*
D03*
X165748Y141339D02*
D03*
X146063Y92913D02*
D03*
X196457Y4331D02*
D03*
X101181Y105118D02*
D03*
X164173Y44488D02*
D03*
X94882Y27559D02*
D03*
M02*
