%FSLAX25Y25*%
%MOIN*%
G70*
G01*
G75*
G04 Layer_Physical_Order=2*
G04 Layer_Color=16711680*
%ADD10R,0.21654X0.07874*%
%ADD11R,0.22047X0.22047*%
%ADD12R,0.07874X0.04724*%
%ADD13R,0.05906X0.01181*%
%ADD14R,0.01181X0.05906*%
%ADD15R,0.03937X0.04331*%
%ADD16R,0.04331X0.03937*%
%ADD17R,0.04724X0.04724*%
%ADD18R,0.02756X0.02756*%
%ADD19R,0.04724X0.04724*%
%ADD20R,0.06614X0.05984*%
%ADD21R,0.05906X0.05118*%
%ADD22C,0.02756*%
%ADD23C,0.04724*%
%ADD24C,0.01000*%
%ADD25C,0.01181*%
%ADD26C,0.03937*%
%ADD27R,0.07874X0.07874*%
%ADD28C,0.07874*%
%ADD29R,0.05906X0.05906*%
%ADD30C,0.05906*%
%ADD31C,0.05000*%
%ADD32C,0.19685*%
%ADD33C,0.07874*%
D24*
X115354Y62205D02*
X146063Y92913D01*
X115354Y32677D02*
Y62205D01*
X146063Y92913D02*
X161417Y108268D01*
X101181Y105118D02*
X104331Y108268D01*
X94882Y27559D02*
X150394D01*
X164173Y41339D01*
Y44488D01*
D27*
X264567Y24409D02*
D03*
X208268Y141339D02*
D03*
D28*
X250787Y44094D02*
D03*
X222047Y121653D02*
D03*
D29*
X133858Y19685D02*
D03*
X114173D02*
D03*
X94488D02*
D03*
D30*
X61968Y41929D02*
D03*
X51968Y36929D02*
D03*
X61968Y31929D02*
D03*
Y21929D02*
D03*
X51968Y26929D02*
D03*
Y16929D02*
D03*
D31*
X115354Y32677D02*
D03*
X165748Y141339D02*
D03*
X146063Y92913D02*
D03*
X196457Y4331D02*
D03*
X101181Y105118D02*
D03*
X164173Y44488D02*
D03*
X94882Y27559D02*
D03*
D32*
X209055Y108268D02*
X222835Y122047D01*
X104331Y108268D02*
X161417D01*
X185039Y122047D02*
X222835D01*
X165748Y141339D02*
X185039Y122047D01*
D33*
X161417Y108268D02*
X209055D01*
X196457Y65354D02*
X209055Y77953D01*
X196457Y4331D02*
Y65354D01*
X209055Y77953D02*
Y108268D01*
M02*
