M48
;Layer_Color=9474304
;FILE_FORMAT=2:5
INCH,LZ
;TYPE=PLATED
T1F00S00C0.02800
T2F00S00C0.03543
T3F00S00C0.04331
T4F00S00C0.13780
%
T01
X0116591Y0031157
X0162992Y0048819
X02Y002126
X0172835Y0062598
X0126378Y0104331
X0105118Y010748
X0109449Y0123228
X0116535Y0122835
X0061811Y0137402
X0048425Y0062205
T02
X0057323Y0015157
Y0025157
Y0035157
X0067323Y0030158
Y0020157
Y0040157
T03
X0095669Y0019685
X0115354
X0135039
X0215354Y0130709
X0201575Y0150394
X0164961
X017874Y0130709
T04
X0032283Y0007638
Y0047638
M30
